SplineFontDB: 3.2
FontName: Modern-manJu-Round
FullName: Modern manJu Round
FamilyName: Modern-manJu
Weight: Book
Copyright: Copyright 2023 LLLLL.
Version: 0.4beta
ItalicAngle: 0
UnderlinePosition: -420
UnderlineWidth: 100
Ascent: 1352
Descent: 696
InvalidEm: 0
sfntRevision: 0x00010000
LayerCount: 2
Layer: 0 1 "Back" 1
Layer: 1 1 "Fore" 0
XUID: [1021 520 2022644484 8954717]
StyleMap: 0x0040
FSType: 0
OS2Version: 3
OS2_WeightWidthSlopeOnly: 0
OS2_UseTypoMetrics: 0
CreationTime: 1390402476
ModificationTime: 1687956208
PfmFamily: 17
TTFWeight: 400
TTFWidth: 5
LineGap: 0
VLineGap: 0
Panose: 2 2 6 3 5 4 5 2 3 4
OS2TypoAscent: 2000
OS2TypoAOffset: 0
OS2TypoDescent: -450
OS2TypoDOffset: 0
OS2TypoLinegap: 0
OS2WinAscent: 2000
OS2WinAOffset: 0
OS2WinDescent: 450
OS2WinDOffset: 0
HheadAscent: 2000
HheadAOffset: 0
HheadDescent: -450
HheadDOffset: 0
OS2SubXSize: 2000
OS2SubYSize: 664
OS2SubXOff: 0
OS2SubYOff: 144
OS2SupXSize: 2000
OS2SupYSize: 664
OS2SupXOff: 0
OS2SupYOff: 464
OS2StrikeYSize: 51
OS2StrikeYPos: 264
OS2CapHeight: 1750
OS2XHeight: 740
OS2FamilyClass: 261
OS2Vendor: 'SBT '
OS2CodePages: 001e0101.00000000
OS2UnicodeRanges: 800000a7.1001e408.00020016.00000000
Lookup: 1 0 0 "Single Subs wide y" { "Single Subs wide y-1"  } []
Lookup: 1 0 0 "Single Substitution k g h t d force replacement" { "Single Substitution t d-isol"  "Single Substitution k g h"  } []
Lookup: 1 0 0 "Single Substitution o u fina" { "Single Substitution lookup 4 subtable"  } []
Lookup: 1 0 0 "Single Substitution lookup 6" { "Single Substitution lookup 6 subtable"  } []
Lookup: 1 0 0 "Single Substitution lookup 7" { "Single Substitution lookup 7 subtable"  } []
Lookup: 1 0 0 "Single Substitution lookup 8" { "Single Substitution lookup 8 subtable"  } []
Lookup: 1 0 0 "Single Substitution lookup 9" { "Single Substitution lookup 9 subtable"  } []
Lookup: 1 0 0 "Single Substitution k to F" { "Single Substitution lookup 10 subtable"  } []

StartChar: a.isol
Encoding: 0 6176 0
Width: 1803
GlyphClass: 2
Flags: W
LayerCount: 2
Fore
SplineSet
656 735 m 1,0,1
 656 735 656 735 1148.5 735 c 128,-1,2
 1641 735 1641 735 1641 1230.5 c 0,3,4
 1641 1476 1641 1476 1516 1599 c 128,-1,5
 1391 1722 1391 1722 1148 1720 c 0,6,7
 1065 1720 1065 1720 1063 1805 c 0,8,9
 1063 1886 1063 1886 1148 1884 c 0,10,11
 1805 1884 1805 1884 1805 1228 c 256,12,13
 1805 571 1805 571 1148 571 c 2,14,15
 1148 571 1148 571 656 571 c 1,16,17
 656 571 656 571 656 409 c 0,18,19
 656 328 656 328 573 328 c 128,-1,20
 490 328 490 328 491 410 c 2,21,22
 491 410 491 410 492 492 c 257,23,24
 492 492 492 492 492 737.5 c 0,25,26
 492 1230.02469136 492 1230.02469136 0 1228 c 0,27,28
 -81 1228 -81 1228 -81 1310 c 128,-1,29
 -81 1392 -81 1392 0 1392 c 0,30,31
 656 1392 656 1392 656 735 c 1,0,1
  Spiro
    0 1392 o
    287 1351 o
    492 1228 o
    615 1022.75 o
    656 735 v
    952 735 [
    1148 735 o
    1362.5 766.25 o
    1516 860 o
    1609.75 1014.5 o
    1641 1228 o
    1609.75 1444.25 o
    1516 1597 o
    1361.5 1690.25 o
    1148 1720 o
    1085.25 1741.25 o
    1063 1805 o
    1084.25 1865.25 o
    1148 1884 o
    1435.25 1843 o
    1641 1720 o
    1764 1515 o
    1805 1228 o
    1764 940.75 o
    1641 735 o
    1435.75 612 o
    1148 571 o
    952 571 ]
    656 571 v
    656 510.75 o
    656 492 v
    656 409 [
    634.75 348.25 o
    571 328 o
    510.75 348.25 o
    492 409 ]
    492 492 v
    492 735 [
    461 951.25 o
    368 1104 o
    213.5 1197.5 o
    0 1228 o
    -60.75 1249 o
    -81 1312 o
    -60.75 1372 o
    0 0 z
  EndSpiro
EndSplineSet
Substitution2: "'fina' Terminal Forms in Mongolian lookup 2 subtable" a.fina
Substitution2: "'medi' Medial Forms in Mongolian lookup 1 subtable" a.medi
Substitution2: "Required Feature in Latin lookup 0 subtable" a.init
EndChar

StartChar: a.init
Encoding: 1 -1 1
Width: 1312
VWidth: 4095
GlyphClass: 2
Flags: W
LayerCount: 2
Fore
SplineSet
0 1392 m 0,0,1
 656 1392 656 1392 656 735 c 1,2,3
 656 735 656 735 1312 735 c 1,4,5
 1312 735 1312 735 1392 656 c 1,6,7
 1352 614 1352 614 1312 571 c 1,8,9
 1312 571 1312 571 1063 571 c 1,10,11
 1063 571 1063 571 1063 409 c 0,12,13
 1063 328 1063 328 981.5 328 c 128,-1,14
 900 328 900 328 899 410 c 128,-1,15
 898 492 898 492 899 492 c 257,16,17
 899 492 899 492 899 571 c 1,18,19
 899 571 899 571 656 571 c 1,20,21
 656 571 656 571 656 409 c 0,22,23
 656 328 656 328 573.5 328 c 128,-1,24
 491 328 491 328 492 410 c 128,-1,25
 493 492 493 492 492 492 c 257,26,27
 492 492 492 492 492 736 c 128,-1,28
 492 980 492 980 367.5 1104.5 c 128,-1,29
 243 1229 243 1229 0 1228 c 0,30,31
 -81 1228 -81 1228 -81 1310 c 128,-1,32
 -81 1392 -81 1392 0 1392 c 0,0,1
EndSplineSet
EndChar

StartChar: a.fina
Encoding: 2 -1 2
Width: 1227
VWidth: 4095
GlyphClass: 2
Flags: W
LayerCount: 2
Fore
SplineSet
1228 1228 m 256,0,1
 1228 571 1228 571 571 571 c 2,2,3
 571 571 571 571 0 571 c 1,4,5
 0 571 0 571 0 735 c 1,6,7
 0 735 0 735 571 735 c 0,8,9
 1063 735 1063 735 1063 1229.49190283 c 128,-1,10
 1063 1723.98380567 1063 1723.98380567 571 1720 c 0,11,12
 490 1720 490 1720 491 1803 c 128,-1,13
 492 1886 492 1886 571 1884 c 0,14,15
 1226 1884 1226 1884 1228 1228 c 256,0,1
EndSplineSet
Substitution2: "Single Substitution lookup 6 subtable" a1.fina
EndChar

StartChar: a1.fina
Encoding: 3 -1 3
Width: 1311
VWidth: 4095
GlyphClass: 2
Flags: W
LayerCount: 2
Fore
SplineSet
1148 81 m 0,0,1
 1148 575.049382716 1148 575.049382716 656 571 c 1,2,3
 656 571 656 571 164 571 c 1,4,5
 164 571 164 571 164 409 c 0,6,7
 164 328 164 328 82 328 c 128,-1,8
 0 328 0 328 0 410 c 2,9,10
 0 410 0 410 0 735 c 1,11,12
 0 735 0 735 656 735 c 128,-1,13
 1312 735 1312 735 1312 81 c 0,14,15
 1312 -243 1312 -243 1148 -409 c 256,16,17
 984 -573 984 -573 656 -571 c 0,18,19
 573 -571 573 -571 571 -492 c 0,20,21
 571 -409 571 -409 656 -409 c 0,22,23
 1150 -409 1150 -409 1148 81 c 0,0,1
EndSplineSet
EndChar

StartChar: a.medi
Encoding: 4 -1 4
Width: 409
VWidth: 4095
GlyphClass: 2
Flags: W
LayerCount: 2
Fore
SplineSet
0 735 m 1,0,1
 0 735 0 735 409 735 c 1,2,3
 409 735 409 735 489 656 c 261,4,5
 489 656 489 656 409 571 c 1,6,7
 409 571 409 571 164 571 c 1,8,9
 164 571 164 571 164 409 c 0,10,11
 164 328 164 328 82 328 c 128,-1,12
 0 328 0 328 0 410 c 2,13,14
 0 410 0 410 0 735 c 1,0,1
EndSplineSet
Substitution2: "Single Substitution lookup 26 subtable" glyph277
EndChar

StartChar: e.isol
Encoding: 5 6237 5
Width: 1803
VWidth: 4095
GlyphClass: 2
Flags: W
LayerCount: 2
Fore
SplineSet
1148 -409 m 0,0,1
 1641 -409 1641 -409 1641 83.0288065844 c 128,-1,2
 1641 575.057613169 1641 575.057613169 1148 571 c 1,3,4
 1148 571 1148 571 656 571 c 1,5,6
 656 571 656 571 656 409 c 0,7,8
 656 328 656 328 573 328 c 128,-1,9
 490 328 490 328 491 410 c 2,10,11
 491 410 491 410 492 492 c 257,12,13
 492 492 492 492 492 737.5 c 0,14,15
 492 1230.02469136 492 1230.02469136 0 1228 c 0,16,17
 -81 1228 -81 1228 -81 1310 c 128,-1,18
 -81 1392 -81 1392 0 1392 c 0,19,20
 656 1392 656 1392 656 735 c 1,21,22
 656 735 656 735 1148 735 c 0,23,24
 1805 735 1805 735 1805 81 c 0,25,26
 1805 -243 1805 -243 1641 -409 c 256,27,28
 1477 -573 1477 -573 1148 -571 c 0,29,30
 1065 -571 1065 -571 1063 -492 c 0,31,32
 1063 -409 1063 -409 1148 -409 c 0,0,1
EndSplineSet
Substitution2: "'fina' Terminal Forms in Mongolian lookup 2 subtable" e.fina
Substitution2: "'medi' Medial Forms in Mongolian lookup 1 subtable" e.medi
Substitution2: "Required Feature in Latin lookup 0 subtable" e.init
EndChar

StartChar: e.init
Encoding: 6 -1 6
Width: 1312
VWidth: 4095
GlyphClass: 2
Flags: W
LayerCount: 2
Fore
SplineSet
0 1392 m 0,0,1
 656 1392 656 1392 656 735 c 1,2,3
 656 735 656 735 1312 735 c 1,4,5
 1352 696 1352 696 1392 656 c 257,6,7
 1392 656 1392 656 1312 571 c 1,8,9
 1312 571 1312 571 656 571 c 1,10,11
 656 571 656 571 656 409 c 0,12,13
 656 328 656 328 573.5 328 c 128,-1,14
 491 328 491 328 492 410 c 128,-1,15
 493 492 493 492 492 492 c 257,16,17
 492 492 492 492 492 736 c 128,-1,18
 492 980 492 980 367.5 1104.5 c 128,-1,19
 243 1229 243 1229 0 1228 c 0,20,21
 -81 1228 -81 1228 -81 1310 c 128,-1,22
 -81 1392 -81 1392 0 1392 c 0,0,1
EndSplineSet
EndChar

StartChar: e.fina
Encoding: 7 -1 7
Width: 1227
VWidth: 4095
GlyphClass: 2
Flags: W
LayerCount: 2
Fore
SplineSet
1228 1228 m 256,0,1
 1228 571 1228 571 571 571 c 2,2,3
 571 571 571 571 0 571 c 1,4,5
 0 571 0 571 0 735 c 1,6,7
 0 735 0 735 571 735 c 0,8,9
 1063 735 1063 735 1063 1229.49190283 c 128,-1,10
 1063 1723.98380567 1063 1723.98380567 571 1720 c 0,11,12
 490 1720 490 1720 491 1803 c 128,-1,13
 492 1886 492 1886 571 1884 c 0,14,15
 1226 1884 1226 1884 1228 1228 c 256,0,1
696 1269 m 256,16,17
 696 1219 696 1219 661 1184 c 1,18,19
 635.460377358 1150.47924528 635.460377358 1150.47924528 571 1148 c 256,20,21
 515.428571429 1148 515.428571429 1148 488 1184 c 1,22,23
 453 1210.66666667 453 1210.66666667 453 1269 c 256,24,25
 453 1345.39130435 453 1345.39130435 527 1384 c 0,26,27
 548 1391 548 1391 571 1392 c 256,28,29
 654.12 1392 654.12 1392 688 1315 c 0,30,31
 695 1292 695 1292 696 1269 c 256,16,17
EndSplineSet
Substitution2: "Single Substitution lookup 8 subtable" e3.fina
Substitution2: "Single Substitution lookup 7 subtable" e2.fina
Substitution2: "Single Substitution lookup 6 subtable" e1.fina
EndChar

StartChar: e1.fina
Encoding: 8 -1 8
Width: 1227
VWidth: 4095
GlyphClass: 2
Flags: W
LayerCount: 2
Fore
SplineSet
1228 1228 m 256,0,1
 1228 571 1228 571 571 571 c 2,2,3
 571 571 571 571 0 571 c 1,4,5
 0 571 0 571 0 735 c 1,6,7
 0 735 0 735 571 735 c 0,8,9
 1063 735 1063 735 1063 1229.49190283 c 128,-1,10
 1063 1723.98380567 1063 1723.98380567 571 1720 c 0,11,12
 490 1720 490 1720 491 1803 c 128,-1,13
 492 1886 492 1886 571 1884 c 0,14,15
 1226 1884 1226 1884 1228 1228 c 256,0,1
EndSplineSet
EndChar

StartChar: e3.fina
Encoding: 9 -1 9
Width: 1311
VWidth: 4095
GlyphClass: 2
Flags: W
LayerCount: 2
Fore
SplineSet
1148 81 m 0,0,1
 1148 575.049382716 1148 575.049382716 656 571 c 1,2,3
 656 571 656 571 164 571 c 1,4,5
 164 571 164 571 164 409 c 0,6,7
 164 328 164 328 82 328 c 128,-1,8
 0 328 0 328 0 410 c 2,9,10
 0 410 0 410 0 735 c 1,11,12
 0 735 0 735 656 735 c 128,-1,13
 1312 735 1312 735 1312 81 c 0,14,15
 1312 -243 1312 -243 1148 -409 c 256,16,17
 984 -573 984 -573 656 -571 c 0,18,19
 573 -571 573 -571 571 -492 c 0,20,21
 571 -409 571 -409 656 -409 c 0,22,23
 1150 -409 1150 -409 1148 81 c 0,0,1
-368 1759 m 256,24,25
 -368 1718.25 -368 1718.25 -404 1671 c 0,26,27
 -420 1655 -420 1655 -444 1648 c 1,28,29
 -467 1636 -467 1636 -492 1636 c 256,30,31
 -540.625 1636 -540.625 1636 -580 1671 c 1,32,33
 -596 1692 -596 1692 -604 1715 c 1,34,35
 -616 1736 -616 1736 -617 1759 c 256,36,37
 -617 1782 -617 1782 -604 1808 c 1,38,39
 -597 1831 -597 1831 -580 1849 c 1,40,41
 -559 1865 -559 1865 -541 1876 c 1,42,43
 -518 1883 -518 1883 -492 1884 c 256,44,45
 -443.666666667 1884 -443.666666667 1884 -404 1849 c 256,46,47
 -366 1811 -366 1811 -368 1759 c 256,24,25
EndSplineSet
EndChar

StartChar: e2.fina
Encoding: 10 -1 10
Width: 1311
VWidth: 4095
GlyphClass: 2
Flags: W
LayerCount: 2
Fore
SplineSet
1148 81 m 0,0,1
 1148 575.049382716 1148 575.049382716 656 571 c 1,2,3
 656 571 656 571 164 571 c 1,4,5
 164 571 164 571 164 409 c 0,6,7
 164 328 164 328 82 328 c 128,-1,8
 0 328 0 328 0 410 c 2,9,10
 0 410 0 410 0 735 c 1,11,12
 0 735 0 735 656 735 c 128,-1,13
 1312 735 1312 735 1312 81 c 0,14,15
 1312 -243 1312 -243 1148 -409 c 256,16,17
 984 -573 984 -573 656 -571 c 0,18,19
 573 -571 573 -571 571 -492 c 0,20,21
 571 -409 571 -409 656 -409 c 0,22,23
 1150 -409 1150 -409 1148 81 c 0,0,1
EndSplineSet
EndChar

StartChar: e.medi
Encoding: 11 -1 11
Width: 409
VWidth: 4095
GlyphClass: 2
Flags: W
LayerCount: 2
Fore
SplineSet
0 409 m 2,0,1
 0 409 0 409 0 735 c 1,2,3
 0 735 0 735 409 735 c 1,4,5
 409 735 409 735 489 656 c 5,6,7
 489 656 489 656 409 571 c 1,8,9
 409 571 409 571 164 571 c 1,10,11
 164 571 164 571 164 409 c 0,12,13
 164 328 164 328 82 328 c 128,-1,14
 0 328 0 328 0 409 c 2,0,1
204 1269 m 256,15,16
 204 1220 204 1220 168 1184 c 1,17,18
 142.6124197 1150.67880086 142.6124197 1150.67880086 73.7862098501 1149.33940043 c 0,19,20
 4.96 1148 4.96 1148 -32 1225 c 0,21,22
 -39 1246 -39 1246 -40 1269 c 256,23,24
 -40 1347.04 -40 1347.04 37 1384 c 1,25,26
 111.12145749 1406.55870445 111.12145749 1406.55870445 168 1356 c 256,27,28
 201.681818182 1322.31818182 201.681818182 1322.31818182 204 1269 c 256,15,16
EndSplineSet
Substitution2: "Single Substitution lookup 26 subtable" glyph278
Substitution2: "Single Substitution lookup 6 subtable" e1.medi
EndChar

StartChar: e1.medi
Encoding: 12 -1 12
Width: 409
VWidth: 4095
GlyphClass: 2
Flags: W
LayerCount: 2
Fore
SplineSet
0 735 m 1,0,1
 0 735 0 735 409 735 c 1,2,3
 489 657 489 657 489 656 c 256,4,5
 449 614 449 614 409 571 c 1,6,7
 409 571 409 571 164 571 c 1,8,9
 164 571 164 571 164 409 c 0,10,11
 164 328 164 328 82 328 c 128,-1,12
 0 328 0 328 0 410 c 2,13,14
 0 410 0 410 0 735 c 1,0,1
EndSplineSet
Substitution2: "Single Substitution lookup 26 subtable" glyph277
EndChar

StartChar: i.isol
Encoding: 13 6259 13
Width: 1803
VWidth: 4095
GlyphClass: 2
Flags: W
LayerCount: 2
Fore
SplineSet
0 1392 m 0,0,1
 656 1392 656 1392 656 735 c 1,2,3
 656 735 656 735 899 735 c 1,4,5
 899 899 899 899 1024 1024 c 256,6,7
 1148 1149 1148 1149 1312 1148 c 0,8,9
 1557 1148 1557 1148 1680 1024 c 256,10,11
 1805 899 1805 899 1805 656 c 0,12,13
 1805 573 1805 573 1720 571 c 0,14,15
 1639 571 1639 571 1641 656 c 0,16,17
 1641 820 1641 820 1556 899 c 1,18,19
 1474 982 1474 982 1312 984 c 0,20,21
 1229 984 1229 984 1148 899 c 1,22,23
 1065 818 1065 818 1063 656 c 1,24,25
 1063 656 1063 656 1063 0 c 0,26,27
 1063 -81 1063 -81 982 -81 c 128,-1,28
 901 -81 901 -81 899 0 c 257,29,30
 899 0 899 0 899 571 c 1,31,32
 899 571 899 571 656 571 c 1,33,34
 656 571 656 571 656 409 c 0,35,36
 656 328 656 328 573 328 c 128,-1,37
 490 328 490 328 491 410 c 2,38,39
 491 410 491 410 492 492 c 257,40,41
 492 492 492 492 492 737.5 c 0,42,43
 492 1230.02469136 492 1230.02469136 0 1228 c 0,44,45
 -81 1228 -81 1228 -81 1310 c 128,-1,46
 -81 1392 -81 1392 0 1392 c 0,0,1
EndSplineSet
Substitution2: "Required Feature in Latin lookup 0 subtable" i.init
Substitution2: "'medi' Medial Forms in Mongolian lookup 1 subtable" i.medi
Substitution2: "'fina' Terminal Forms in Mongolian lookup 2 subtable" i.fina
Substitution2: "Single Substitution lookup 6 subtable" i1.isol
EndChar

StartChar: i1.isol
Encoding: 14 -1 14
Width: 899
VWidth: 4095
GlyphClass: 2
Flags: W
LayerCount: 2
Fore
SplineSet
735 656 m 0,0,1
 735 980.024390244 735 980.024390244 409 984 c 0,2,3
 328 984 328 984 246 901 c 128,-1,4
 164 818 164 818 164 656 c 2,5,6
 164 656 164 656 164 0 c 0,7,8
 164 -81 164 -81 82 -81 c 128,-1,9
 0 -81 0 -81 0 0 c 2,10,11
 0 0 0 0 0 735 c 256,12,13
 0 899 0 899 125 1024 c 0,14,15
 245 1149 245 1149 409 1148 c 0,16,17
 899 1148 899 1148 899 656 c 0,18,19
 899 573 899 573 820 571 c 0,20,21
 737 571 737 571 735 656 c 0,0,1
EndSplineSet
EndChar

StartChar: i.init
Encoding: 15 -1 15
Width: 1311
VWidth: 4095
GlyphClass: 2
Flags: W
LayerCount: 2
Fore
SplineSet
0 1392 m 4,0,1
 656 1392 656 1392 656 735 c 5,2,3
 656 735 656 735 1312 735 c 5,4,5
 1312 735 1312 735 1391 656 c 5,6,7
 1391 656 1391 656 1312 571 c 5,8,9
 1312 571 1312 571 1063 571 c 5,10,11
 1063 571 1063 571 1063 0 c 4,12,13
 1063 -81 1063 -81 981 -81 c 132,-1,14
 899 -81 899 -81 899 0 c 262,15,16
 899 0 899 0 899 571 c 5,17,18
 899 571 899 571 656 571 c 5,19,20
 656 571 656 571 656 409 c 4,21,22
 656 328 656 328 573.5 328 c 132,-1,23
 491 328 491 328 492 410 c 132,-1,24
 493 492 493 492 492 492 c 261,25,26
 492 492 492 492 492 736 c 132,-1,27
 492 980 492 980 367.5 1104.5 c 132,-1,28
 243 1229 243 1229 0 1228 c 4,29,30
 -81 1228 -81 1228 -81 1310 c 132,-1,31
 -81 1392 -81 1392 0 1392 c 4,0,1
EndSplineSet
EndChar

StartChar: gly.ng.medi
Encoding: 16 -1 16
Width: 1146
VWidth: 4095
GlyphClass: 2
Flags: W
LayerCount: 2
Fore
SplineSet
820 1148 m 0,0,1
 1312 1148 1312 1148 1312 656 c 0,2,3
 1312 573 1312 573 1228 571 c 0,4,5
 1147 571 1147 571 1148 656 c 0,6,7
 1148 820 1148 820 1063 899 c 1,8,9
 982 982 982 982 820 984 c 0,10,11
 737 984 737 984 656 899 c 1,12,13
 573 818 573 818 571 656 c 1,14,15
 571 656 571 656 571 0 c 0,16,17
 571 -81 571 -81 490 -81 c 128,-1,18
 409 -81 409 -81 409 0 c 258,19,20
 409 0 409 0 409 571 c 1,21,22
 409 571 409 571 164 571 c 1,23,24
 164 571 164 571 164 409 c 0,25,26
 164 328 164 328 82 328 c 128,-1,27
 0 328 0 328 0 410 c 2,28,29
 0 410 0 410 0 735 c 1,30,31
 0 735 0 735 409 735 c 1,32,33
 409 899 409 899 532 1024 c 256,34,35
 657 1149 657 1149 820 1148 c 0,0,1
EndSplineSet
EndChar

StartChar: i.fina
Encoding: 17 -1 17
Width: 899
VWidth: 4095
GlyphClass: 2
Flags: W
LayerCount: 2
Fore
SplineSet
735 656 m 0,0,1
 735 980.024390244 735 980.024390244 409 984 c 0,2,3
 328 984 328 984 246 901 c 128,-1,4
 164 818 164 818 164 656 c 2,5,6
 164 656 164 656 164 0 c 0,7,8
 164 -81 164 -81 82 -81 c 128,-1,9
 0 -81 0 -81 0 0 c 2,10,11
 0 0 0 0 0 735 c 256,12,13
 0 899 0 899 125 1024 c 0,14,15
 245 1149 245 1149 409 1148 c 0,16,17
 899 1148 899 1148 899 656 c 0,18,19
 899 573 899 573 820 571 c 0,20,21
 737 571 737 571 735 656 c 0,0,1
EndSplineSet
Substitution2: "Single Substitution lookup 7 subtable" i2.fina
Substitution2: "Single Substitution lookup 6 subtable" i1.fina
EndChar

StartChar: i2.fina
Encoding: 18 -1 18
Width: 818
VWidth: 4095
GlyphClass: 2
Flags: W
LayerCount: 2
Fore
SplineSet
656 81 m 0,0,1
 656 575.049382716 656 575.049382716 164 571 c 0,2,3
 160 571 160 571 162 547.5 c 0,4,5
 164 524 164 524 164 -81 c 0,6,7
 164 -164 164 -164 82 -164 c 128,-1,8
 0 -164 0 -164 0 -81 c 2,9,10
 0 -81 0 -81 0 456 c 1,11,12
 4 571 4 571 2 571 c 0,13,14
 0 571 0 571 0 735 c 257,15,16
 0 735 0 735 164 735 c 0,17,18
 820 735 820 735 820 81 c 0,19,20
 820 0 820 0 737 0 c 128,-1,21
 654 0 654 0 656 81 c 0,0,1
EndSplineSet
EndChar

StartChar: i1.fina
Encoding: 19 -1 19
Width: 654
VWidth: 4095
GlyphClass: 2
Flags: W
LayerCount: 2
Fore
SplineSet
492 81 m 0,0,1
 492 575.049382716 492 575.049382716 0 571 c 1,2,3
 0 571 0 571 0 735 c 1,4,5
 656 735 656 735 656 81 c 0,6,7
 656 0 656 0 573 0 c 128,-1,8
 490 0 490 0 492 81 c 0,0,1
EndSplineSet
EndChar

StartChar: iy.isol
Encoding: 20 6239 20
Width: 1230
VWidth: 4095
GlyphClass: 2
Flags: W
LayerCount: 2
Fore
SplineSet
1228 1228 m 256,0,1
 1228 571 1228 571 571 571 c 2,2,3
 571 571 571 571 0 571 c 1,4,5
 0 571 0 571 0 735 c 1,6,7
 0 735 0 735 571 735 c 0,8,9
 1063 735 1063 735 1063 1229.49190283 c 128,-1,10
 1063 1723.98380567 1063 1723.98380567 571 1720 c 0,11,12
 490 1720 490 1720 491 1803 c 128,-1,13
 492 1886 492 1886 571 1884 c 0,14,15
 1226 1884 1226 1884 1228 1228 c 256,0,1
0 735 m 2,16,17
 0 735 0 735 0 900 c 0,18,19
 0 982 0 982 81 984 c 0,20,21
 164 984 164 984 164 899 c 2,22,23
 164 899 164 899 164 735 c 0,24,25
 164 654 164 654 82 655 c 128,-1,26
 0 656 0 656 0 735 c 2,16,17
328 735 m 2,27,28
 328 735 328 735 328 900 c 0,29,30
 328 982 328 982 409 984 c 0,31,32
 492 984 492 984 492 899 c 2,33,34
 492 899 492 899 492 735 c 0,35,36
 492 654 492 654 410 655 c 128,-1,37
 328 656 328 656 328 735 c 2,27,28
EndSplineSet
Substitution2: "'fina' Terminal Forms in Mongolian lookup 2 subtable" iy.fina
Substitution2: "'medi' Medial Forms in Mongolian lookup 1 subtable" iy.medi
Substitution2: "Required Feature in Latin lookup 0 subtable" iy.init
EndChar

StartChar: i.medi
Encoding: 21 -1 21
Width: 409
VWidth: 4095
GlyphClass: 2
Flags: W
LayerCount: 2
Fore
SplineSet
0 735 m 5,0,1
 0 735 0 735 409 735 c 5,2,3
 449 696 449 696 489 656 c 261,4,5
 489 656 489 656 409 571 c 5,6,7
 409 571 409 571 164 571 c 5,8,9
 164 571 164 571 164 0 c 4,10,11
 164 -81 164 -81 82 -81 c 132,-1,12
 0 -81 0 -81 0 0 c 6,13,14
 0 0 0 0 0 735 c 5,0,1
EndSplineSet
Substitution2: "Single Substitution lookup 29 subtable" glyph279
Substitution2: "Single Substitution lookup 26 subtable" glyph279
Substitution2: "Single Substitution lookup 6 subtable" i1.medi
EndChar

StartChar: is1.medi
Encoding: 22 -1 22
Width: 820
VWidth: 4095
GlyphClass: 2
Flags: W
LayerCount: 2
Fore
SplineSet
412 0 m 0,0,1
 413.883817427 380.531120332 413.883817427 380.531120332 409 571 c 1,2,3
 409 571 409 571 164 571 c 1,4,5
 164 571 164 571 164 409 c 0,6,7
 164 328 164 328 82 328 c 128,-1,8
 0 328 0 328 0 410 c 2,9,10
 0 410 0 410 0 735 c 1,11,12
 0 735 0 735 820 735 c 1,13,14
 820 735 820 735 900 656 c 261,15,16
 900 656 900 656 820 571 c 1,17,18
 820 571 820 571 571 571 c 1,19,20
 574 571 574 571 576 358.5 c 128,-1,21
 578 146 578 146 576 0 c 0,22,23
 575 -81 575 -81 493.5 -81 c 128,-1,24
 412 -81 412 -81 412 0 c 0,0,1
EndSplineSet
Substitution2: "Single Substitution lookup 31 subtable" glyph339
EndChar

StartChar: i1.medi
Encoding: 23 -1 23
Width: 816
VWidth: 4095
GlyphClass: 2
Flags: W
LayerCount: 2
Fore
SplineSet
816 735 m 1,0,-1
 896 656 l 1,1,-1
 816 571 l 1,2,-1
 771 656 l 1,3,-1
 816 735 l 1,0,-1
0 0 m 258,4,5
 0 0 0 0 -4 735 c 1,6,7
 -4 735 -4 735 816 735 c 5,8,9
 816 735 816 735 816 571 c 5,10,11
 816 571 816 571 568 571 c 1,12,13
 568 571 568 571 569.5 325.5 c 128,-1,14
 571 80 571 80 571 0 c 256,15,16
 571 -81 571 -81 490 -81 c 128,-1,17
 409 -81 409 -81 409 0 c 258,18,19
 409 0 409 0 409 289 c 1,20,21
 405 493 405 493 404 571 c 1,22,23
 404 571 404 571 160 571 c 1,24,25
 160 571 160 571 162 325.5 c 128,-1,26
 164 80 164 80 164 0 c 256,27,28
 164 -81 164 -81 82 -81 c 128,-1,29
 0 -81 0 -81 0 0 c 258,4,5
EndSplineSet
EndChar

StartChar: iy.init
Encoding: 24 -1 24
Width: 735
VWidth: 4095
GlyphClass: 2
Flags: W
LayerCount: 2
Fore
SplineSet
735 735 m 5,0,-1
 815 656 l 5,1,-1
 735 571 l 5,2,-1
 690 656 l 5,3,-1
 735 735 l 5,0,-1
0 409 m 2,4,5
 0 409 0 409 0 900 c 0,6,7
 0 982 0 982 81 984 c 0,8,9
 164 984 164 984 164 899 c 2,10,11
 164 899 164 899 164 735 c 1,12,13
 164 735 164 735 409 735 c 1,14,15
 409 735 409 735 409 571 c 1,16,17
 409 571 409 571 164 571 c 1,18,19
 164 571 164 571 164 409 c 0,20,21
 164 328 164 328 82 328 c 128,-1,22
 0 328 0 328 0 409 c 2,4,5
328 571 m 1,23,24
 328 571 328 571 328 900 c 0,25,26
 328 982 328 982 409 984 c 0,27,28
 492 984 492 984 492 899 c 2,29,30
 492 899 492 899 492 735 c 1,31,32
 492 735 492 735 735 735 c 1,33,34
 735 735 735 735 735 571 c 1,35,36
 735 571 735 571 328 571 c 1,23,24
EndSplineSet
EndChar

StartChar: o.isol
Encoding: 25 6179 25
Width: 1967
VWidth: 4095
GlyphClass: 2
Flags: W
LayerCount: 2
Fore
SplineSet
0 1392 m 0,1,2
 656 1392 656 1392 656 735 c 1,3,4
 656 735 656 735 1967 735 c 1,5,6
 1967 735 1967 735 1967 489.5 c 0,7,8
 1967 0 1967 0 1475.5 0 c 128,-1,9
 984 0 984 0 984 492 c 2,10,11
 984 492 984 492 984 571 c 1,12,13
 984 571 984 571 656 571 c 1,14,15
 656 571 656 571 656 409 c 0,16,17
 656 328 656 328 573 328 c 128,-1,18
 490 328 490 328 491 410 c 2,19,20
 491 410 491 410 492 492 c 257,21,22
 492 492 492 492 492 737.5 c 0,23,24
 492 1230.02469136 492 1230.02469136 0 1228 c 0,25,26
 -81 1228 -81 1228 -81 1310 c 128,-1,27
 -81 1392 -81 1392 0 1392 c 0,1,2
1477 164 m 256,28,29
 1801 164 1801 164 1805 492 c 1,30,31
 1805 492 1805 492 1805 571 c 1,32,33
 1805 571 1805 571 1148 571 c 1,34,35
 1148 571 1148 571 1148 492 c 0,36,37
 1148 328 1148 328 1228 245 c 0,38,39
 1311 164 1311 164 1477 164 c 256,28,29
EndSplineSet
Substitution2: "'fina' Terminal Forms in Mongolian lookup 2 subtable" o.fina
Substitution2: "'medi' Medial Forms in Mongolian lookup 1 subtable" o.medi
Substitution2: "Required Feature in Latin lookup 0 subtable" o.init
EndChar

StartChar: o.init
Encoding: 26 -1 26
Width: 1805
VWidth: 4095
GlyphClass: 2
Flags: W
LayerCount: 2
Fore
SplineSet
1805 735 m 5,0,-1
 1885 656 l 5,1,-1
 1805 571 l 5,2,-1
 1760 656 l 5,3,-1
 1805 735 l 5,0,-1
1228 164 m 256,4,5
 903 164 903 164 899 492 c 1,6,7
 899 492 899 492 899 571 c 1,8,9
 899 571 899 571 656 571 c 1,10,11
 656 571 656 571 656 409 c 0,12,13
 656 328 656 328 573 328 c 128,-1,14
 490 328 490 328 491 410 c 2,15,16
 491 410 491 410 492 492 c 257,17,18
 492 492 492 492 492 737.5 c 0,19,20
 492 1230.02469136 492 1230.02469136 0 1228 c 0,21,22
 -81 1228 -81 1228 -81 1310 c 128,-1,23
 -81 1392 -81 1392 0 1392 c 0,24,25
 656 1392 656 1392 656 735 c 1,26,27
 656 735 656 735 1805 735 c 1,28,29
 1805 735 1805 735 1805 571 c 1,30,31
 1805 571 1805 571 1556 571 c 1,32,33
 1556 571 1556 571 1556 492 c 0,34,35
 1556 328 1556 328 1477 245 c 1,36,37
 1394 164 1394 164 1228 164 c 256,4,5
1063 492 m 0,38,39
 1063 328 1063 328 1227.5 328 c 128,-1,40
 1392 328 1392 328 1392 492 c 2,41,42
 1392 492 1392 492 1392 571 c 1,43,44
 1392 571 1392 571 1063 571 c 1,45,46
 1063 571 1063 571 1063 492 c 0,38,39
EndSplineSet
EndChar

StartChar: o.fina
Encoding: 27 -1 27
Width: 1306
VWidth: 4095
GlyphClass: 2
Flags: W
LayerCount: 2
Fore
SplineSet
656 1392 m 256,0,1
 1312 1392 1312 1392 1312 735 c 0,2,3
 1312 654 1312 654 1229.5 655 c 128,-1,4
 1147 656 1147 656 1148 735 c 0,5,6
 1148 983 1148 983 1020 1104 c 0,7,8
 893 1229 893 1229 656 1228 c 1,9,10
 408 1232 408 1232 289 1107 c 1,11,12
 164 982 164 982 164 735 c 1,13,14
 164 735 164 735 899 735 c 1,15,16
 899 735 899 735 899 489.5 c 128,-1,17
 899 244 899 244 776.5 122 c 128,-1,18
 654 0 654 0 492 0 c 0,19,20
 244 0 244 0 125 125 c 1,21,22
 0 245 0 245 0 492 c 1,23,24
 4 492 4 492 2 583.5 c 128,-1,25
 0 675 0 675 0 735 c 0,26,27
 0 1392 0 1392 656 1392 c 256,0,1
164 492 m 0,28,29
 164 164 164 164 492 164 c 0,30,31
 573 164 573 164 656 245 c 0,32,33
 737 328 737 328 735 492 c 1,34,35
 735 492 735 492 735 571 c 1,36,37
 735 571 735 571 164 571 c 1,38,39
 164 571 164 571 164 492 c 0,28,29
EndSplineSet
Substitution2: "Single Substitution lookup 6 subtable" o1.fina
Substitution2: "Single Substitution lookup 4 subtable" o1.fina
EndChar

StartChar: o1.fina
Encoding: 28 -1 28
Width: 654
VWidth: 4095
GlyphClass: 2
Flags: W
LayerCount: 2
Fore
SplineSet
656 492 m 0,0,1
 656 164 656 164 328 164 c 256,2,3
 0 164 0 164 0 492 c 1,4,5
 4 492 4 492 2 581.5 c 128,-1,6
 0 671 0 671 0 735 c 1,7,8
 0 735 0 735 656 735 c 1,9,10
 656 735 656 735 656 492 c 0,0,1
492 492 m 1,11,12
 492 492 492 492 492 571 c 1,13,14
 492 571 492 571 164 571 c 1,15,16
 164 571 164 571 164 490 c 0,17,18
 164 328 164 328 328.976190476 328 c 128,-1,19
 493.952380952 328 493.952380952 328 492 492 c 1,11,12
EndSplineSet
Substitution2: "Single Substitution lookup 27 subtable" glyph281
EndChar

StartChar: o.medi
Encoding: 29 -1 29
Width: 899
VWidth: 4095
GlyphClass: 2
Flags: W
LayerCount: 2
Fore
SplineSet
899 735 m 5,0,-1
 979 656 l 5,1,-1
 899 571 l 5,2,-1
 854 656 l 5,3,-1
 899 735 l 5,0,-1
656 492 m 0,4,5
 656 164 656 164 328 164 c 256,6,7
 0 164 0 164 0 492 c 1,8,9
 4 492 4 492 2 581.5 c 128,-1,10
 0 671 0 671 0 735 c 1,11,12
 0 735 0 735 899 735 c 1,13,14
 899 735 899 735 899 571 c 1,15,16
 899 571 899 571 656 571 c 257,17,18
 656 571 656 571 656 492 c 0,4,5
492 492 m 1,19,20
 492 492 492 492 492 571 c 1,21,22
 492 571 492 571 164 571 c 1,23,24
 164 571 164 571 164 490 c 0,25,26
 164 328 164 328 328.976190476 328 c 128,-1,27
 493.952380952 328 493.952380952 328 492 492 c 1,19,20
EndSplineSet
Substitution2: "Single Substitution lookup 27 subtable" glyph280
EndChar

StartChar: u.isol
Encoding: 30 6240 30
Width: 1967
VWidth: 4095
GlyphClass: 2
Flags: W
LayerCount: 2
Fore
SplineSet
0 1392 m 0,0,1
 656 1392 656 1392 656 735 c 1,2,3
 656 735 656 735 1967 735 c 1,4,5
 1967 735 1967 735 1967 489.5 c 0,6,7
 1967 0 1967 0 1475.5 0 c 0,8,9
 984 0 984 0 984 492 c 2,10,11
 984 492 984 492 984 571 c 1,12,13
 984 571 984 571 656 571 c 1,14,15
 656 571 656 571 656 409 c 0,16,17
 656 328 656 328 573 328 c 128,-1,18
 490 328 490 328 491 410 c 2,19,20
 491 410 491 410 492 492 c 257,21,22
 492 492 492 492 492 737.5 c 0,23,24
 492 1230.02469136 492 1230.02469136 0 1228 c 0,25,26
 -81 1228 -81 1228 -81 1310 c 128,-1,27
 -81 1392 -81 1392 0 1392 c 0,0,1
1477 164 m 256,28,29
 1801 164 1801 164 1805 492 c 1,30,31
 1805 492 1805 492 1805 571 c 1,32,33
 1805 571 1805 571 1148 571 c 1,34,35
 1148 571 1148 571 1148 492 c 0,36,37
 1148 328 1148 328 1228 245 c 0,38,39
 1311 164 1311 164 1477 164 c 256,28,29
1597 1269 m 257,40,41
 1597 1212.19047619 1597 1212.19047619 1560 1184 c 1,42,43
 1534.47537473 1150.49892934 1534.47537473 1150.49892934 1477 1148 c 256,44,45
 1416.42857143 1148 1416.42857143 1148 1389 1184 c 1,46,47
 1352 1221 1352 1221 1352 1269 c 256,48,49
 1352 1344.34782609 1352 1344.34782609 1428 1384 c 1,50,51
 1451 1391 1451 1391 1477 1392 c 256,52,53
 1524 1392 1524 1392 1560 1356 c 1,54,55
 1591.5232816 1331.98226164 1591.5232816 1331.98226164 1597 1269 c 257,40,41
EndSplineSet
Substitution2: "'fina' Terminal Forms in Mongolian lookup 2 subtable" u.fina
Substitution2: "'medi' Medial Forms in Mongolian lookup 1 subtable" u.medi
Substitution2: "Required Feature in Latin lookup 0 subtable" u.init
EndChar

StartChar: u.init
Encoding: 31 -1 31
Width: 1805
VWidth: 4095
GlyphClass: 2
Flags: W
LayerCount: 2
Fore
SplineSet
1805 735 m 1,0,-1
 1885 656 l 1,1,-1
 1805 571 l 1,2,-1
 1760 656 l 1,3,-1
 1805 735 l 1,0,-1
1228 164 m 256,4,5
 903 164 903 164 899 492 c 1,6,7
 899 492 899 492 899 571 c 1,8,9
 899 571 899 571 656 571 c 1,10,11
 656 571 656 571 656 409 c 0,12,13
 656 328 656 328 573 328 c 128,-1,14
 490 328 490 328 491 410 c 2,15,16
 491 410 491 410 492 492 c 257,17,18
 492 492 492 492 492 737.5 c 0,19,20
 492 1230.02469136 492 1230.02469136 0 1228 c 0,21,22
 -81 1228 -81 1228 -81 1310 c 128,-1,23
 -81 1392 -81 1392 0 1392 c 0,24,25
 656 1392 656 1392 656 735 c 1,26,27
 656 735 656 735 1805 735 c 1,28,29
 1805 735 1805 735 1805 571 c 1,30,31
 1805 571 1805 571 1556 571 c 1,32,33
 1556 571 1556 571 1556 492 c 0,34,35
 1556 328 1556 328 1477 245 c 1,36,37
 1394 164 1394 164 1228 164 c 256,4,5
1063 492 m 0,38,39
 1063 328 1063 328 1227.5 328 c 128,-1,40
 1392 328 1392 328 1392 492 c 2,41,42
 1392 492 1392 492 1392 571 c 1,43,44
 1392 571 1392 571 1063 571 c 1,45,46
 1063 571 1063 571 1063 492 c 0,38,39
1352 1269 m 256,47,48
 1352 1221 1352 1221 1315 1184 c 1,49,50
 1289.44400786 1150.45776031 1289.44400786 1150.45776031 1228 1148 c 256,51,52
 1174.28571429 1148 1174.28571429 1148 1140 1184 c 0,53,54
 1124 1200 1124 1200 1116 1225 c 1,55,56
 1104 1246 1104 1246 1104 1269 c 256,57,58
 1104 1292 1104 1292 1116 1315 c 1,59,60
 1123 1338 1123 1338 1140 1356 c 1,61,62
 1161 1372 1161 1372 1181 1384 c 1,63,64
 1204 1391 1204 1391 1228 1392 c 256,65,66
 1301.88 1392 1301.88 1392 1345 1315 c 1,67,68
 1352 1292 1352 1292 1352 1269 c 256,47,48
EndSplineSet
EndChar

StartChar: v.isol
Encoding: 32 6241 32
Width: 2212
VWidth: 4095
GlyphClass: 2
Flags: W
LayerCount: 2
Fore
SplineSet
1228 164 m 256,0,1
 903 164 903 164 899 492 c 1,2,3
 899 492 899 492 899 571 c 1,4,5
 899 571 899 571 656 571 c 1,6,7
 656 571 656 571 656 409 c 0,8,9
 656 328 656 328 573 328 c 128,-1,10
 490 328 490 328 491 410 c 2,11,12
 491 410 491 410 492 492 c 257,13,14
 492 492 492 492 492 737.5 c 0,15,16
 492 1230.02469136 492 1230.02469136 0 1228 c 0,17,18
 -81 1228 -81 1228 -81 1310 c 128,-1,19
 -81 1392 -81 1392 0 1392 c 0,20,21
 656 1392 656 1392 656 735 c 1,22,23
 656 735 656 735 1556 735 c 0,24,25
 2212 735 2212 735 2212 81 c 0,26,27
 2212 0 2212 0 2129.5 0 c 128,-1,28
 2047 0 2047 0 2048 81 c 0,29,30
 2048 574.983805668 2048 574.983805668 1556 571 c 1,31,32
 1556 571 1556 571 1556 492 c 0,33,34
 1556 328 1556 328 1477 245 c 1,35,36
 1394 164 1394 164 1228 164 c 256,0,1
1063 492 m 0,37,38
 1063 328 1063 328 1227.5 328 c 128,-1,39
 1392 328 1392 328 1392 492 c 2,40,41
 1392 492 1392 492 1392 571 c 1,42,43
 1392 571 1392 571 1063 571 c 1,44,45
 1063 571 1063 571 1063 492 c 0,37,38
EndSplineSet
Substitution2: "'fina' Terminal Forms in Mongolian lookup 2 subtable" v.fina
Substitution2: "'medi' Medial Forms in Mongolian lookup 1 subtable" v.medi
Substitution2: "Required Feature in Latin lookup 0 subtable" v.init
EndChar

StartChar: v.init
Encoding: 33 -1 33
Width: 1556
VWidth: 4095
GlyphClass: 2
Flags: W
LayerCount: 2
Fore
SplineSet
1556 735 m 1,0,-1
 1636 656 l 1,1,-1
 1556 571 l 1,2,-1
 1511 656 l 1,3,-1
 1556 735 l 1,0,-1
1228 164 m 256,4,5
 903 164 903 164 899 492 c 1,6,7
 899 492 899 492 899 571 c 1,8,9
 899 571 899 571 656 571 c 1,10,11
 656 571 656 571 656 409 c 0,12,13
 656 328 656 328 573 328 c 128,-1,14
 490 328 490 328 491 410 c 2,15,16
 491 410 491 410 492 492 c 257,17,18
 492 492 492 492 492 737.5 c 0,19,20
 492 1230.02469136 492 1230.02469136 0 1228 c 0,21,22
 -81 1228 -81 1228 -81 1310 c 128,-1,23
 -81 1392 -81 1392 0 1392 c 0,24,25
 656 1392 656 1392 656 735 c 1,26,27
 656 735 656 735 1556 735 c 1,28,29
 1556 735 1556 735 1556 571 c 0,30,31
 1556 326 1556 326 1475 245 c 128,-1,32
 1394 164 1394 164 1228 164 c 256,4,5
1063 492 m 0,33,34
 1063 328 1063 328 1227.5 328 c 128,-1,35
 1392 328 1392 328 1392 492 c 2,36,37
 1392 492 1392 492 1392 571 c 1,38,39
 1392 571 1392 571 1063 571 c 1,40,41
 1063 571 1063 571 1063 492 c 0,33,34
1392 656 m 1,42,43
 1392 656 1392 656 1556 656 c 1,44,45
 1556 656 1556 656 1556 0 c 256,46,47
 1556 -81 1556 -81 1475 -81 c 128,-1,48
 1394 -81 1394 -81 1392 0 c 257,49,50
 1392 0 1392 0 1392 656 c 1,42,43
EndSplineSet
EndChar

StartChar: u.fina
Encoding: 34 -1 34
Width: 1306
VWidth: 4095
GlyphClass: 2
Flags: W
LayerCount: 2
Fore
SplineSet
656 1392 m 256,0,1
 1312 1392 1312 1392 1312 735 c 0,2,3
 1312 654 1312 654 1229.5 655 c 128,-1,4
 1147 656 1147 656 1148 735 c 0,5,6
 1148 983 1148 983 1020 1104 c 0,7,8
 893 1229 893 1229 656 1228 c 1,9,10
 408 1232 408 1232 289 1107 c 1,11,12
 164 982 164 982 164 735 c 1,13,14
 164 735 164 735 899 735 c 1,15,16
 899 735 899 735 899 489.5 c 128,-1,17
 899 244 899 244 776.5 122 c 128,-1,18
 654 0 654 0 492 0 c 0,19,20
 244 0 244 0 125 125 c 1,21,22
 0 245 0 245 0 492 c 1,23,24
 4 492 4 492 4 613.5 c 128,-1,25
 4 735 4 735 0 735 c 1,26,27
 0 1392 0 1392 656 1392 c 256,0,1
164 492 m 0,28,29
 164 164 164 164 492 164 c 0,30,31
 573 164 573 164 656 245 c 0,32,33
 737 328 737 328 735 492 c 1,34,35
 735 492 735 492 735 571 c 1,36,37
 735 571 735 571 164 571 c 1,38,39
 164 571 164 571 164 492 c 0,28,29
779 1759 m 256,40,41
 779 1716.9375 779 1716.9375 744 1671 c 1,42,43
 698.0625 1636 698.0625 1636 656 1636 c 256,44,45
 633 1636 633 1636 608 1648 c 0,46,47
 585 1655 585 1655 568 1671 c 0,48,49
 536 1713 536 1713 532 1759 c 257,50,51
 532 1805.8 532 1805.8 568 1849 c 257,52,53
 600.791666667 1881.79166667 600.791666667 1881.79166667 656 1884 c 256,54,55
 679 1884 679 1884 705 1876 c 1,56,57
 726 1864 726 1864 744 1849 c 0,58,59
 760 1833 760 1833 768 1808 c 1,60,61
 780 1785 780 1785 779 1759 c 256,40,41
EndSplineSet
Substitution2: "Single Substitution lookup 8 subtable" u3.fina
Substitution2: "Single Substitution lookup 7 subtable" u2.fina
Substitution2: "Single Substitution lookup 6 subtable" u1.fina
Substitution2: "Single Substitution lookup 4 subtable" u2.fina
EndChar

StartChar: u3.fina
Encoding: 35 -1 35
Width: 1306
VWidth: 4095
GlyphClass: 2
Flags: W
LayerCount: 2
Fore
SplineSet
656 1392 m 256,0,1
 1312 1392 1312 1392 1312 735 c 0,2,3
 1312 654 1312 654 1229.5 655 c 128,-1,4
 1147 656 1147 656 1148 735 c 0,5,6
 1148 983 1148 983 1020 1104 c 0,7,8
 893 1229 893 1229 656 1228 c 1,9,10
 408 1232 408 1232 289 1107 c 1,11,12
 164 982 164 982 164 735 c 1,13,14
 164 735 164 735 899 735 c 1,15,16
 899 735 899 735 899 489.5 c 128,-1,17
 899 244 899 244 776.5 122 c 128,-1,18
 654 0 654 0 492 0 c 0,19,20
 244 0 244 0 125 125 c 1,21,22
 0 245 0 245 0 492 c 1,23,24
 4 492 4 492 2 583.5 c 128,-1,25
 0 675 0 675 0 735 c 0,26,27
 0 1392 0 1392 656 1392 c 256,0,1
164 492 m 0,28,29
 164 164 164 164 492 164 c 0,30,31
 573 164 573 164 656 245 c 0,32,33
 737 328 737 328 735 492 c 1,34,35
 735 492 735 492 735 571 c 1,36,37
 735 571 735 571 164 571 c 1,38,39
 164 571 164 571 164 492 c 0,28,29
EndSplineSet
EndChar

StartChar: u2.fina
Encoding: 36 -1 36
Width: 654
VWidth: 4095
GlyphClass: 2
Flags: W
LayerCount: 2
Fore
SplineSet
656 492 m 0,0,1
 656 164 656 164 328 164 c 256,2,3
 0 164 0 164 0 492 c 1,4,5
 4 492 4 492 2 581.5 c 128,-1,6
 0 671 0 671 0 735 c 1,7,8
 0 735 0 735 656 735 c 1,9,10
 656 735 656 735 656 492 c 0,0,1
492 492 m 1,11,12
 492 492 492 492 492 571 c 1,13,14
 492 571 492 571 164 571 c 1,15,16
 164 571 164 571 164 490 c 0,17,18
 164 328 164 328 328.976190476 328 c 128,-1,19
 493.952380952 328 493.952380952 328 492 492 c 1,11,12
328 1148 m 256,20,21
 242.72 1148 242.72 1148 215 1225 c 1,22,23
 203 1246 203 1246 204 1269 c 256,24,25
 204 1346 204 1346 280 1384 c 1,26,27
 303 1391 303 1391 328 1392 c 256,28,29
 377.75 1392 377.75 1392 416 1356 c 256,30,31
 432 1340 432 1340 439 1315 c 1,32,33
 451 1292 451 1292 453 1269 c 256,34,35
 453 1246 453 1246 439 1225 c 1,36,37
 418.453074434 1151.61812298 418.453074434 1151.61812298 328 1148 c 256,20,21
EndSplineSet
Substitution2: "Single Substitution lookup 27 subtable" glyph283
Substitution2: "Single Substitution lookup 6 subtable" u1.fina
EndChar

StartChar: u1.fina
Encoding: 37 -1 37
Width: 654
VWidth: 4095
GlyphClass: 2
Flags: W
LayerCount: 2
Fore
SplineSet
656 492 m 0,0,1
 656 164 656 164 328 164 c 256,2,3
 0 164 0 164 0 492 c 1,4,5
 4 492 4 492 2 581.5 c 128,-1,6
 0 671 0 671 0 735 c 1,7,8
 0 735 0 735 656 735 c 1,9,10
 656 735 656 735 656 492 c 0,0,1
492 492 m 1,11,12
 492 492 492 492 492 571 c 1,13,14
 492 571 492 571 164 571 c 1,15,16
 164 571 164 571 164 490 c 0,17,18
 164 328 164 328 328.976190476 328 c 128,-1,19
 493.952380952 328 493.952380952 328 492 492 c 1,11,12
EndSplineSet
Substitution2: "Single Substitution lookup 27 subtable" glyph281
EndChar

StartChar: v.fina
Encoding: 38 -1 38
Width: 1311
VWidth: 4095
GlyphClass: 2
Flags: W
LayerCount: 2
Fore
SplineSet
328 164 m 256,0,1
 0 164 0 164 0 492 c 2,2,3
 0 492 0 492 0 735 c 1,4,5
 0 735 0 735 656 735 c 128,-1,6
 1312 735 1312 735 1312 81 c 0,7,8
 1312 0 1312 0 1229.5 0 c 128,-1,9
 1147 0 1147 0 1148 81 c 0,10,11
 1148 575.049382716 1148 575.049382716 656 571 c 1,12,13
 656 571 656 571 656 492 c 0,14,15
 656 164 656 164 328 164 c 256,0,1
492 492 m 1,16,17
 492 492 492 492 492 571 c 1,18,19
 492 571 492 571 164 571 c 1,20,21
 164 571 164 571 164 490 c 0,22,23
 164 328 164 328 328.976190476 328 c 128,-1,24
 493.952380952 328 493.952380952 328 492 492 c 1,16,17
EndSplineSet
Substitution2: "Single Substitution lookup 27 subtable" glyph285
EndChar

StartChar: u.medi
Encoding: 39 -1 39
Width: 899
VWidth: 4095
GlyphClass: 2
Flags: W
LayerCount: 2
Fore
SplineSet
899 735 m 5,0,-1
 979 656 l 5,1,-1
 899 571 l 5,2,-1
 854 656 l 5,3,-1
 899 735 l 5,0,-1
656 492 m 0,4,5
 656 164 656 164 328 164 c 256,6,7
 0 164 0 164 0 492 c 1,8,9
 4 492 4 492 2 581.5 c 128,-1,10
 0 671 0 671 0 735 c 1,11,12
 0 735 0 735 899 735 c 1,13,14
 899 735 899 735 899 571 c 1,15,16
 899 571 899 571 656 571 c 257,17,18
 656 571 656 571 656 492 c 0,4,5
492 492 m 1,19,20
 492 492 492 492 492 571 c 1,21,22
 492 571 492 571 164 571 c 1,23,24
 164 571 164 571 164 490 c 0,25,26
 164 328 164 328 328.976190476 328 c 128,-1,27
 493.952380952 328 493.952380952 328 492 492 c 1,19,20
328 1148 m 256,28,29
 242.72 1148 242.72 1148 215 1225 c 1,30,31
 203 1246 203 1246 204 1269 c 256,32,33
 204 1346 204 1346 280 1384 c 1,34,35
 303 1391 303 1391 328 1392 c 256,36,37
 377.75 1392 377.75 1392 416 1356 c 256,38,39
 432 1340 432 1340 439 1315 c 1,40,41
 451 1292 451 1292 453 1269 c 256,42,43
 453 1246 453 1246 439 1225 c 1,44,45
 418.453074434 1151.61812298 418.453074434 1151.61812298 328 1148 c 256,28,29
EndSplineSet
Substitution2: "Single Substitution lookup 27 subtable" glyph282
Substitution2: "Single Substitution lookup 6 subtable" u1.medi
EndChar

StartChar: u1.medi
Encoding: 40 -1 40
Width: 899
VWidth: 4095
GlyphClass: 2
Flags: W
LayerCount: 2
Fore
SplineSet
899 735 m 5,0,-1
 979 656 l 5,1,-1
 899 571 l 5,2,-1
 854 656 l 5,3,-1
 899 735 l 5,0,-1
656 492 m 0,4,5
 656 164 656 164 328 164 c 256,6,7
 0 164 0 164 0 492 c 1,8,9
 4 492 4 492 2 581.5 c 128,-1,10
 0 671 0 671 0 735 c 1,11,12
 0 735 0 735 899 735 c 1,13,14
 899 735 899 735 899 571 c 1,15,16
 899 571 899 571 656 571 c 257,17,18
 656 571 656 571 656 492 c 0,4,5
492 492 m 1,19,20
 492 492 492 492 492 571 c 1,21,22
 492 571 492 571 164 571 c 1,23,24
 164 571 164 571 164 490 c 0,25,26
 164 328 164 328 328.976190476 328 c 128,-1,27
 493.952380952 328 493.952380952 328 492 492 c 1,19,20
EndSplineSet
Substitution2: "Single Substitution lookup 27 subtable" glyph280
EndChar

StartChar: v.medi
Encoding: 41 -1 41
Width: 899
VWidth: 4095
GlyphClass: 2
Flags: W
LayerCount: 2
Fore
SplineSet
899 735 m 5,0,-1
 979 656 l 5,1,-1
 899 571 l 5,2,-1
 854 656 l 5,3,-1
 899 735 l 5,0,-1
328 164 m 256,4,5
 0 164 0 164 0 492 c 2,6,7
 0 492 0 492 0 735 c 1,8,9
 0 735 0 735 899 735 c 1,10,11
 899 735 899 735 899 571 c 1,12,13
 899 571 899 571 656 571 c 1,14,15
 656 326 656 326 573 245 c 128,-1,16
 490 164 490 164 328 164 c 256,4,5
492 492 m 1,17,18
 492 492 492 492 492 571 c 1,19,20
 492 571 492 571 164 571 c 1,21,22
 164 571 164 571 164 490 c 0,23,24
 164 328 164 328 328.976190476 328 c 128,-1,25
 493.952380952 328 493.952380952 328 492 492 c 1,17,18
492 656 m 1,26,27
 492 656 492 656 656 656 c 1,28,29
 656 656 656 656 656 0 c 256,30,31
 656 -81 656 -81 573 -81 c 128,-1,32
 490 -81 490 -81 492 0 c 257,33,34
 492 0 492 0 492 656 c 1,26,27
EndSplineSet
Substitution2: "Single Substitution lookup 27 subtable" glyph284
EndChar

StartChar: b.isol
Encoding: 42 6186 42
Width: 1146
VWidth: 4095
GlyphClass: 2
Flags: W
LayerCount: 2
Fore
SplineSet
656 1392 m 256,0,1
 1312 1392 1312 1392 1312 735 c 2,2,3
 1312 735 1312 735 1312 654 c 128,-1,4
 1312 573 1312 573 1228 571 c 0,5,6
 1147 571 1147 571 1148 656 c 1,7,8
 1148 656 1148 656 1148 735 c 0,9,10
 1148 983 1148 983 1020 1104 c 0,11,12
 893 1229 893 1229 656 1228 c 1,13,14
 408 1232 408 1232 289 1107 c 1,15,16
 164 982 164 982 164 735 c 1,17,18
 164 735 164 735 899 735 c 1,19,20
 899 735 899 735 899 489.5 c 128,-1,21
 899 244 899 244 776.5 122 c 128,-1,22
 654 0 654 0 492 0 c 0,23,24
 244 0 244 0 125 125 c 1,25,26
 0 245 0 245 0 492 c 1,27,28
 4 492 4 492 4 613.5 c 128,-1,29
 4 735 4 735 0 735 c 1,30,31
 0 1392 0 1392 656 1392 c 256,0,1
164 492 m 0,32,33
 164 164 164 164 492 164 c 0,34,35
 573 164 573 164 656 245 c 0,36,37
 737 328 737 328 735 492 c 1,38,39
 735 492 735 492 735 571 c 1,40,41
 735 571 735 571 164 571 c 1,42,43
 164 571 164 571 164 492 c 0,32,33
EndSplineSet
Substitution2: "Single Substitution lookup 25 subtable" glyph286
Substitution2: "'fina' Terminal Forms in Mongolian lookup 2 subtable" b.fina
Substitution2: "'medi' Medial Forms in Mongolian lookup 1 subtable" b.medi
Substitution2: "Required Feature in Latin lookup 0 subtable" b.init
EndChar

StartChar: b.fina
Encoding: 43 -1 43
Width: 1311
VWidth: 4095
GlyphClass: 2
Flags: W
LayerCount: 2
Fore
SplineSet
656 1392 m 256,0,1
 1312 1392 1312 1392 1312 735 c 2,2,3
 1312 735 1312 735 1312 654 c 128,-1,4
 1312 573 1312 573 1228 571 c 0,5,6
 1147 571 1147 571 1148 656 c 1,7,8
 1148 656 1148 656 1148 735 c 0,9,10
 1148 983 1148 983 1020 1104 c 0,11,12
 893 1229 893 1229 656 1228 c 1,13,14
 408 1232 408 1232 289 1107 c 1,15,16
 164 982 164 982 164 735 c 1,17,18
 164 735 164 735 899 735 c 1,19,20
 899 735 899 735 899 489.5 c 128,-1,21
 899 244 899 244 776.5 122 c 128,-1,22
 654 0 654 0 492 0 c 0,23,24
 244 0 244 0 125 125 c 1,25,26
 0 245 0 245 0 492 c 1,27,28
 4 492 4 492 4 613.5 c 128,-1,29
 4 735 4 735 0 735 c 1,30,31
 0 1392 0 1392 656 1392 c 256,0,1
164 492 m 0,32,33
 164 164 164 164 492 164 c 0,34,35
 573 164 573 164 656 245 c 0,36,37
 737 328 737 328 735 492 c 1,38,39
 735 492 735 492 735 571 c 1,40,41
 735 571 735 571 164 571 c 1,42,43
 164 571 164 571 164 492 c 0,32,33
1188 -409 m 256,44,45
 1063 -573 1063 -573 735 -571 c 0,46,47
 654 -571 654 -571 655 -490 c 128,-1,48
 656 -409 656 -409 735 -409 c 0,49,50
 983 -409 983 -409 1064.5 -286.5 c 128,-1,51
 1146 -164 1146 -164 1148 81 c 1,52,53
 1148 81 1148 81 1148 656 c 0,54,55
 1148 737 1148 737 1229 736 c 128,-1,56
 1310 735 1310 735 1311 654 c 128,-1,57
 1312 573 1312 573 1312 368 c 258,58,59
 1312 368 1312 368 1312 62.5 c 128,-1,60
 1312 -243 1312 -243 1188 -409 c 256,44,45
EndSplineSet
EndChar

StartChar: b.medi
Encoding: 44 -1 44
Width: 1146
VWidth: 4095
GlyphClass: 2
Flags: W
LayerCount: 2
Fore
SplineSet
656 1392 m 256,0,1
 1312 1392 1312 1392 1312 735 c 2,2,3
 1312 735 1312 735 1312 654 c 128,-1,4
 1312 573 1312 573 1228 571 c 0,5,6
 1147 571 1147 571 1148 656 c 1,7,8
 1148 656 1148 656 1148 735 c 0,9,10
 1148 983 1148 983 1020 1104 c 0,11,12
 893 1229 893 1229 656 1228 c 1,13,14
 408 1232 408 1232 289 1107 c 1,15,16
 164 982 164 982 164 735 c 1,17,18
 164 735 164 735 899 735 c 1,19,20
 899 735 899 735 899 489.5 c 128,-1,21
 899 244 899 244 776.5 122 c 128,-1,22
 654 0 654 0 492 0 c 0,23,24
 244 0 244 0 125 125 c 1,25,26
 0 245 0 245 0 492 c 1,27,28
 4 492 4 492 4 613.5 c 128,-1,29
 4 735 4 735 0 735 c 1,30,31
 0 1392 0 1392 656 1392 c 256,0,1
164 492 m 0,32,33
 164 164 164 164 492 164 c 0,34,35
 573 164 573 164 656 245 c 0,36,37
 737 328 737 328 735 492 c 1,38,39
 735 492 735 492 735 571 c 1,40,41
 735 571 735 571 164 571 c 1,42,43
 164 571 164 571 164 492 c 0,32,33
EndSplineSet
Substitution2: "Single Substitution lookup 28 subtable" glyph337
Substitution2: "Single Substitution lookup 25 subtable" glyph287
EndChar

StartChar: p.isol
Encoding: 45 6246 45
Width: 1146
VWidth: 4095
GlyphClass: 2
Flags: W
LayerCount: 2
Fore
SplineSet
656 1392 m 256,0,1
 1312 1392 1312 1392 1312 735 c 2,2,3
 1312 735 1312 735 1312 654 c 128,-1,4
 1312 573 1312 573 1228 571 c 0,5,6
 1147 571 1147 571 1148 656 c 1,7,8
 1148 656 1148 656 1148 735 c 0,9,10
 1148 983 1148 983 1020 1104 c 0,11,12
 893 1229 893 1229 656 1228 c 1,13,14
 408 1232 408 1232 289 1107 c 1,15,16
 164 982 164 982 164 735 c 1,17,18
 164 735 164 735 899 735 c 1,19,20
 899 735 899 735 899 489.5 c 128,-1,21
 899 244 899 244 776.5 122 c 128,-1,22
 654 0 654 0 492 0 c 0,23,24
 244 0 244 0 125 125 c 1,25,26
 0 245 0 245 0 492 c 1,27,28
 4 492 4 492 4 613.5 c 128,-1,29
 4 735 4 735 0 735 c 1,30,31
 0 1392 0 1392 656 1392 c 256,0,1
164 492 m 0,32,33
 164 164 164 164 492 164 c 0,34,35
 573 164 573 164 656 245 c 0,36,37
 737 328 737 328 735 492 c 1,38,39
 735 492 735 492 735 571 c 1,40,41
 735 571 735 571 164 571 c 1,42,43
 164 571 164 571 164 492 c 0,32,33
571 1312 m 1,44,45
 571 1312 571 1312 735 1312 c 1,46,47
 735 1312 735 1312 735 1063 c 0,48,49
 735 982 735 982 654 983 c 128,-1,50
 573 984 573 984 572 1066 c 128,-1,51
 571 1148 571 1148 571 1312 c 1,44,45
EndSplineSet
Substitution2: "Single Substitution lookup 25 subtable" glyph288
Substitution2: "'fina' Terminal Forms in Mongolian lookup 2 subtable" p.fina
Substitution2: "'medi' Medial Forms in Mongolian lookup 1 subtable" p.medi
Substitution2: "Required Feature in Latin lookup 0 subtable" p.init
EndChar

StartChar: p.medi
Encoding: 46 -1 46
Width: 1146
VWidth: 4095
GlyphClass: 2
Flags: W
LayerCount: 2
Fore
SplineSet
656 1392 m 256,0,1
 1312 1392 1312 1392 1312 735 c 2,2,3
 1312 735 1312 735 1312 654 c 128,-1,4
 1312 573 1312 573 1228 571 c 0,5,6
 1147 571 1147 571 1148 656 c 1,7,8
 1148 656 1148 656 1148 735 c 0,9,10
 1148 983 1148 983 1020 1104 c 0,11,12
 893 1229 893 1229 656 1228 c 1,13,14
 408 1232 408 1232 289 1107 c 1,15,16
 164 982 164 982 164 735 c 1,17,18
 164 735 164 735 899 735 c 1,19,20
 899 735 899 735 899 489.5 c 128,-1,21
 899 244 899 244 776.5 122 c 128,-1,22
 654 0 654 0 492 0 c 0,23,24
 244 0 244 0 125 125 c 1,25,26
 0 245 0 245 0 492 c 1,27,28
 4 492 4 492 4 613.5 c 128,-1,29
 4 735 4 735 0 735 c 1,30,31
 0 1392 0 1392 656 1392 c 256,0,1
164 492 m 0,32,33
 164 164 164 164 492 164 c 0,34,35
 573 164 573 164 656 245 c 0,36,37
 737 328 737 328 735 492 c 1,38,39
 735 492 735 492 735 571 c 1,40,41
 735 571 735 571 164 571 c 1,42,43
 164 571 164 571 164 492 c 0,32,33
571 1312 m 1,44,45
 571 1312 571 1312 735 1312 c 1,46,47
 735 1312 735 1312 735 1063 c 0,48,49
 735 982 735 982 654 983 c 128,-1,50
 573 984 573 984 572 1066 c 128,-1,51
 571 1148 571 1148 571 1312 c 1,44,45
EndSplineSet
Substitution2: "Single Substitution lookup 25 subtable" glyph289
EndChar

StartChar: m.isol
Encoding: 47 6190 47
Width: 899
VWidth: 4095
GlyphClass: 2
Flags: W
LayerCount: 2
Fore
SplineSet
898 735 m 1,0,-1
 978 656 l 1,1,-1
 898 571 l 1,2,-1
 853 656 l 1,3,-1
 898 735 l 1,0,-1
0 1392 m 0,4,5
 656 1392 656 1392 656 735 c 1,6,7
 656 735 656 735 899 735 c 1,8,9
 899 735 899 735 899 571 c 1,10,11
 899 571 899 571 656 571 c 1,12,13
 656 571 656 571 656 409 c 0,14,15
 656 328 656 328 573 328 c 128,-1,16
 490 328 490 328 491 410 c 2,17,18
 491 410 491 410 492 492 c 257,19,20
 492 492 492 492 492 737.5 c 0,21,22
 492 1230.02469136 492 1230.02469136 0 1228 c 0,23,24
 -81 1228 -81 1228 -81 1310 c 128,-1,25
 -81 1392 -81 1392 0 1392 c 0,4,5
820 1720 m 0,26,27
 656 1720 656 1720 656 1556 c 2,28,29
 656 1556 656 1556 656 656 c 0,30,31
 656 573 656 573 571 571 c 0,32,33
 490 571 490 571 491 651.5 c 128,-1,34
 492 732 492 732 492 1104 c 258,35,36
 492 1104 492 1104 492 1556 c 0,37,38
 492 1720 492 1720 571 1805 c 1,39,40
 654 1886 654 1886 820 1884 c 0,41,42
 901 1884 901 1884 901 1802 c 128,-1,43
 901 1720 901 1720 820 1720 c 0,26,27
EndSplineSet
Substitution2: "'fina' Terminal Forms in Mongolian lookup 2 subtable" m.fina
Substitution2: "'medi' Medial Forms in Mongolian lookup 1 subtable" m.medi
Substitution2: "Required Feature in Latin lookup 0 subtable" m.init
EndChar

StartChar: m.fina
Encoding: 48 -1 48
Width: 982
VWidth: 4095
GlyphClass: 2
Flags: W
LayerCount: 2
Fore
SplineSet
984 1228 m 256,0,1
 984 571 984 571 328 571 c 2,2,3
 328 571 328 571 0 571 c 1,4,5
 0 571 0 571 0 735 c 1,6,7
 0 735 0 735 328 735 c 0,8,9
 573 735 573 735 696 860 c 256,10,11
 821 985 821 985 820.5 1230.5 c 128,-1,12
 820 1476 820 1476 695.5 1599 c 128,-1,13
 571 1722 571 1722 328 1720 c 0,14,15
 245 1720 245 1720 245 1803 c 128,-1,16
 245 1886 245 1886 328 1884 c 0,17,18
 984 1884 984 1884 984 1228 c 256,0,1
0 1063 m 0,19,20
 0 1226 0 1226 81 1312 c 1,21,22
 164 1393 164 1393 328 1392 c 0,23,24
 409 1392 409 1392 409 1310.5 c 128,-1,25
 409 1229 409 1229 328 1228 c 0,26,27
 245 1228 245 1228 204 1188 c 256,28,29
 164 1148 164 1148 164 1063 c 2,30,31
 164 1063 164 1063 164 656 c 0,32,33
 164 573 164 573 81 571 c 0,34,35
 0 571 0 571 0 656 c 2,36,37
 0 656 0 656 0 1063 c 0,19,20
EndSplineSet
EndChar

StartChar: m.medi
Encoding: 49 -1 49
Width: 409
VWidth: 4095
GlyphClass: 2
Flags: W
LayerCount: 2
Fore
SplineSet
409 735 m 5,0,-1
 489 656 l 5,1,-1
 409 571 l 5,2,-1
 364 656 l 5,3,-1
 409 735 l 5,0,-1
0 735 m 1,4,5
 0 735 0 735 409 735 c 1,6,7
 409 735 409 735 409 571 c 1,8,9
 409 571 409 571 164 571 c 1,10,11
 164 571 164 571 164 409 c 0,12,13
 164 328 164 328 82 328 c 128,-1,14
 0 328 0 328 0 410 c 2,15,16
 0 410 0 410 0 735 c 1,4,5
328 1720 m 0,17,18
 164 1720 164 1720 164 1556 c 2,19,20
 164 1556 164 1556 164 656 c 0,21,22
 164 573 164 573 81 571 c 0,23,24
 0 571 0 571 0 656 c 2,25,26
 0 656 0 656 0 1556 c 0,27,28
 0 1888 0 1888 328 1884 c 0,29,30
 409 1884 409 1884 409 1803 c 128,-1,31
 409 1722 409 1722 328 1720 c 0,17,18
EndSplineSet
Substitution2: "Single Substitution lookup 26 subtable" glyph320
EndChar

StartChar: f.isol
Encoding: 50 6262 50
Width: 656
VWidth: 4095
GlyphClass: 2
Flags: W
LayerCount: 2
Fore
SplineSet
656 735 m 5,0,-1
 736 656 l 5,1,-1
 656 571 l 5,2,-1
 611 656 l 5,3,-1
 656 735 l 5,0,-1
245 735 m 1,4,5
 245 735 245 735 656 735 c 1,6,7
 656 735 656 735 656 571 c 1,8,9
 656 571 656 571 409 571 c 1,10,11
 409 571 409 571 409 -245 c 0,12,13
 409 -406.923076923 409 -406.923076923 571 -409 c 1,14,15
 571 -409 571 -409 654 -409 c 128,-1,16
 737 -409 737 -409 736 -491 c 128,-1,17
 735 -573 735 -573 654 -572 c 128,-1,18
 573 -571 573 -571 571 -571 c 0,19,20
 245 -571 245 -571 245 -245 c 2,21,22
 245 -245 245 -245 245 735 c 1,4,5
0 1392 m 2,23,24
 0 1392 0 1392 81 1392 c 0,25,26
 245 1392 245 1392 327 1304 c 128,-1,27
 409 1216 409 1216 409 1063 c 2,28,29
 409 1063 409 1063 409 656 c 0,30,31
 409 573 409 573 328 571 c 0,32,33
 245 571 245 571 245 654 c 2,34,35
 245 654 245 654 245 1063 c 0,36,37
 245 1119 245 1119 204.5 1173.5 c 128,-1,38
 164 1228 164 1228 81 1228 c 2,39,40
 81 1228 81 1228 0 1228 c 128,-1,41
 -81 1228 -81 1228 -81 1310 c 128,-1,42
 -81 1392 -81 1392 0 1392 c 2,23,24
EndSplineSet
Substitution2: "'fina' Terminal Forms in Mongolian lookup 2 subtable" f.fina
Substitution2: "'medi' Medial Forms in Mongolian lookup 1 subtable" f.medi
Substitution2: "Required Feature in Latin lookup 0 subtable" f.init
EndChar

StartChar: f1.init
Encoding: 51 -1 51
Width: 409
VWidth: 4095
GlyphClass: 2
Flags: W
LayerCount: 2
Fore
SplineSet
409 735 m 5,0,-1
 489 656 l 5,1,-1
 409 571 l 5,2,-1
 364 656 l 5,3,-1
 409 735 l 5,0,-1
0 735 m 1,4,5
 0 735 0 735 409 735 c 1,6,7
 409 735 409 735 409 571 c 1,8,9
 409 571 409 571 164 571 c 1,10,11
 164 571 164 571 164 -245 c 0,12,13
 164 -407.515151515 164 -407.515151515 326.5 -408.5 c 2,14,15
 326.5 -408.5 326.5 -408.5 409.25 -408.75 c 128,-1,16
 492 -409 492 -409 492 -491 c 128,-1,17
 492 -573 492 -573 410 -572 c 2,18,19
 410 -572 410 -572 328 -571 c 1,20,21
 164 -571 164 -571 81 -492 c 1,22,23
 0 -409 0 -409 0 -245 c 2,24,25
 0 -245 0 -245 0 735 c 1,4,5
EndSplineSet
EndChar

StartChar: glyph183
Encoding: 52 -1 52
Width: 409
VWidth: 4095
GlyphClass: 2
Flags: W
LayerCount: 2
Fore
SplineSet
409 735 m 5,0,-1
 489 656 l 5,1,-1
 409 571 l 5,2,-1
 364 656 l 5,3,-1
 409 735 l 5,0,-1
0 735 m 1,4,5
 0 735 0 735 409 735 c 1,6,7
 409 735 409 735 409 571 c 1,8,9
 409 571 409 571 164 571 c 1,10,11
 164 571 164 571 164 -245 c 0,12,13
 164 -407.515151515 164 -407.515151515 326.5 -408.5 c 2,14,15
 326.5 -408.5 326.5 -408.5 409.25 -408.75 c 128,-1,16
 492 -409 492 -409 492 -491 c 128,-1,17
 492 -573 492 -573 410 -572 c 2,18,19
 410 -572 410 -572 328 -571 c 1,20,21
 164 -571 164 -571 81 -492 c 1,22,23
 0 -409 0 -409 0 -245 c 2,24,25
 0 -245 0 -245 0 735 c 1,4,5
0 1148 m 0,26,27
 -81 1148 -81 1148 -81 1230 c 128,-1,28
 -81 1312 -81 1312 0 1312 c 257,29,30
 0 1312 0 1312 0 1312 c 1,31,32
 164 1312 164 1312 245 1220 c 1,33,34
 328 1132 328 1132 328 984 c 2,35,36
 328 984 328 984 328 735 c 0,37,38
 328 654 328 654 246 655 c 128,-1,39
 164 656 164 656 164 737 c 2,40,41
 164 737 164 737 164 984 c 0,42,43
 164 1035 164 1035 125 1091 c 0,44,45
 81 1147 81 1147 0 1148 c 0,26,27
EndSplineSet
Substitution2: "Single Substitution lookup 26 subtable" glyph334
EndChar

StartChar: f.medi
Encoding: 53 -1 53
Width: 409
VWidth: 4095
GlyphClass: 2
Flags: W
LayerCount: 2
Fore
SplineSet
409 735 m 5,0,-1
 489 656 l 5,1,-1
 409 571 l 5,2,-1
 364 656 l 5,3,-1
 409 735 l 5,0,-1
0 735 m 1,4,5
 0 735 0 735 409 735 c 1,6,7
 409 735 409 735 409 571 c 1,8,9
 409 571 409 571 164 571 c 1,10,11
 164 571 164 571 164 -245 c 0,12,13
 164 -407.515151515 164 -407.515151515 326.5 -408.5 c 2,14,15
 326.5 -408.5 326.5 -408.5 409.25 -408.75 c 128,-1,16
 492 -409 492 -409 492 -491 c 128,-1,17
 492 -573 492 -573 410 -572 c 2,18,19
 410 -572 410 -572 328 -571 c 1,20,21
 164 -571 164 -571 81 -492 c 1,22,23
 0 -409 0 -409 0 -245 c 2,24,25
 0 -245 0 -245 0 735 c 1,4,5
0 1148 m 0,26,27
 -81 1148 -81 1148 -81 1230 c 128,-1,28
 -81 1312 -81 1312 0 1312 c 257,29,30
 0 1312 0 1312 0 1312 c 1,31,32
 164 1312 164 1312 245 1220 c 1,33,34
 328 1132 328 1132 328 984 c 2,35,36
 328 984 328 984 328 735 c 0,37,38
 328 654 328 654 246 655 c 128,-1,39
 164 656 164 656 164 737 c 2,40,41
 164 737 164 737 164 984 c 0,42,43
 164 1035 164 1035 125 1091 c 0,44,45
 81 1147 81 1147 0 1148 c 0,26,27
EndSplineSet
Substitution2: "Single Substitution lookup 6 subtable" f1.medi
EndChar

StartChar: f1.medi
Encoding: 54 -1 54
Width: 409
VWidth: 4095
GlyphClass: 2
Flags: W
LayerCount: 2
Fore
SplineSet
409 735 m 5,0,-1
 489 656 l 5,1,-1
 409 571 l 5,2,-1
 364 656 l 5,3,-1
 409 735 l 5,0,-1
0 735 m 1,4,5
 0 735 0 735 409 735 c 1,6,7
 409 735 409 735 409 571 c 1,8,9
 409 571 409 571 164 571 c 1,10,11
 164 571 164 571 164 -245 c 0,12,13
 164 -407.515151515 164 -407.515151515 326.5 -408.5 c 2,14,15
 326.5 -408.5 326.5 -408.5 409.25 -408.75 c 128,-1,16
 492 -409 492 -409 492 -491 c 128,-1,17
 492 -573 492 -573 410 -572 c 2,18,19
 410 -572 410 -572 328 -571 c 1,20,21
 164 -571 164 -571 81 -492 c 1,22,23
 0 -409 0 -409 0 -245 c 2,24,25
 0 -245 0 -245 0 735 c 1,4,5
EndSplineSet
Substitution2: "Single Substitution lookup 26 subtable" glyph336
EndChar

StartChar: d.isol
Encoding: 55 6249 55
Width: 1228
VWidth: 4095
GlyphClass: 2
Flags: W
LayerCount: 2
Fore
SplineSet
1228 735 m 1,0,-1
 1308 656 l 1,1,-1
 1228 571 l 1,2,-1
 1183 656 l 1,3,-1
 1228 735 l 1,0,-1
125 1188 m 1,4,5
 244 1312 244 1312 480 1312 c 128,-1,6
 716 1312 716 1312 850 1187.5 c 128,-1,7
 984 1063 984 1063 984 820 c 2,8,9
 984 820 984 820 984 735 c 1,10,11
 984 735 984 735 1228 735 c 1,12,13
 1228 735 1228 735 1228 571 c 1,14,15
 1228 571 1228 571 984 571 c 1,16,17
 984 571 984 571 984 409 c 0,18,19
 984 328 984 328 901 328 c 128,-1,20
 818 328 818 328 820 409 c 1,21,22
 820 409 820 409 820 571 c 1,23,24
 820 571 820 571 164 571 c 0,25,26
 81 571 81 571 40 617 c 0,27,28
 0 657 0 657 0 718 c 2,29,30
 0 718 0 718 0 820 c 0,31,32
 0 1065 0 1065 125 1188 c 1,4,5
164 820 m 2,33,34
 164 820 164 820 164 735 c 1,35,36
 164 735 164 735 820 735 c 1,37,38
 820 735 820 735 820 820 c 0,39,40
 820 984 820 984 728 1065 c 128,-1,41
 636 1146 636 1146 482 1147 c 128,-1,42
 328 1148 328 1148 246 1066 c 128,-1,43
 164 984 164 984 164 820 c 2,33,34
1232 1184 m 1,44,45
 1206.50963597 1150.54389722 1206.50963597 1150.54389722 1148 1148 c 256,46,47
 1069.96 1148 1069.96 1148 1033 1225 c 0,48,49
 1026 1246 1026 1246 1024 1269 c 256,50,51
 1024 1314.375 1024 1314.375 1061 1356 c 256,52,53
 1094.875 1389.875 1094.875 1389.875 1148 1392 c 256,54,55
 1193.75 1392 1193.75 1392 1232 1356 c 0,56,57
 1253 1340 1253 1340 1260 1315 c 1,58,59
 1272 1292 1272 1292 1271 1269 c 256,60,61
 1271 1246 1271 1246 1260 1225 c 1,62,63
 1253 1200 1253 1200 1232 1184 c 1,44,45
EndSplineSet
Substitution2: "Single Substitution t d-isol" d.init
Substitution2: "'fina' Terminal Forms in Mongolian lookup 2 subtable" d.fina
Substitution2: "'medi' Medial Forms in Mongolian lookup 1 subtable" d.medi
Substitution2: "Required Feature in Latin lookup 0 subtable" d.init
EndChar

StartChar: d1.init
Encoding: 56 -1 56
Width: 1312
VWidth: 4095
GlyphClass: 2
Flags: W
LayerCount: 2
Fore
SplineSet
1312 735 m 5,0,-1
 1392 656 l 5,1,-1
 1312 571 l 5,2,-1
 1267 656 l 5,3,-1
 1312 735 l 5,0,-1
656 1312 m 0,4,5
 820 1312 820 1312 943 1188 c 0,6,7
 1063 1063 1063 1063 1063 820 c 2,8,9
 1063 820 1063 820 1063 735 c 1,10,11
 1063 735 1063 735 1312 735 c 1,12,13
 1312 735 1312 735 1312 571 c 1,14,15
 1312 571 1312 571 1063 571 c 1,16,17
 1063 571 1063 571 1063 409 c 0,18,19
 1063 328 1063 328 982 328 c 128,-1,20
 901 328 901 328 899 409 c 1,21,22
 899 409 899 409 899 571 c 1,23,24
 899 571 899 571 0 571 c 0,25,26
 -81 571 -81 571 -81 654 c 128,-1,27
 -81 737 -81 737 0 735 c 1,28,29
 0 735 0 735 245 735 c 1,30,31
 245 735 245 735 245 820 c 0,32,33
 245 984 245 984 326.5 1148 c 128,-1,34
 408 1312 408 1312 656 1312 c 0,4,5
409 820 m 2,35,36
 409 820 409 820 409 735 c 1,37,38
 409 735 409 735 899 735 c 1,39,40
 899 735 899 735 899 820 c 0,41,42
 899 984 899 984 818 1065 c 128,-1,43
 737 1146 737 1146 656 1148 c 0,44,45
 492 1148 492 1148 453 1024 c 1,46,47
 409 901 409 901 409 820 c 2,35,36
1352 1269 m 256,48,49
 1352 1221 1352 1221 1315 1184 c 1,50,51
 1289.44400786 1150.45776031 1289.44400786 1150.45776031 1228 1148 c 256,52,53
 1174.28571429 1148 1174.28571429 1148 1140 1184 c 0,54,55
 1124 1200 1124 1200 1116 1225 c 1,56,57
 1104 1246 1104 1246 1104 1269 c 256,58,59
 1104 1292 1104 1292 1116 1315 c 1,60,61
 1123 1338 1123 1338 1140 1356 c 1,62,63
 1161 1372 1161 1372 1181 1384 c 1,64,65
 1204 1391 1204 1391 1228 1392 c 256,66,67
 1301.88 1392 1301.88 1392 1345 1315 c 1,68,69
 1352 1292 1352 1292 1352 1269 c 256,48,49
EndSplineSet
EndChar

StartChar: d.medi
Encoding: 57 -1 57
Width: 492
VWidth: 4095
GlyphClass: 2
Flags: W
LayerCount: 2
Fore
SplineSet
492 735 m 5,0,-1
 572 656 l 5,1,-1
 492 571 l 5,2,-1
 447 656 l 5,3,-1
 492 735 l 5,0,-1
164 -820 m 0,4,5
 0 -820 0 -820 0 -656 c 2,6,7
 0 -656 0 -656 0 735 c 1,8,9
 0 735 0 735 492 735 c 1,10,11
 492 735 492 735 492 571 c 1,12,13
 492 571 492 571 164 571 c 1,14,15
 164 571 164 571 164 -164 c 1,16,17
 164 -164 164 -164 245 -164 c 0,18,19
 575 -164 575 -164 571 -492 c 256,20,21
 571 -816.024390244 571 -816.024390244 245 -820 c 1,22,23
 245 -820 245 -820 164 -820 c 0,4,5
409 -492 m 0,24,25
 409 -328 409 -328 245 -328 c 2,26,27
 245 -328 245 -328 164 -328 c 1,28,29
 164 -328 164 -328 164 -656 c 1,30,31
 164 -656 164 -656 245 -656 c 128,-1,32
 326 -656 326 -656 368 -617 c 1,33,34
 408 -573 408 -573 409 -492 c 0,24,25
204 1269 m 256,35,36
 204 1220 204 1220 168 1184 c 1,37,38
 142.6124197 1150.67880086 142.6124197 1150.67880086 73.78620985 1149.33940043 c 0,39,40
 4.96 1148 4.96 1148 -32 1225 c 0,41,42
 -39 1246 -39 1246 -40 1269 c 256,43,44
 -40 1347.04 -40 1347.04 37 1384 c 1,45,46
 111.12145749 1406.55870445 111.12145749 1406.55870445 168 1356 c 256,47,48
 201.681818182 1322.31818182 201.681818182 1322.31818182 204 1269 c 256,35,36
EndSplineSet
Substitution2: "Single Substitution lookup 26 subtable" glyph329
Substitution2: "Single Substitution lookup 6 subtable" d1.medi
EndChar

StartChar: d1.medi
Encoding: 58 -1 58
Width: 492
VWidth: 4095
GlyphClass: 2
Flags: W
LayerCount: 2
Fore
SplineSet
492 735 m 5,0,-1
 572 656 l 5,1,-1
 492 571 l 5,2,-1
 447 656 l 5,3,-1
 492 735 l 5,0,-1
245 245 m 0,4,5
 575.024691358 245 575.024691358 245 571 -81 c 0,6,7
 571 -245 571 -245 492 -328 c 1,8,9
 409 -409 409 -409 245 -409 c 2,10,11
 245 -409 245 -409 164 -409 c 1,12,13
 164 -409 164 -409 164 -656 c 0,14,15
 164 -737 164 -737 82 -736 c 128,-1,16
 0 -735 0 -735 0 -656 c 2,17,18
 0 -656 0 -656 0 735 c 1,19,20
 0 735 0 735 492 735 c 1,21,22
 492 735 492 735 492 571 c 1,23,24
 492 571 492 571 164 571 c 1,25,26
 164 571 164 571 164 245 c 1,27,28
 164 245 164 245 245 245 c 0,4,5
409 -81 m 0,29,30
 409 79.0240963855 409 79.0240963855 245 81 c 1,31,32
 245 81 245 81 164 81 c 1,33,34
 164 81 164 81 164 -245 c 1,35,36
 164 -245 164 -245 245 -245 c 0,37,38
 407.024096386 -245 407.024096386 -245 409 -81 c 0,29,30
204 1269 m 256,39,40
 204 1220 204 1220 168 1184 c 1,41,42
 142.6124197 1150.67880086 142.6124197 1150.67880086 73.78620985 1149.33940043 c 0,43,44
 4.96 1148 4.96 1148 -32 1225 c 0,45,46
 -39 1246 -39 1246 -40 1269 c 256,47,48
 -40 1347.04 -40 1347.04 37 1384 c 1,49,50
 111.12145749 1406.55870445 111.12145749 1406.55870445 168 1356 c 256,51,52
 201.681818182 1322.31818182 201.681818182 1322.31818182 204 1269 c 256,39,40
EndSplineSet
Substitution2: "Single Substitution lookup 26 subtable" glyph330
EndChar

StartChar: t.isol
Encoding: 59 6248 59
Width: 1227
VWidth: 4095
GlyphClass: 2
Flags: W
LayerCount: 2
Fore
SplineSet
1227 735 m 5,0,-1
 1307 656 l 5,1,-1
 1227 571 l 5,2,-1
 1182 656 l 5,3,-1
 1227 735 l 5,0,-1
125 1188 m 1,4,5
 244 1312 244 1312 480 1312 c 128,-1,6
 716 1312 716 1312 850 1187.5 c 128,-1,7
 984 1063 984 1063 984 820 c 2,8,9
 984 820 984 820 984 735 c 1,10,11
 984 735 984 735 1228 735 c 1,12,13
 1228 735 1228 735 1228 571 c 1,14,15
 1228 571 1228 571 984 571 c 1,16,17
 984 571 984 571 984 409 c 0,18,19
 984 328 984 328 901 328 c 128,-1,20
 818 328 818 328 820 409 c 1,21,22
 820 409 820 409 820 571 c 1,23,24
 820 571 820 571 164 571 c 0,25,26
 81 571 81 571 40 617 c 0,27,28
 0 657 0 657 0 718 c 2,29,30
 0 718 0 718 0 820 c 0,31,32
 0 1065 0 1065 125 1188 c 1,4,5
164 820 m 2,33,34
 164 820 164 820 164 735 c 1,35,36
 164 735 164 735 820 735 c 1,37,38
 820 735 820 735 820 820 c 0,39,40
 820 984 820 984 728 1065 c 128,-1,41
 636 1146 636 1146 482 1147 c 128,-1,42
 328 1148 328 1148 246 1066 c 128,-1,43
 164 984 164 984 164 820 c 2,33,34
EndSplineSet
Substitution2: "Single Substitution t d-isol" t.init
Substitution2: "'fina' Terminal Forms in Mongolian lookup 2 subtable" t.fina
Substitution2: "'medi' Medial Forms in Mongolian lookup 1 subtable" t.medi
Substitution2: "Required Feature in Latin lookup 0 subtable" t.init
EndChar

StartChar: t1.init
Encoding: 60 -1 60
Width: 1312
VWidth: 4095
GlyphClass: 2
Flags: W
LayerCount: 2
Fore
SplineSet
1312 735 m 1,0,-1
 1392 656 l 1,1,-1
 1312 571 l 1,2,-1
 1267 656 l 1,3,-1
 1312 735 l 1,0,-1
656 1312 m 0,4,5
 820 1312 820 1312 943 1188 c 0,6,7
 1063 1063 1063 1063 1063 820 c 2,8,9
 1063 820 1063 820 1063 735 c 1,10,11
 1063 735 1063 735 1312 735 c 1,12,13
 1312 735 1312 735 1312 571 c 1,14,15
 1312 571 1312 571 1063 571 c 1,16,17
 1063 571 1063 571 1063 409 c 0,18,19
 1063 328 1063 328 982 328 c 128,-1,20
 901 328 901 328 899 409 c 1,21,22
 899 409 899 409 899 571 c 1,23,24
 899 571 899 571 0 571 c 0,25,26
 -81 571 -81 571 -81 654 c 128,-1,27
 -81 737 -81 737 0 735 c 1,28,29
 0 735 0 735 245 735 c 1,30,31
 245 735 245 735 245 820 c 0,32,33
 245 984 245 984 326.5 1148 c 128,-1,34
 408 1312 408 1312 656 1312 c 0,4,5
409 820 m 2,35,36
 409 820 409 820 409 735 c 1,37,38
 409 735 409 735 899 735 c 1,39,40
 899 735 899 735 899 820 c 0,41,42
 899 984 899 984 818 1065 c 128,-1,43
 737 1146 737 1146 656 1148 c 0,44,45
 492 1148 492 1148 453 1024 c 1,46,47
 409 901 409 901 409 820 c 2,35,36
EndSplineSet
EndChar

StartChar: t.fina
Encoding: 61 -1 61
Width: 1555
VWidth: 4095
GlyphClass: 2
Flags: W
LayerCount: 2
Fore
SplineSet
656 492 m 0,0,1
 656 164 656 164 328 164 c 256,2,3
 0 164 0 164 0 492 c 1,4,5
 4 492 4 492 2 581.5 c 128,-1,6
 0 671 0 671 0 735 c 1,7,8
 0 735 0 735 899 735 c 0,9,10
 982 735 982 735 984 656 c 0,11,12
 984 573 984 573 899 571 c 1,13,14
 899 571 899 571 656 571 c 257,15,16
 656 571 656 571 656 492 c 0,0,1
492 492 m 1,17,18
 492 492 492 492 492 571 c 1,19,20
 492 571 492 571 164 571 c 1,21,22
 164 571 164 571 164 490 c 0,23,24
 164 328 164 328 328.976190476 328 c 128,-1,25
 493.952380952 328 493.952380952 328 492 492 c 1,17,18
1556 1228 m 256,26,27
 1556 571 1556 571 899 571 c 0,28,29
 818 571 818 571 818 653 c 128,-1,30
 818 735 818 735 899 735 c 0,31,32
 1396.05761317 735 1396.05761317 735 1392 1228 c 1,33,34
 1392 1723.944 1392 1723.944 899 1720 c 0,35,36
 818 1720 818 1720 819 1803 c 128,-1,37
 820 1886 820 1886 899 1884 c 0,38,39
 1556 1884 1556 1884 1556 1228 c 256,26,27
EndSplineSet
EndChar

StartChar: t2.medi
Encoding: 62 -1 62
Width: 492
VWidth: 4095
GlyphClass: 2
Flags: W
LayerCount: 2
Fore
SplineSet
492 735 m 1,0,-1
 572 656 l 1,1,-1
 492 571 l 1,2,-1
 447 656 l 1,3,-1
 492 735 l 1,0,-1
164 -820 m 0,4,5
 0 -820 0 -820 0 -656 c 2,6,7
 0 -656 0 -656 0 735 c 1,8,9
 0 735 0 735 492 735 c 1,10,11
 492 735 492 735 492 571 c 1,12,13
 492 571 492 571 164 571 c 1,14,15
 164 571 164 571 164 -164 c 1,16,17
 164 -164 164 -164 245 -164 c 0,18,19
 575 -164 575 -164 571 -492 c 256,20,21
 571 -816.024390244 571 -816.024390244 245 -820 c 1,22,23
 245 -820 245 -820 164 -820 c 0,4,5
409 -492 m 0,24,25
 409 -328 409 -328 245 -328 c 2,26,27
 245 -328 245 -328 164 -328 c 1,28,29
 164 -328 164 -328 164 -656 c 1,30,31
 164 -656 164 -656 245 -656 c 128,-1,32
 326 -656 326 -656 368 -617 c 1,33,34
 408 -573 408 -573 409 -492 c 0,24,25
EndSplineSet
Substitution2: "Single Substitution lookup 26 subtable" glyph331
EndChar

StartChar: t1.medi
Encoding: 63 -1 63
Width: 492
VWidth: 4095
GlyphClass: 2
Flags: W
LayerCount: 2
Fore
SplineSet
492 735 m 5,0,-1
 572 656 l 5,1,-1
 492 571 l 5,2,-1
 447 656 l 5,3,-1
 492 735 l 5,0,-1
245 245 m 0,4,5
 575.024691358 245 575.024691358 245 571 -81 c 0,6,7
 571 -245 571 -245 492 -328 c 1,8,9
 409 -409 409 -409 245 -409 c 2,10,11
 245 -409 245 -409 164 -409 c 1,12,13
 164 -409 164 -409 164 -656 c 0,14,15
 164 -737 164 -737 82 -736 c 128,-1,16
 0 -735 0 -735 0 -656 c 2,17,18
 0 -656 0 -656 0 735 c 1,19,20
 0 735 0 735 492 735 c 1,21,22
 492 735 492 735 492 571 c 1,23,24
 492 571 492 571 164 571 c 1,25,26
 164 571 164 571 164 245 c 1,27,28
 164 245 164 245 245 245 c 0,4,5
409 -81 m 0,29,30
 409 79.0240963855 409 79.0240963855 245 81 c 1,31,32
 245 81 245 81 164 81 c 1,33,34
 164 81 164 81 164 -245 c 1,35,36
 164 -245 164 -245 245 -245 c 0,37,38
 407.024096386 -245 407.024096386 -245 409 -81 c 0,29,30
EndSplineSet
Substitution2: "Single Substitution lookup 26 subtable" glyph332
EndChar

StartChar: t.medi
Encoding: 64 -1 64
Width: 1312
VWidth: 4095
GlyphClass: 2
Flags: W
LayerCount: 2
Fore
SplineSet
1312 735 m 5,0,-1
 1392 656 l 5,1,-1
 1312 571 l 5,2,-1
 1267 656 l 5,3,-1
 1312 735 l 5,0,-1
656 492 m 0,4,5
 656 164 656 164 328 164 c 256,6,7
 0 164 0 164 0 492 c 1,8,9
 4 492 4 492 2 581.5 c 128,-1,10
 0 671 0 671 0 735 c 1,11,12
 0 735 0 735 899 735 c 0,13,14
 982 735 982 735 984 656 c 0,15,16
 984 573 984 573 899 571 c 1,17,18
 899 571 899 571 656 571 c 257,19,20
 656 571 656 571 656 492 c 0,4,5
492 492 m 1,21,22
 492 492 492 492 492 571 c 1,23,24
 492 571 492 571 164 571 c 1,25,26
 164 571 164 571 164 490 c 0,27,28
 164 328 164 328 328.976190476 328 c 128,-1,29
 493.952380952 328 493.952380952 328 492 492 c 1,21,22
899 735 m 1,30,31
 899 735 899 735 1312 735 c 1,32,33
 1312 735 1312 735 1312 571 c 1,34,35
 1312 571 1312 571 1063 571 c 1,36,37
 1063 571 1063 571 1063 409 c 0,38,39
 1063 328 1063 328 982 328 c 128,-1,40
 901 328 901 328 900 410 c 2,41,42
 900 410 900 410 899 492 c 257,43,44
 899 492 899 492 899 735 c 1,30,31
EndSplineSet
Substitution2: "Single Substitution lookup 7 subtable" t2.medi
Substitution2: "Single Substitution lookup 6 subtable" t1.medi
EndChar

StartChar: n.isol
Encoding: 65 6184 65
Width: 899
VWidth: 4095
GlyphClass: 2
Flags: W
LayerCount: 2
Fore
SplineSet
899 735 m 1,0,-1
 979 656 l 1,1,-1
 899 571 l 1,2,-1
 854 656 l 1,3,-1
 899 735 l 1,0,-1
0 1392 m 0,4,5
 656 1392 656 1392 656 735 c 1,6,7
 656 735 656 735 899 735 c 1,8,9
 899 735 899 735 899 571 c 1,10,11
 899 571 899 571 656 571 c 1,12,13
 656 571 656 571 656 409 c 0,14,15
 656 328 656 328 573 328 c 128,-1,16
 490 328 490 328 491 410 c 2,17,18
 491 410 491 410 492 492 c 257,19,20
 492 492 492 492 492 737.5 c 0,21,22
 492 1230.02469136 492 1230.02469136 0 1228 c 0,23,24
 -81 1228 -81 1228 -81 1310 c 128,-1,25
 -81 1392 -81 1392 0 1392 c 0,4,5
696 40 m 256,26,27
 696 -9 696 -9 661 -44 c 1,28,29
 636.657587549 -75.9494163424 636.657587549 -75.9494163424 571 -81 c 257,30,31
 516.19047619 -81 516.19047619 -81 488 -44 c 1,32,33
 453 -17.3333333333 453 -17.3333333333 453 40 c 256,34,35
 453 116.391304348 453 116.391304348 527 155 c 0,36,37
 548 162 548 162 571 164 c 256,38,39
 619.375 164 619.375 164 661 127 c 256,40,41
 693.833333333 94.1666666667 693.833333333 94.1666666667 696 40 c 256,26,27
EndSplineSet
Substitution2: "'fina' Terminal Forms in Mongolian lookup 2 subtable" n.fina
Substitution2: "'medi' Medial Forms in Mongolian lookup 1 subtable" n.medi
Substitution2: "Required Feature in Latin lookup 0 subtable" n.init
EndChar

StartChar: n.fina
Encoding: 66 -1 66
Width: 1227
VWidth: 4095
GlyphClass: 2
Flags: W
LayerCount: 2
Fore
SplineSet
1228 1228 m 256,0,1
 1228 571 1228 571 571 571 c 2,2,3
 571 571 571 571 0 571 c 1,4,5
 0 571 0 571 0 735 c 1,6,7
 0 735 0 735 571 735 c 0,8,9
 1063 735 1063 735 1063 1229.49190283 c 128,-1,10
 1063 1723.98380567 1063 1723.98380567 571 1720 c 0,11,12
 490 1720 490 1720 491 1803 c 128,-1,13
 492 1886 492 1886 571 1884 c 0,14,15
 1226 1884 1226 1884 1228 1228 c 256,0,1
EndSplineSet
Substitution2: "Single Substitution lookup 6 subtable" n1.fina
EndChar

StartChar: n1.fina
Encoding: 67 -1 67
Width: 1227
VWidth: 4095
GlyphClass: 2
Flags: W
LayerCount: 2
Fore
SplineSet
1228 1228 m 256,0,1
 1228 571 1228 571 571 571 c 2,2,3
 571 571 571 571 0 571 c 1,4,5
 0 571 0 571 0 735 c 1,6,7
 0 735 0 735 571 735 c 0,8,9
 1063 735 1063 735 1063 1229.49190283 c 128,-1,10
 1063 1723.98380567 1063 1723.98380567 571 1720 c 0,11,12
 490 1720 490 1720 491 1803 c 128,-1,13
 492 1886 492 1886 571 1884 c 0,14,15
 1226 1884 1226 1884 1228 1228 c 256,0,1
696 -40 m 256,16,17
 696 -118.52 696 -118.52 620 -155 c 0,18,19
 597 -162 597 -162 571 -164 c 256,20,21
 525 -164 525 -164 488 -127 c 1,22,23
 453 -100.333333333 453 -100.333333333 453 -40 c 256,24,25
 453 15.6666666667 453 15.6666666667 488 44 c 1,26,27
 512.301552106 75.8957871397 512.301552106 75.8957871397 571 81 c 257,28,29
 652.708333333 81 652.708333333 81 688 4 c 0,30,31
 695 -17 695 -17 696 -40 c 256,16,17
EndSplineSet
EndChar

StartChar: n1.medi
Encoding: 68 -1 68
Width: 409
VWidth: 4095
GlyphClass: 2
Flags: W
LayerCount: 2
Fore
SplineSet
409 735 m 5,0,-1
 489 656 l 5,1,-1
 409 571 l 5,2,-1
 364 656 l 5,3,-1
 409 735 l 5,0,-1
0 735 m 1,4,5
 0 735 0 735 409 735 c 1,6,7
 409 735 409 735 409 571 c 1,8,9
 409 571 409 571 164 571 c 1,10,11
 164 571 164 571 164 409 c 0,12,13
 164 328 164 328 82 328 c 128,-1,14
 0 328 0 328 0 410 c 2,15,16
 0 410 0 410 0 735 c 1,4,5
204 -40 m 256,17,18
 204 -118.04 204 -118.04 127 -155 c 1,19,20
 52.8785425101 -177.558704453 52.8785425101 -177.558704453 -4 -127 c 256,21,22
 -37.875 -93.125 -37.875 -93.125 -40 -40 c 256,23,24
 -40 5.75 -40 5.75 -4 44 c 1,25,26
 19.7457212714 75.1662591687 19.7457212714 75.1662591687 81 81 c 1,27,28
 157.5 81 157.5 81 196 4 c 0,29,30
 203 -17 203 -17 204 -40 c 256,17,18
EndSplineSet
Substitution2: "Single Substitution lookup 26 subtable" glyph322
EndChar

StartChar: n.medi
Encoding: 69 -1 69
Width: 409
VWidth: 4095
GlyphClass: 2
Flags: W
LayerCount: 2
Fore
SplineSet
409 735 m 5,0,-1
 489 656 l 5,1,-1
 409 571 l 5,2,-1
 364 656 l 5,3,-1
 409 735 l 5,0,-1
0 735 m 1,4,5
 0 735 0 735 409 735 c 1,6,7
 409 735 409 735 409 571 c 1,8,9
 409 571 409 571 164 571 c 1,10,11
 164 571 164 571 164 409 c 0,12,13
 164 328 164 328 82 328 c 128,-1,14
 0 328 0 328 0 410 c 2,15,16
 0 410 0 410 0 735 c 1,4,5
EndSplineSet
Substitution2: "Single Substitution lookup 26 subtable" glyph277
Substitution2: "Single Substitution lookup 6 subtable" n1.medi
EndChar

StartChar: l.isol
Encoding: 70 6191 70
Width: 899
VWidth: 4095
GlyphClass: 2
Flags: W
LayerCount: 2
Fore
SplineSet
899 735 m 5,0,-1
 979 656 l 5,1,-1
 899 571 l 5,2,-1
 854 656 l 5,3,-1
 899 735 l 5,0,-1
0 1392 m 0,4,5
 656 1392 656 1392 656 735 c 1,6,7
 656 735 656 735 899 735 c 1,8,9
 899 735 899 735 899 571 c 1,10,11
 899 571 899 571 656 571 c 1,12,13
 656 571 656 571 656 409 c 0,14,15
 656 328 656 328 573 328 c 128,-1,16
 490 328 490 328 491 410 c 2,17,18
 491 410 491 410 492 492 c 257,19,20
 492 492 492 492 492 737.5 c 0,21,22
 492 1230.02469136 492 1230.02469136 0 1228 c 0,23,24
 -81 1228 -81 1228 -81 1310 c 128,-1,25
 -81 1392 -81 1392 0 1392 c 0,4,5
245 1884 m 2,26,27
 245 1884 245 1884 328 1884 c 0,28,29
 492 1884 492 1884 573 1794 c 128,-1,30
 654 1704 654 1704 656 1556 c 1,31,32
 656 1556 656 1556 656 656 c 0,33,34
 656 573 656 573 571 571 c 0,35,36
 490 571 490 571 491 651.5 c 128,-1,37
 492 732 492 732 492 1104 c 258,38,39
 492 1104 492 1104 492 1556 c 0,40,41
 492 1612 492 1612 450.5 1666 c 128,-1,42
 409 1720 409 1720 328 1720 c 2,43,44
 328 1720 328 1720 246 1720 c 128,-1,45
 164 1720 164 1720 164 1802 c 128,-1,46
 164 1884 164 1884 245 1884 c 2,26,27
EndSplineSet
Substitution2: "'fina' Terminal Forms in Mongolian lookup 2 subtable" l.fina
Substitution2: "'medi' Medial Forms in Mongolian lookup 1 subtable" l.medi
Substitution2: "Required Feature in Latin lookup 0 subtable" l.init
EndChar

StartChar: l.fina
Encoding: 71 -1 71
Width: 162
VWidth: 4095
GlyphClass: 2
Flags: W
LayerCount: 2
Fore
SplineSet
0 1556 m 0,0,1
 0 1720 0 1720 -162.5 1720 c 0,2,3
 -245 1720 -245 1720 -245 1803 c 128,-1,4
 -245 1886 -245 1886 -164 1884 c 0,5,6
 164 1884 164 1884 164 1556 c 258,7,8
 164 1556 164 1556 164 409 c 0,9,10
 164 328 164 328 82 328 c 128,-1,11
 0 328 0 328 0 410 c 2,12,13
 0 410 0 410 0 1556 c 0,0,1
EndSplineSet
EndChar

StartChar: l.medi
Encoding: 72 -1 72
Width: 409
VWidth: 4095
GlyphClass: 2
Flags: W
LayerCount: 2
Fore
SplineSet
409 735 m 1,0,-1
 489 656 l 1,1,-1
 409 571 l 1,2,-1
 364 656 l 1,3,-1
 409 735 l 1,0,-1
0 735 m 1,4,5
 0 735 0 735 409 735 c 1,6,7
 409 735 409 735 409 571 c 1,8,9
 409 571 409 571 164 571 c 1,10,11
 164 571 164 571 164 409 c 0,12,13
 164 328 164 328 82 328 c 128,-1,14
 0 328 0 328 0 410 c 2,15,16
 0 410 0 410 0 735 c 1,4,5
-160 1884 m 0,17,18
 164 1884 164 1884 164 1556 c 258,19,20
 164 1556 164 1556 164 656 c 0,21,22
 164 573 164 573 81 571 c 0,23,24
 0 571 0 571 0 656 c 2,25,26
 0 656 0 656 0 1556 c 0,27,28
 0 1724.76190476 0 1724.76190476 -164 1715 c 1,29,30
 -245 1719 -245 1719 -245 1805 c 0,31,32
 -245 1886 -245 1886 -160 1884 c 0,17,18
EndSplineSet
Substitution2: "Single Substitution lookup 26 subtable" glyph321
EndChar

StartChar: k.isol
Encoding: 73 6260 73
Width: 1556
VWidth: 4095
GlyphClass: 2
Flags: W
LayerCount: 2
Fore
SplineSet
1556 735 m 5,0,-1
 1636 656 l 5,1,-1
 1556 571 l 5,2,-1
 1511 656 l 5,3,-1
 1556 735 l 5,0,-1
0 735 m 0,4,5
 0 1392 0 1392 656 1392 c 256,6,7
 1312 1392 1312 1392 1312 735 c 1,8,9
 1312 735 1312 735 1556 735 c 1,10,11
 1556 735 1556 735 1556 571 c 1,12,13
 1556 571 1556 571 1312 571 c 1,14,15
 1312 571 1312 571 1312 409 c 0,16,17
 1312 328 1312 328 1229.5 328 c 128,-1,18
 1147 328 1147 328 1148 409 c 1,19,20
 1148 409 1148 409 1148 735 c 0,21,22
 1148 1230.02469136 1148 1230.02469136 656 1228 c 0,23,24
 408 1228 408 1228 289 1104 c 1,25,26
 164 984 164 984 164 735 c 0,27,28
 164 654 164 654 82 655 c 128,-1,29
 0 656 0 656 0 735 c 0,4,5
492 81 m 0,30,31
 492 575.049382716 492 575.049382716 0 571 c 0,32,33
 -81 571 -81 571 -81 653 c 128,-1,34
 -81 735 -81 735 0 735 c 0,35,36
 656 735 656 735 656 81 c 0,37,38
 656 0 656 0 573 0 c 128,-1,39
 490 0 490 0 492 81 c 0,30,31
EndSplineSet
Substitution2: "Single Substitution k g h" k1.init
Substitution2: "'fina' Terminal Forms in Mongolian lookup 2 subtable" k.fina
Substitution2: "'medi' Medial Forms in Mongolian lookup 1 subtable" k.medi
Substitution2: "Required Feature in Latin lookup 0 subtable" k.init
EndChar

StartChar: ks.fina
Encoding: 74 -1 74
Width: 1391
VWidth: 4095
GlyphClass: 2
Flags: W
LayerCount: 2
Fore
SplineSet
1392 1228 m 256,0,1
 1392 571 1392 571 735 571 c 2,2,3
 735 571 735 571 0 571 c 1,4,5
 0 571 0 571 0 735 c 1,6,7
 0 735 0 735 735 735 c 0,8,9
 1230.02880658 735 1230.02880658 735 1228 1228 c 0,10,11
 1228 1476 1228 1476 1104 1597 c 1,12,13
 984 1722 984 1722 735 1720 c 0,14,15
 654 1720 654 1720 655 1803 c 128,-1,16
 656 1886 656 1886 735 1884 c 0,17,18
 1392 1884 1392 1884 1392 1228 c 256,0,1
168 -48 m 0,19,20
 152 -64 152 -64 127 -72 c 1,21,22
 83.9565217391 -94.4574669187 83.9565217391 -94.4574669187 37 -72 c 0,23,24
 14 -65 14 -65 -4 -48 c 1,25,26
 -20 -27 -20 -27 -32 -7 c 1,27,28
 -39 16 -39 16 -40 40 c 256,29,30
 -40 118.04 -40 118.04 37 155 c 1,31,32
 111.12145749 177.558704453 111.12145749 177.558704453 168 127 c 256,33,34
 201.875 93.125 201.875 93.125 204 40 c 256,35,36
 204 17 204 17 196 -7 c 1,37,38
 184 -27 184 -27 168 -48 c 0,19,20
604 -4 m 1,39,40
 580.605263158 -74.1842105263 580.605263158 -74.1842105263 492 -81 c 257,41,42
 433.952380952 -81 433.952380952 -81 404 -44 c 0,43,44
 388 -28 388 -28 379 -4 c 0,45,46
 367 17 367 17 368 40 c 256,47,48
 368 117 368 117 444 155 c 1,49,50
 467 162 467 162 492 164 c 256,51,52
 538.375 164 538.375 164 580 127 c 0,53,54
 614.916666667 92.0833333333 614.916666667 92.0833333333 617 40 c 256,55,56
 617 17 617 17 604 -4 c 1,39,40
EndSplineSet
EndChar

StartChar: k.fina
Encoding: 75 -1 75
Width: 1391
VWidth: 4095
GlyphClass: 2
Flags: W
LayerCount: 2
Fore
SplineSet
1392 1228 m 256,0,1
 1392 571 1392 571 735 571 c 2,2,3
 735 571 735 571 164 571 c 1,4,5
 164 571 164 571 164 409 c 0,6,7
 164 328 164 328 82 328 c 128,-1,8
 0 328 0 328 0 410 c 2,9,10
 0 410 0 410 0 735 c 1,11,12
 0 735 0 735 735 735 c 0,13,14
 1230.02880658 735 1230.02880658 735 1228 1228 c 0,15,16
 1228 1476 1228 1476 1104 1597 c 1,17,18
 984 1722 984 1722 735 1720 c 0,19,20
 654 1720 654 1720 655 1803 c 128,-1,21
 656 1886 656 1886 735 1884 c 0,22,23
 1392 1884 1392 1884 1392 1228 c 256,0,1
168 -48 m 0,24,25
 152 -64 152 -64 127 -72 c 1,26,27
 83.9565217391 -94.4574669187 83.9565217391 -94.4574669187 37 -72 c 0,28,29
 14 -65 14 -65 -4 -48 c 1,30,31
 -20 -27 -20 -27 -32 -7 c 1,32,33
 -39 16 -39 16 -40 40 c 256,34,35
 -40 118.04 -40 118.04 37 155 c 1,36,37
 111.12145749 177.558704453 111.12145749 177.558704453 168 127 c 256,38,39
 201.875 93.125 201.875 93.125 204 40 c 256,40,41
 204 17 204 17 196 -7 c 1,42,43
 184 -27 184 -27 168 -48 c 0,24,25
604 -4 m 1,44,45
 580.605263158 -74.1842105263 580.605263158 -74.1842105263 492 -81 c 257,46,47
 433.952380952 -81 433.952380952 -81 404 -44 c 0,48,49
 388 -28 388 -28 379 -4 c 0,50,51
 367 17 367 17 368 40 c 256,52,53
 368 117 368 117 444 155 c 1,54,55
 467 162 467 162 492 164 c 256,56,57
 538.375 164 538.375 164 580 127 c 0,58,59
 614.916666667 92.0833333333 614.916666667 92.0833333333 617 40 c 256,60,61
 617 17 617 17 604 -4 c 1,44,45
EndSplineSet
Substitution2: "Single Substitution k g h" k1.fina
Substitution2: "Single Substitution lookup 12 subtable" k1.fina
Substitution2: "Single Substitution lookup 11 subtable" k1.fina
Substitution2: "Single Substitution lookup 10 subtable" k1.fina
Substitution2: "Single Substitution lookup 9 subtable" k1.fina
Substitution2: "Single Substitution lookup 8 subtable" k.fina
EndChar

StartChar: k2.medi
Encoding: 76 -1 76
Width: 820
VWidth: 4095
GlyphClass: 2
Flags: W
LayerCount: 2
Fore
SplineSet
820 735 m 1,0,-1
 900 656 l 1,1,-1
 820 571 l 1,2,-1
 775 656 l 1,3,-1
 820 735 l 1,0,-1
0 735 m 1,4,5
 0 735 0 735 820 735 c 1,6,7
 820 735 820 735 820 571 c 1,8,9
 820 571 820 571 571 571 c 1,10,11
 571 571 571 571 571 409 c 0,12,13
 571 328 571 328 490 328 c 128,-1,14
 409 328 409 328 409 410 c 2,15,16
 409 410 409 410 409 571 c 1,17,18
 409 571 409 571 164 571 c 1,19,20
 164 571 164 571 164 409 c 0,21,22
 164 328 164 328 82 328 c 128,-1,23
 0 328 0 328 0 410 c 2,24,25
 0 410 0 410 0 735 c 1,4,5
EndSplineSet
Substitution2: "Single Substitution lookup 26 subtable" glyph290
EndChar

StartChar: ks.medi
Encoding: 77 -1 77
Width: 820
VWidth: 4095
GlyphClass: 2
Flags: W
LayerCount: 2
Fore
SplineSet
820 735 m 5,0,-1
 900 656 l 5,1,-1
 820 571 l 5,2,-1
 775 656 l 5,3,-1
 820 735 l 5,0,-1
0 735 m 1,4,5
 0 735 0 735 820 735 c 1,6,7
 820 735 820 735 820 571 c 1,8,9
 820 571 820 571 164 571 c 1,10,11
 164 571 164 571 164 409 c 0,12,13
 164 328 164 328 82 328 c 128,-1,14
 0 328 0 328 0 410 c 2,15,16
 0 410 0 410 0 735 c 1,4,5
204 40 m 256,17,18
 204 -12 204 -12 168 -48 c 256,19,20
 152 -64 152 -64 127 -72 c 1,21,22
 83.9565217391 -94.4574669187 83.9565217391 -94.4574669187 37 -72 c 1,23,24
 -7.26680244399 -58.5274949084 -7.26680244399 -58.5274949084 -32 -7 c 0,25,26
 -39 16 -39 16 -40 40 c 256,27,28
 -40 91 -40 91 -4 127 c 256,29,30
 33 164 33 164 68.5 164 c 0,31,32
 156.347826087 164 156.347826087 164 196 88 c 1,33,34
 203 65 203 65 204 40 c 256,17,18
617 40 m 256,35,36
 617 0.5625 617 0.5625 580 -48 c 1,37,38
 532.041189931 -84.5400457666 532.041189931 -84.5400457666 492 -83 c 256,39,40
 413.2 -83 413.2 -83 379 -7 c 0,41,42
 367 16 367 16 368 40 c 256,43,44
 368 117 368 117 444 155 c 1,45,46
 467 162 467 162 492 164 c 256,47,48
 538.375 164 538.375 164 580 127 c 0,49,50
 614.916666667 92.0833333333 614.916666667 92.0833333333 617 40 c 256,35,36
EndSplineSet
Substitution2: "Single Substitution lookup 26 subtable" glyph291
Substitution2: "Single Substitution lookup 7 subtable" ks2.medi
Substitution2: "Single Substitution lookup 6 subtable" ks1.medi
EndChar

StartChar: k.medi
Encoding: 78 -1 78
Width: 820
VWidth: 4095
GlyphClass: 2
Flags: W
LayerCount: 2
Fore
SplineSet
820 735 m 5,0,-1
 900 656 l 5,1,-1
 820 571 l 5,2,-1
 775 656 l 5,3,-1
 820 735 l 5,0,-1
0 735 m 1,4,5
 0 735 0 735 820 735 c 1,6,7
 820 735 820 735 820 571 c 1,8,9
 820 571 820 571 571 571 c 1,10,11
 571 571 571 571 571 409 c 0,12,13
 571 328 571 328 490 328 c 128,-1,14
 409 328 409 328 409 410 c 2,15,16
 409 410 409 410 409 571 c 1,17,18
 409 571 409 571 164 571 c 1,19,20
 164 571 164 571 164 409 c 0,21,22
 164 328 164 328 82 328 c 128,-1,23
 0 328 0 328 0 410 c 2,24,25
 0 410 0 410 0 735 c 1,4,5
204 40 m 256,26,27
 204 -12 204 -12 168 -48 c 256,28,29
 152 -64 152 -64 127 -72 c 1,30,31
 83.9565217391 -94.4574669187 83.9565217391 -94.4574669187 37 -72 c 1,32,33
 -7.26680244399 -58.5274949084 -7.26680244399 -58.5274949084 -32 -7 c 0,34,35
 -39 16 -39 16 -40 40 c 256,36,37
 -40 91 -40 91 -4 127 c 256,38,39
 33 164 33 164 68.5 164 c 0,40,41
 156.347826087 164 156.347826087 164 196 88 c 1,42,43
 203 65 203 65 204 40 c 256,26,27
617 40 m 256,44,45
 617 0.5625 617 0.5625 580 -48 c 1,46,47
 532.041189931 -84.5400457666 532.041189931 -84.5400457666 492 -83 c 256,48,49
 413.2 -83 413.2 -83 379 -7 c 0,50,51
 367 16 367 16 368 40 c 256,52,53
 368 117 368 117 444 155 c 1,54,55
 467 162 467 162 492 164 c 256,56,57
 538.375 164 538.375 164 580 127 c 0,58,59
 614.916666667 92.0833333333 614.916666667 92.0833333333 617 40 c 256,44,45
EndSplineSet
Substitution2: "Single Substitution k g h" k1.medi
Substitution2: "Single Substitution lookup 26 subtable" glyph292
Substitution2: "Single Substitution lookup 12 subtable" k1.medi
Substitution2: "Single Substitution lookup 11 subtable" k1.medi
Substitution2: "Single Substitution lookup 10 subtable" k1.medi
Substitution2: "Single Substitution lookup 9 subtable" k1.medi
Substitution2: "Single Substitution lookup 8 subtable" k.medi
Substitution2: "Single Substitution lookup 7 subtable" k2.medi
Substitution2: "Single Substitution lookup 6 subtable" k1.medi
EndChar

StartChar: g.isol
Encoding: 79 6244 79
Width: 1556
VWidth: 4095
GlyphClass: 2
Flags: W
LayerCount: 2
Fore
SplineSet
1556 735 m 5,0,-1
 1636 656 l 5,1,-1
 1556 571 l 5,2,-1
 1511 656 l 5,3,-1
 1556 735 l 5,0,-1
656 1392 m 256,4,5
 1312 1392 1312 1392 1312 735 c 1,6,7
 1312 735 1312 735 1556 735 c 1,8,9
 1556 735 1556 735 1556 571 c 1,10,11
 1556 571 1556 571 1312 571 c 1,12,13
 1312 571 1312 571 1312 409 c 0,14,15
 1312 328 1312 328 1229.5 328 c 128,-1,16
 1147 328 1147 328 1148 409 c 1,17,18
 1148 409 1148 409 1148 735 c 0,19,20
 1148 1230.02469136 1148 1230.02469136 656 1228 c 0,21,22
 408 1228 408 1228 289 1104 c 1,23,24
 164 984 164 984 164 735 c 0,25,26
 164 654 164 654 82 654 c 128,-1,27
 0 654 0 654 0 735 c 0,28,29
 0 1392 0 1392 656 1392 c 256,4,5
492 81 m 0,30,31
 492 575.049382716 492 575.049382716 0 571 c 0,32,33
 -81 571 -81 571 -81 653 c 128,-1,34
 -81 735 -81 735 0 735 c 0,35,36
 656 735 656 735 656 81 c 0,37,38
 656 0 656 0 573 0 c 128,-1,39
 490 0 490 0 492 81 c 0,30,31
1597 1269 m 257,40,41
 1597 1212.19047619 1597 1212.19047619 1560 1184 c 1,42,43
 1534.47537473 1150.49892934 1534.47537473 1150.49892934 1477 1148 c 256,44,45
 1416.42857143 1148 1416.42857143 1148 1389 1184 c 1,46,47
 1352 1221 1352 1221 1352 1269 c 256,48,49
 1352 1344.34782609 1352 1344.34782609 1428 1384 c 1,50,51
 1451 1391 1451 1391 1477 1392 c 256,52,53
 1524 1392 1524 1392 1560 1356 c 1,54,55
 1591.5232816 1331.98226164 1591.5232816 1331.98226164 1597 1269 c 257,40,41
EndSplineSet
Substitution2: "Single Substitution k g h" g1.init
Substitution2: "'fina' Terminal Forms in Mongolian lookup 2 subtable" g.fina
Substitution2: "'medi' Medial Forms in Mongolian lookup 1 subtable" g.medi
Substitution2: "Required Feature in Latin lookup 0 subtable" g.init
EndChar

StartChar: g.medi
Encoding: 80 -1 80
Width: 820
VWidth: 4095
GlyphClass: 2
Flags: W
LayerCount: 2
Fore
SplineSet
820 735 m 5,0,-1
 900 656 l 5,1,-1
 820 571 l 5,2,-1
 775 656 l 5,3,-1
 820 735 l 5,0,-1
0 735 m 1,4,5
 0 735 0 735 820 735 c 1,6,7
 820 735 820 735 820 571 c 1,8,9
 820 571 820 571 571 571 c 1,10,11
 571 571 571 571 571 409 c 0,12,13
 571 328 571 328 490 328 c 128,-1,14
 409 328 409 328 409 410 c 2,15,16
 409 410 409 410 409 571 c 1,17,18
 409 571 409 571 164 571 c 1,19,20
 164 571 164 571 164 409 c 0,21,22
 164 328 164 328 82 328 c 128,-1,23
 0 328 0 328 0 410 c 2,24,25
 0 410 0 410 0 735 c 1,4,5
604 1225 m 1,26,27
 580.448598131 1151.40186916 580.448598131 1151.40186916 492 1148 c 256,28,29
 406.72 1148 406.72 1148 379 1225 c 1,30,31
 367 1246 367 1246 368 1269 c 256,32,33
 368 1346 368 1346 444 1384 c 1,34,35
 467 1391 467 1391 492 1392 c 256,36,37
 515 1392 515 1392 541 1384 c 1,38,39
 591.076923077 1355.38461538 591.076923077 1355.38461538 604 1315 c 1,40,41
 616 1292 616 1292 617 1269 c 256,42,43
 617 1246 617 1246 604 1225 c 1,26,27
EndSplineSet
Substitution2: "Single Substitution k g h" g1.medi
Substitution2: "Single Substitution lookup 26 subtable" glyph293
Substitution2: "Single Substitution lookup 6 subtable" g1.medi
EndChar

StartChar: h.isol
Encoding: 81 6245 81
Width: 1555
VWidth: 4095
GlyphClass: 2
Flags: W
LayerCount: 2
Fore
SplineSet
1556 735 m 5,0,-1
 1636 656 l 5,1,-1
 1556 571 l 5,2,-1
 1511 656 l 5,3,-1
 1556 735 l 5,0,-1
656 1392 m 256,4,5
 1312 1392 1312 1392 1312 735 c 1,6,7
 1312 735 1312 735 1556 735 c 5,8,9
 1556 735 1556 735 1556 571 c 5,10,11
 1556 571 1556 571 1312 571 c 1,12,13
 1312 571 1312 571 1312 409 c 0,14,15
 1312 328 1312 328 1229.5 328 c 128,-1,16
 1147 328 1147 328 1148 409 c 1,17,18
 1148 409 1148 409 1148 735 c 0,19,20
 1148 980 1148 980 1023.5 1104.5 c 128,-1,21
 899 1229 899 1229 656 1228.5 c 128,-1,22
 413 1228 413 1228 288.5 1103.5 c 128,-1,23
 164 979 164 979 164 735 c 0,24,25
 164 656 164 656 82 656 c 128,-1,26
 0 656 0 656 0 735 c 0,27,28
 0 1392 0 1392 656 1392 c 256,4,5
1784 1137 m 0,29,30
 1742.91139241 1041.12658228 1742.91139241 1041.12658228 1652 1000 c 1,31,32
 1604 984 1604 984 1556 984 c 256,33,34
 1447.77142857 984 1447.77142857 984 1384 1056 c 1,35,36
 1312 1118.27027027 1312 1118.27027027 1312 1228 c 256,37,38
 1312 1328.88235294 1312 1328.88235294 1384 1403 c 0,39,40
 1458 1477 1458 1477 1556 1477 c 256,41,42
 1650.0625 1477 1650.0625 1477 1731 1403 c 1,43,44
 1805 1317.4375 1805 1317.4375 1805 1228 c 256,45,46
 1805 1180 1805 1180 1784 1137 c 0,29,30
1641 1228 m 256,47,48
 1641 1254.66666667 1641 1254.66666667 1616 1288 c 1,49,50
 1580 1309 1580 1309 1556 1312 c 256,51,52
 1508.25 1312 1508.25 1312 1479 1260 c 1,53,54
 1475 1244 1475 1244 1477 1228 c 256,55,56
 1477 1212 1477 1212 1479 1195 c 1,57,58
 1486 1179 1486 1179 1500 1172 c 1,59,60
 1515.39336493 1145.61137441 1515.39336493 1145.61137441 1556 1148 c 256,61,62
 1605.5625 1148 1605.5625 1148 1632 1195 c 256,63,64
 1641 1212 1641 1212 1641 1228 c 256,47,48
492 81 m 0,65,66
 492 575.049382716 492 575.049382716 0 571 c 0,67,68
 -81 571 -81 571 -81 653 c 128,-1,69
 -81 735 -81 735 0 735 c 0,70,71
 656 735 656 735 656 81 c 0,72,73
 656 0 656 0 573 0 c 128,-1,74
 490 0 490 0 492 81 c 0,65,66
EndSplineSet
Substitution2: "Single Substitution k g h" h1.init
Substitution2: "'fina' Terminal Forms in Mongolian lookup 2 subtable" h.fina
Substitution2: "'medi' Medial Forms in Mongolian lookup 1 subtable" h.medi
Substitution2: "Required Feature in Latin lookup 0 subtable" h.init
EndChar

StartChar: h.medi
Encoding: 82 -1 82
Width: 820
VWidth: 4095
GlyphClass: 2
Flags: W
LayerCount: 2
Fore
SplineSet
820 735 m 5,0,-1
 900 656 l 5,1,-1
 820 571 l 5,2,-1
 775 656 l 5,3,-1
 820 735 l 5,0,-1
0 735 m 1,4,5
 0 735 0 735 820 735 c 1,6,7
 820 735 820 735 820 571 c 1,8,9
 820 571 820 571 571 571 c 1,10,11
 571 571 571 571 571 409 c 0,12,13
 571 328 571 328 490 328 c 128,-1,14
 409 328 409 328 409 410 c 2,15,16
 409 410 409 410 409 571 c 1,17,18
 409 571 409 571 164 571 c 1,19,20
 164 571 164 571 164 409 c 0,21,22
 164 328 164 328 82 328 c 128,-1,23
 0 328 0 328 0 410 c 2,24,25
 0 410 0 410 0 735 c 1,4,5
735 1228 m 1,26,27
 735 1117.40540541 735 1117.40540541 664 1056 c 1,28,29
 632 1019 632 1019 584 1003 c 1,30,31
 540 982 540 982 492 984 c 256,32,33
 386.054054054 984 386.054054054 984 316 1056 c 0,34,35
 284 1088 284 1088 264 1137 c 256,36,37
 225.1390625 1225.825 225.1390625 1225.825 264 1324 c 256,38,39
 285 1372 285 1372 316 1403 c 0,40,41
 401.5625 1477 401.5625 1477 492 1477 c 256,42,43
 590 1477 590 1477 664 1403 c 1,44,45
 739.568478261 1337.64347826 739.568478261 1337.64347826 735 1228 c 1,26,27
571 1228 m 256,46,47
 571 1266.76923077 571 1266.76923077 548 1288 c 1,48,49
 537.303370787 1306.33707865 537.303370787 1306.33707865 492 1312 c 257,50,51
 456 1312 456 1312 432 1288 c 1,52,53
 409 1248.57142857 409 1248.57142857 409 1228 c 256,54,55
 409 1179.6875 409 1179.6875 460 1151 c 1,56,57
 476 1147 476 1147 492 1148 c 256,58,59
 534.285714286 1148 534.285714286 1148 548 1172 c 1,60,61
 560 1184 560 1184 568 1195 c 1,62,63
 571 1212 571 1212 571 1228 c 256,46,47
EndSplineSet
Substitution2: "Single Substitution k g h" h1.medi
Substitution2: "Single Substitution lookup 26 subtable" glyph294
Substitution2: "Single Substitution lookup 6 subtable" h1.medi
EndChar

StartChar: kh.isol
Encoding: 83 6202 83
Width: 1146
VWidth: 4095
GlyphClass: 2
Flags: W
LayerCount: 2
Fore
SplineSet
656 1392 m 260,0,1
 1312 1392 1312 1392 1312 735 c 6,2,3
 1312 735 1312 735 1312 654 c 132,-1,4
 1312 573 1312 573 1228 571 c 4,5,6
 1147 571 1147 571 1148 656 c 261,7,8
 1148 656 1148 656 1148 735 c 4,9,10
 1148 1230.02469136 1148 1230.02469136 656 1228 c 4,11,12
 408 1228 408 1228 289 1104 c 5,13,14
 164 984 164 984 164 735 c 6,15,16
 164 735 164 735 164 0 c 4,17,18
 164 -81 164 -81 82 -81 c 132,-1,19
 0 -81 0 -81 0 0 c 262,20,21
 0 0 0 0 0 735 c 4,22,23
 0 1392 0 1392 656 1392 c 260,0,1
492 0 m 4,24,25
 492 328 492 328 164 328 c 4,26,27
 81 328 81 328 81 410 c 132,-1,28
 81 492 81 492 164 492 c 4,29,30
 409 492 409 492 532 368 c 260,31,32
 657 243 657 243 656 0 c 4,33,34
 656 -81 656 -81 573 -81 c 132,-1,35
 490 -81 490 -81 492 0 c 4,24,25
EndSplineSet
Substitution2: "Single Substitution lookup 25 subtable" glyph295
Substitution2: "'fina' Terminal Forms in Mongolian lookup 2 subtable" kh.fina
Substitution2: "'medi' Medial Forms in Mongolian lookup 1 subtable" kh.medi
Substitution2: "Required Feature in Latin lookup 0 subtable" kh.init
EndChar

StartChar: k1.init
Encoding: 84 -1 84
Width: 1146
VWidth: 4095
GlyphClass: 2
Flags: W
LayerCount: 2
Fore
SplineSet
656 1392 m 256,0,1
 1312 1392 1312 1392 1312 735 c 2,2,3
 1312 735 1312 735 1312 654 c 128,-1,4
 1312 573 1312 573 1228 571 c 0,5,6
 1147 571 1147 571 1148 656 c 257,7,8
 1148 656 1148 656 1148 735 c 0,9,10
 1148 1230.02469136 1148 1230.02469136 656 1228 c 0,11,12
 408 1228 408 1228 289 1104 c 1,13,14
 164 984 164 984 164 735 c 2,15,16
 164 735 164 735 164 0 c 0,17,18
 164 -81 164 -81 82 -81 c 128,-1,19
 0 -81 0 -81 0 0 c 258,20,21
 0 0 0 0 0 735 c 0,22,23
 0 1392 0 1392 656 1392 c 256,0,1
EndSplineSet
Substitution2: "Single Substitution lookup 25 subtable" glyph296
EndChar

StartChar: k1.fina
Encoding: 85 -1 85
Width: 1311
VWidth: 4095
GlyphClass: 2
Flags: W
LayerCount: 2
Fore
SplineSet
656 1392 m 256,0,1
 1312 1392 1312 1392 1312 735 c 2,2,3
 1312 735 1312 735 1312 654 c 128,-1,4
 1312 573 1312 573 1228 571 c 0,5,6
 1147 571 1147 571 1148 656 c 257,7,8
 1148 656 1148 656 1148 735 c 0,9,10
 1148 1230.02469136 1148 1230.02469136 656 1228 c 0,11,12
 408 1228 408 1228 289 1104 c 1,13,14
 164 984 164 984 164 735 c 2,15,16
 164 735 164 735 164 0 c 0,17,18
 164 -81 164 -81 82 -81 c 128,-1,19
 0 -81 0 -81 0 0 c 258,20,21
 0 0 0 0 0 735 c 0,22,23
 0 1392 0 1392 656 1392 c 256,0,1
1188 -409 m 256,24,25
 1063 -573 1063 -573 735 -571 c 0,26,27
 654 -571 654 -571 655 -490 c 128,-1,28
 656 -409 656 -409 735 -409 c 0,29,30
 983 -409 983 -409 1064.5 -286.5 c 128,-1,31
 1146 -164 1146 -164 1148 81 c 1,32,33
 1148 81 1148 81 1148 656 c 0,34,35
 1148 737 1148 737 1229 736 c 128,-1,36
 1310 735 1310 735 1311 654 c 128,-1,37
 1312 573 1312 573 1312 368 c 258,38,39
 1312 368 1312 368 1312 62.5 c 128,-1,40
 1312 -243 1312 -243 1188 -409 c 256,24,25
EndSplineSet
EndChar

StartChar: kh.medi
Encoding: 86 -1 86
Width: 1146
VWidth: 4095
GlyphClass: 2
Flags: W
LayerCount: 2
Fore
SplineSet
656 1392 m 256,0,1
 1312 1392 1312 1392 1312 735 c 2,2,3
 1312 735 1312 735 1312 654 c 128,-1,4
 1312 573 1312 573 1228 571 c 0,5,6
 1147 571 1147 571 1148 656 c 257,7,8
 1148 656 1148 656 1148 735 c 0,9,10
 1148 1230.02469136 1148 1230.02469136 656 1228 c 0,11,12
 408 1228 408 1228 289 1104 c 1,13,14
 164 984 164 984 164 735 c 2,15,16
 164 735 164 735 164 0 c 0,17,18
 164 -81 164 -81 82 -81 c 128,-1,19
 0 -81 0 -81 0 0 c 258,20,21
 0 0 0 0 0 735 c 0,22,23
 0 1392 0 1392 656 1392 c 256,0,1
492 0 m 0,24,25
 492 328 492 328 164 328 c 0,26,27
 81 328 81 328 81 410 c 128,-1,28
 81 492 81 492 164 492 c 0,29,30
 409 492 409 492 532 368 c 256,31,32
 657 243 657 243 656 0 c 0,33,34
 656 -81 656 -81 573 -81 c 128,-1,35
 490 -81 490 -81 492 0 c 0,24,25
EndSplineSet
Substitution2: "Single Substitution lookup 26 subtable" glyph307
Substitution2: "Single Substitution lookup 25 subtable" glyph301
EndChar

StartChar: k1.medi
Encoding: 87 -1 87
Width: 1146
VWidth: 4095
GlyphClass: 2
Flags: W
LayerCount: 2
Fore
SplineSet
656 1392 m 256,0,1
 1312 1392 1312 1392 1312 735 c 2,2,3
 1312 735 1312 735 1312 654 c 128,-1,4
 1312 573 1312 573 1228 571 c 0,5,6
 1147 571 1147 571 1148 656 c 257,7,8
 1148 656 1148 656 1148 735 c 0,9,10
 1148 1230.02469136 1148 1230.02469136 656 1228 c 0,11,12
 408 1228 408 1228 289 1104 c 1,13,14
 164 984 164 984 164 735 c 2,15,16
 164 735 164 735 164 0 c 0,17,18
 164 -81 164 -81 82 -81 c 128,-1,19
 0 -81 0 -81 0 0 c 258,20,21
 0 0 0 0 0 735 c 0,22,23
 0 1392 0 1392 656 1392 c 256,0,1
EndSplineSet
Substitution2: "Single Substitution lookup 28 subtable" glyph338
Substitution2: "Single Substitution lookup 26 subtable" glyph308
Substitution2: "Single Substitution lookup 25 subtable" glyph302
EndChar

StartChar: gh.isol
Encoding: 88 6252 88
Width: 1146
VWidth: 4095
GlyphClass: 2
Flags: W
LayerCount: 2
Fore
SplineSet
656 1392 m 260,0,1
 1312 1392 1312 1392 1312 735 c 6,2,3
 1312 735 1312 735 1312 654 c 132,-1,4
 1312 573 1312 573 1228 571 c 4,5,6
 1147 571 1147 571 1148 656 c 261,7,8
 1148 656 1148 656 1148 735 c 4,9,10
 1148 1230.02469136 1148 1230.02469136 656 1228 c 4,11,12
 408 1228 408 1228 289 1104 c 5,13,14
 164 984 164 984 164 735 c 6,15,16
 164 735 164 735 164 0 c 4,17,18
 164 -81 164 -81 82 -81 c 132,-1,19
 0 -81 0 -81 0 0 c 262,20,21
 0 0 0 0 0 735 c 4,22,23
 0 1392 0 1392 656 1392 c 260,0,1
492 0 m 4,24,25
 492 328 492 328 164 328 c 4,26,27
 81 328 81 328 81 410 c 132,-1,28
 81 492 81 492 164 492 c 4,29,30
 409 492 409 492 532 368 c 260,31,32
 657 243 657 243 656 0 c 4,33,34
 656 -81 656 -81 573 -81 c 132,-1,35
 490 -81 490 -81 492 0 c 4,24,25
779 1759 m 256,36,37
 779 1716.9375 779 1716.9375 744 1671 c 1,38,39
 698.0625 1636 698.0625 1636 656 1636 c 256,40,41
 633 1636 633 1636 608 1648 c 0,42,43
 585 1655 585 1655 568 1671 c 0,44,45
 536 1713 536 1713 532 1759 c 257,46,47
 532 1805.8 532 1805.8 568 1849 c 257,48,49
 600.791666667 1881.79166667 600.791666667 1881.79166667 656 1884 c 256,50,51
 679 1884 679 1884 705 1876 c 1,52,53
 726 1864 726 1864 744 1849 c 0,54,55
 760 1833 760 1833 768 1808 c 1,56,57
 780 1785 780 1785 779 1759 c 256,36,37
EndSplineSet
Substitution2: "Single Substitution lookup 25 subtable" glyph297
Substitution2: "'fina' Terminal Forms in Mongolian lookup 2 subtable" gh.fina
Substitution2: "'medi' Medial Forms in Mongolian lookup 1 subtable" gh.medi
Substitution2: "Required Feature in Latin lookup 0 subtable" gh.init
EndChar

StartChar: g1.init
Encoding: 89 -1 89
Width: 1146
VWidth: 4095
GlyphClass: 2
Flags: W
LayerCount: 2
Fore
SplineSet
656 1392 m 256,0,1
 1312 1392 1312 1392 1312 735 c 2,2,3
 1312 735 1312 735 1312 654 c 128,-1,4
 1312 573 1312 573 1228 571 c 0,5,6
 1147 571 1147 571 1148 656 c 257,7,8
 1148 656 1148 656 1148 735 c 0,9,10
 1148 1230.02469136 1148 1230.02469136 656 1228 c 0,11,12
 408 1228 408 1228 289 1104 c 1,13,14
 164 984 164 984 164 735 c 2,15,16
 164 735 164 735 164 0 c 0,17,18
 164 -81 164 -81 82 -81 c 128,-1,19
 0 -81 0 -81 0 0 c 258,20,21
 0 0 0 0 0 735 c 0,22,23
 0 1392 0 1392 656 1392 c 256,0,1
779 1759 m 256,24,25
 779 1716.9375 779 1716.9375 744 1671 c 1,26,27
 698.0625 1636 698.0625 1636 656 1636 c 256,28,29
 633 1636 633 1636 608 1648 c 0,30,31
 585 1655 585 1655 568 1671 c 0,32,33
 536 1713 536 1713 532 1759 c 257,34,35
 532 1805.8 532 1805.8 568 1849 c 257,36,37
 600.791666667 1881.79166667 600.791666667 1881.79166667 656 1884 c 256,38,39
 679 1884 679 1884 705 1876 c 1,40,41
 726 1864 726 1864 744 1849 c 0,42,43
 760 1833 760 1833 768 1808 c 1,44,45
 780 1785 780 1785 779 1759 c 256,24,25
EndSplineSet
Substitution2: "Single Substitution lookup 25 subtable" glyph298
EndChar

StartChar: gh.medi
Encoding: 90 -1 90
Width: 1146
VWidth: 4095
GlyphClass: 2
Flags: W
LayerCount: 2
Fore
SplineSet
656 1392 m 256,0,1
 1312 1392 1312 1392 1312 735 c 2,2,3
 1312 735 1312 735 1312 654 c 128,-1,4
 1312 573 1312 573 1228 571 c 0,5,6
 1147 571 1147 571 1148 656 c 257,7,8
 1148 656 1148 656 1148 735 c 0,9,10
 1148 1230.02469136 1148 1230.02469136 656 1228 c 0,11,12
 408 1228 408 1228 289 1104 c 1,13,14
 164 984 164 984 164 735 c 2,15,16
 164 735 164 735 164 0 c 0,17,18
 164 -81 164 -81 82 -81 c 128,-1,19
 0 -81 0 -81 0 0 c 258,20,21
 0 0 0 0 0 735 c 0,22,23
 0 1392 0 1392 656 1392 c 256,0,1
779 1759 m 256,24,25
 779 1716.9375 779 1716.9375 744 1671 c 1,26,27
 698.0625 1636 698.0625 1636 656 1636 c 256,28,29
 633 1636 633 1636 608 1648 c 0,30,31
 585 1655 585 1655 568 1671 c 0,32,33
 536 1713 536 1713 532 1759 c 257,34,35
 532 1805.8 532 1805.8 568 1849 c 257,36,37
 600.791666667 1881.79166667 600.791666667 1881.79166667 656 1884 c 256,38,39
 679 1884 679 1884 705 1876 c 1,40,41
 726 1864 726 1864 744 1849 c 0,42,43
 760 1833 760 1833 768 1808 c 1,44,45
 780 1785 780 1785 779 1759 c 256,24,25
492 0 m 0,46,47
 492 328 492 328 164 328 c 0,48,49
 81 328 81 328 81 410 c 128,-1,50
 81 492 81 492 164 492 c 0,51,52
 409 492 409 492 532 368 c 256,53,54
 657 243 657 243 656 0 c 0,55,56
 656 -81 656 -81 573 -81 c 128,-1,57
 490 -81 490 -81 492 0 c 0,46,47
EndSplineSet
Substitution2: "Single Substitution lookup 26 subtable" glyph309
Substitution2: "Single Substitution lookup 25 subtable" glyph303
EndChar

StartChar: g1.medi
Encoding: 91 -1 91
Width: 1146
VWidth: 4095
GlyphClass: 2
Flags: W
LayerCount: 2
Fore
SplineSet
656 1392 m 256,0,1
 1312 1392 1312 1392 1312 735 c 2,2,3
 1312 735 1312 735 1312 654 c 128,-1,4
 1312 573 1312 573 1228 571 c 0,5,6
 1147 571 1147 571 1148 656 c 257,7,8
 1148 656 1148 656 1148 735 c 0,9,10
 1148 1230.02469136 1148 1230.02469136 656 1228 c 0,11,12
 408 1228 408 1228 289 1104 c 1,13,14
 164 984 164 984 164 735 c 2,15,16
 164 735 164 735 164 0 c 0,17,18
 164 -81 164 -81 82 -81 c 128,-1,19
 0 -81 0 -81 0 0 c 258,20,21
 0 0 0 0 0 735 c 0,22,23
 0 1392 0 1392 656 1392 c 256,0,1
779 1759 m 256,24,25
 779 1716.9375 779 1716.9375 744 1671 c 1,26,27
 698.0625 1636 698.0625 1636 656 1636 c 256,28,29
 633 1636 633 1636 608 1648 c 0,30,31
 585 1655 585 1655 568 1671 c 0,32,33
 536 1713 536 1713 532 1759 c 257,34,35
 532 1805.8 532 1805.8 568 1849 c 257,36,37
 600.791666667 1881.79166667 600.791666667 1881.79166667 656 1884 c 256,38,39
 679 1884 679 1884 705 1876 c 1,40,41
 726 1864 726 1864 744 1849 c 0,42,43
 760 1833 760 1833 768 1808 c 1,44,45
 780 1785 780 1785 779 1759 c 256,24,25
EndSplineSet
Substitution2: "Single Substitution lookup 26 subtable" glyph310
Substitution2: "Single Substitution lookup 25 subtable" glyph304
EndChar

StartChar: hh.isol
Encoding: 92 6253 92
Width: 1146
VWidth: 4095
GlyphClass: 2
Flags: W
LayerCount: 2
Fore
SplineSet
656 1392 m 256,0,1
 1312 1392 1312 1392 1312 735 c 2,2,3
 1312 735 1312 735 1312 654 c 128,-1,4
 1312 573 1312 573 1228 571 c 0,5,6
 1147 571 1147 571 1148 656 c 257,7,8
 1148 656 1148 656 1148 735 c 0,9,10
 1148 1230.02469136 1148 1230.02469136 656 1228 c 0,11,12
 408 1228 408 1228 289 1104 c 1,13,14
 164 984 164 984 164 735 c 2,15,16
 164 735 164 735 164 0 c 0,17,18
 164 -81 164 -81 82 -81 c 128,-1,19
 0 -81 0 -81 0 0 c 258,20,21
 0 0 0 0 0 735 c 0,22,23
 0 1392 0 1392 656 1392 c 256,0,1
492 0 m 0,24,25
 492 328 492 328 164 328 c 0,26,27
 81 328 81 328 81 410 c 128,-1,28
 81 492 81 492 164 492 c 0,29,30
 409 492 409 492 532 368 c 256,31,32
 657 243 657 243 656 0 c 0,33,34
 656 -81 656 -81 573 -81 c 128,-1,35
 490 -81 490 -81 492 0 c 0,24,25
899 1720 m 256,36,37
 899 1615 899 1615 827.5 1543.5 c 0,38,39
 756 1472 756 1472 656 1472 c 256,40,41
 566.4 1472 566.4 1472 480 1544 c 1,42,43
 405.191381496 1630.49746515 405.191381496 1630.49746515 409 1720 c 256,44,45
 409 1817.41935484 409 1817.41935484 480 1893 c 0,46,47
 558.08 1971.08 558.08 1971.08 656 1967 c 257,48,49
 760.529411765 1967 760.529411765 1967 828 1893 c 1,50,51
 899 1831.59459459 899 1831.59459459 899 1720 c 256,36,37
735 1720 m 256,52,53
 735 1762.61538462 735 1762.61538462 712 1775 c 1,54,55
 697.416666667 1800 697.416666667 1800 656 1800 c 256,56,57
 607 1800 607 1800 580 1752 c 256,58,59
 573 1736 573 1736 571 1720 c 256,60,61
 571 1693.33333333 571 1693.33333333 596 1660 c 1,62,63
 634.88 1637.32 634.88 1637.32 656 1636 c 256,64,65
 706 1636 706 1636 732 1688 c 1,66,67
 735 1704 735 1704 735 1720 c 256,52,53
EndSplineSet
Substitution2: "Single Substitution lookup 25 subtable" glyph299
Substitution2: "'fina' Terminal Forms in Mongolian lookup 2 subtable" hh.fina
Substitution2: "'medi' Medial Forms in Mongolian lookup 1 subtable" hh.medi
Substitution2: "Required Feature in Latin lookup 0 subtable" hh.init
EndChar

StartChar: h1.init
Encoding: 93 -1 93
Width: 1146
VWidth: 4095
GlyphClass: 2
Flags: W
LayerCount: 2
Fore
SplineSet
656 1392 m 256,0,1
 1312 1392 1312 1392 1312 735 c 2,2,3
 1312 735 1312 735 1312 654 c 128,-1,4
 1312 573 1312 573 1228 571 c 0,5,6
 1147 571 1147 571 1148 656 c 257,7,8
 1148 656 1148 656 1148 735 c 0,9,10
 1148 1230.02469136 1148 1230.02469136 656 1228 c 0,11,12
 408 1228 408 1228 289 1104 c 1,13,14
 164 984 164 984 164 735 c 2,15,16
 164 735 164 735 164 0 c 0,17,18
 164 -81 164 -81 82 -81 c 128,-1,19
 0 -81 0 -81 0 0 c 258,20,21
 0 0 0 0 0 735 c 0,22,23
 0 1392 0 1392 656 1392 c 256,0,1
899 1720 m 256,24,25
 899 1615 899 1615 827.5 1543.5 c 0,26,27
 756 1472 756 1472 656 1472 c 256,28,29
 566.4 1472 566.4 1472 480 1544 c 1,30,31
 405.191381496 1630.49746515 405.191381496 1630.49746515 409 1720 c 256,32,33
 409 1817.41935484 409 1817.41935484 480 1893 c 0,34,35
 558.08 1971.08 558.08 1971.08 656 1967 c 257,36,37
 760.529411765 1967 760.529411765 1967 828 1893 c 1,38,39
 899 1831.59459459 899 1831.59459459 899 1720 c 256,24,25
735 1720 m 256,40,41
 735 1762.61538462 735 1762.61538462 712 1775 c 1,42,43
 697.416666667 1800 697.416666667 1800 656 1800 c 256,44,45
 607 1800 607 1800 580 1752 c 256,46,47
 573 1736 573 1736 571 1720 c 256,48,49
 571 1693.33333333 571 1693.33333333 596 1660 c 1,50,51
 634.88 1637.32 634.88 1637.32 656 1636 c 256,52,53
 706 1636 706 1636 732 1688 c 1,54,55
 735 1704 735 1704 735 1720 c 256,40,41
EndSplineSet
Substitution2: "Single Substitution lookup 25 subtable" glyph300
EndChar

StartChar: hh.medi
Encoding: 94 -1 94
Width: 654
VWidth: 4095
GlyphClass: 2
Flags: W
LayerCount: 2
Fore
SplineSet
656 1392 m 256,0,1
 1312 1392 1312 1392 1312 735 c 2,2,3
 1312 735 1312 735 1312 654 c 128,-1,4
 1312 573 1312 573 1228 571 c 0,5,6
 1147 571 1147 571 1148 656 c 257,7,8
 1148 656 1148 656 1148 735 c 0,9,10
 1148 1230.02469136 1148 1230.02469136 656 1228 c 0,11,12
 408 1228 408 1228 289 1104 c 1,13,14
 164 984 164 984 164 735 c 2,15,16
 164 735 164 735 164 0 c 0,17,18
 164 -81 164 -81 82 -81 c 128,-1,19
 0 -81 0 -81 0 0 c 258,20,21
 0 0 0 0 0 735 c 0,22,23
 0 1392 0 1392 656 1392 c 256,0,1
492 0 m 0,24,25
 492 328 492 328 164 328 c 0,26,27
 81 328 81 328 81 410 c 128,-1,28
 81 492 81 492 164 492 c 0,29,30
 409 492 409 492 532 368 c 256,31,32
 657 243 657 243 656 0 c 0,33,34
 656 -81 656 -81 573 -81 c 128,-1,35
 490 -81 490 -81 492 0 c 0,24,25
899 1720 m 256,36,37
 899 1615 899 1615 827.5 1543.5 c 0,38,39
 756 1472 756 1472 656 1472 c 256,40,41
 566.4 1472 566.4 1472 480 1544 c 1,42,43
 405.191381496 1630.49746515 405.191381496 1630.49746515 409 1720 c 256,44,45
 409 1817.41935484 409 1817.41935484 480 1893 c 0,46,47
 558.08 1971.08 558.08 1971.08 656 1967 c 257,48,49
 760.529411765 1967 760.529411765 1967 828 1893 c 1,50,51
 899 1831.59459459 899 1831.59459459 899 1720 c 256,36,37
735 1720 m 256,52,53
 735 1762.61538462 735 1762.61538462 712 1775 c 1,54,55
 697.416666667 1800 697.416666667 1800 656 1800 c 256,56,57
 607 1800 607 1800 580 1752 c 256,58,59
 573 1736 573 1736 571 1720 c 256,60,61
 571 1693.33333333 571 1693.33333333 596 1660 c 1,62,63
 634.88 1637.32 634.88 1637.32 656 1636 c 256,64,65
 706 1636 706 1636 732 1688 c 1,66,67
 735 1704 735 1704 735 1720 c 256,52,53
EndSplineSet
Substitution2: "Single Substitution lookup 26 subtable" glyph311
Substitution2: "Single Substitution lookup 25 subtable" glyph305
EndChar

StartChar: h1.medi
Encoding: 95 -1 95
Width: 1146
VWidth: 4095
GlyphClass: 2
Flags: W
LayerCount: 2
Fore
SplineSet
656 1392 m 256,0,1
 1312 1392 1312 1392 1312 735 c 2,2,3
 1312 735 1312 735 1312 654 c 128,-1,4
 1312 573 1312 573 1228 571 c 0,5,6
 1147 571 1147 571 1148 656 c 257,7,8
 1148 656 1148 656 1148 735 c 0,9,10
 1148 1230.02469136 1148 1230.02469136 656 1228 c 0,11,12
 408 1228 408 1228 289 1104 c 1,13,14
 164 984 164 984 164 735 c 2,15,16
 164 735 164 735 164 0 c 0,17,18
 164 -81 164 -81 82 -81 c 128,-1,19
 0 -81 0 -81 0 0 c 258,20,21
 0 0 0 0 0 735 c 0,22,23
 0 1392 0 1392 656 1392 c 256,0,1
899 1720 m 256,24,25
 899 1615 899 1615 827.5 1543.5 c 0,26,27
 756 1472 756 1472 656 1472 c 256,28,29
 566.4 1472 566.4 1472 480 1544 c 1,30,31
 405.191381496 1630.49746515 405.191381496 1630.49746515 409 1720 c 256,32,33
 409 1817.41935484 409 1817.41935484 480 1893 c 0,34,35
 558.08 1971.08 558.08 1971.08 656 1967 c 257,36,37
 760.529411765 1967 760.529411765 1967 828 1893 c 1,38,39
 899 1831.59459459 899 1831.59459459 899 1720 c 256,24,25
735 1720 m 256,40,41
 735 1762.61538462 735 1762.61538462 712 1775 c 1,42,43
 697.416666667 1800 697.416666667 1800 656 1800 c 256,44,45
 607 1800 607 1800 580 1752 c 256,46,47
 573 1736 573 1736 571 1720 c 256,48,49
 571 1693.33333333 571 1693.33333333 596 1660 c 1,50,51
 634.88 1637.32 634.88 1637.32 656 1636 c 256,52,53
 706 1636 706 1636 732 1688 c 1,54,55
 735 1704 735 1704 735 1720 c 256,40,41
EndSplineSet
Substitution2: "Single Substitution lookup 26 subtable" glyph312
Substitution2: "Single Substitution lookup 25 subtable" glyph306
EndChar

StartChar: dz.isol
Encoding: 96 6255 96
Width: 1392
VWidth: 4095
GlyphClass: 2
Flags: W
LayerCount: 2
Fore
SplineSet
1392 735 m 5,0,-1
 1472 656 l 5,1,-1
 1392 571 l 5,2,-1
 1347 656 l 5,3,-1
 1392 735 l 5,0,-1
0 1312 m 1,4,5
 0 1312 0 1312 180 1296 c 1,6,7
 360 1275 360 1275 439 1348 c 1,8,9
 627 1156 627 1156 809 976 c 256,10,11
 989 796 989 796 1044 735 c 1,12,13
 1044 735 1044 735 1392 735 c 1,14,15
 1392 735 1392 735 1392 571 c 1,16,17
 1392 571 1392 571 1148 571 c 257,18,19
 1148 571 1148 571 1148 409 c 0,20,21
 1148 328 1148 328 1065 328 c 128,-1,22
 982 328 982 328 983 410 c 128,-1,23
 984 492 984 492 984 513 c 258,24,25
 984 513 984 513 984 571 c 1,26,27
 848 707 848 707 628 929 c 256,28,29
 408 1149 408 1149 328 1228 c 0,30,31
 312 1249 312 1249 238 1244.5 c 128,-1,32
 164 1240 164 1240 164 1228 c 2,33,34
 164 1228 164 1228 164 656 c 0,35,36
 164 573 164 573 81 571 c 0,37,38
 0 571 0 571 0 656 c 2,39,40
 0 656 0 656 0 1312 c 1,4,5
0 1392 m 2,41,42
 0 1392 0 1392 656 1392 c 0,43,44
 737 1392 737 1392 736 1310.5 c 128,-1,45
 735 1229 735 1229 656 1228 c 1,46,47
 656 1228 656 1228 0 1228 c 0,48,49
 -81 1228 -81 1228 -81 1310 c 128,-1,50
 -81 1392 -81 1392 0 1392 c 2,41,42
EndSplineSet
Substitution2: "Single Substitution lookup 30 subtable" dz1.init
Substitution2: "'fina' Terminal Forms in Mongolian lookup 2 subtable" dz.fina
Substitution2: "'medi' Medial Forms in Mongolian lookup 1 subtable" dz.medi
Substitution2: "Required Feature in Latin lookup 0 subtable" dz.init
EndChar

StartChar: dz1.init
Encoding: 97 -1 97
Width: 1067
VWidth: 4095
GlyphClass: 2
Flags: W
LayerCount: 2
Fore
SplineSet
0 1312 m 1,0,1
 0 1312 0 1312 180 1296 c 1,2,3
 360 1275 360 1275 439 1348 c 1,4,5
 627 1156 627 1156 809 976 c 256,6,7
 989 796 989 796 1044 735 c 1,8,9
 1148 654 1148 654 1148 656 c 257,10,11
 1148 656 1148 656 1063 571 c 1,12,13
 1063 571 1063 571 984 571 c 1,14,15
 848 707 848 707 628 929 c 256,16,17
 408 1149 408 1149 328 1228 c 0,18,19
 312 1249 312 1249 238 1244.5 c 128,-1,20
 164 1240 164 1240 164 1228 c 2,21,22
 164 1228 164 1228 164 656 c 0,23,24
 164 573 164 573 81 571 c 0,25,26
 0 571 0 571 0 656 c 2,27,28
 0 656 0 656 0 1312 c 1,0,1
0 1392 m 2,29,30
 0 1392 0 1392 656 1392 c 0,31,32
 737 1392 737 1392 736 1310.5 c 128,-1,33
 735 1229 735 1229 656 1228 c 1,34,35
 656 1228 656 1228 0 1228 c 0,36,37
 -81 1228 -81 1228 -81 1310 c 128,-1,38
 -81 1392 -81 1392 0 1392 c 2,29,30
EndSplineSet
EndChar

StartChar: dz.fina
Encoding: 98 -1 98
Width: 1146
VWidth: 4095
GlyphClass: 2
Flags: W
LayerCount: 2
Fore
SplineSet
453 1308 m 1,0,1
 499.531914894 1257.44680851 499.531914894 1257.44680851 571.14893617 1174.08510638 c 0,2,3
 642.765957447 1090.72340426 642.765957447 1090.72340426 908 788 c 1,4,5
 945 751 945 751 964 765 c 1,6,7
 987 772 987 772 984 800 c 1,8,9
 984 800 984 800 984 1228 c 0,10,11
 984 1310 984 1310 1063 1312 c 0,12,13
 1146 1312 1146 1312 1148 1228 c 1,14,15
 1148 1228 1148 1228 1148 612 c 1,16,17
 1144 524 1144 524 1068 504 c 256,18,19
 992 483 992 483 948 536 c 1,20,21
 879.179487179 598.564102564 879.179487179 598.564102564 725.58974359 769.282051282 c 128,-1,22
 572 940 572 940 402.5 1130 c 128,-1,23
 233 1320 233 1320 176 1375 c 1,24,25
 328 1391 328 1391 390.5 1349.5 c 2,26,27
 390.5 1349.5 390.5 1349.5 453 1308 c 1,0,1
0 1312 m 1,28,29
 0 1312 0 1312 108 1312 c 1,30,31
 164 1308 164 1308 164 1228 c 2,32,33
 164 1228 164 1228 164 409 c 256,34,35
 164 328 164 328 82 328 c 128,-1,36
 0 328 0 328 0 409 c 2,37,38
 0 409 0 409 0 1312 c 1,28,29
0 1392 m 2,39,40
 0 1392 0 1392 656 1392 c 0,41,42
 737 1392 737 1392 736 1310.5 c 128,-1,43
 735 1229 735 1229 656 1228 c 1,44,45
 656 1228 656 1228 0 1228 c 0,46,47
 -81 1228 -81 1228 -81 1310 c 128,-1,48
 -81 1392 -81 1392 0 1392 c 2,39,40
EndSplineSet
EndChar

StartChar: dz.medi
Encoding: 99 -1 99
Width: 1392
VWidth: 4095
GlyphClass: 2
Flags: W
LayerCount: 2
Fore
SplineSet
1392 735 m 1,0,-1
 1472 656 l 1,1,-1
 1392 571 l 1,2,-1
 1347 656 l 1,3,-1
 1392 735 l 1,0,-1
0 1312 m 1,4,5
 0 1312 0 1312 180 1296 c 1,6,7
 360 1275 360 1275 439 1348 c 1,8,9
 627 1156 627 1156 809 976 c 256,10,11
 989 796 989 796 1044 735 c 1,12,13
 1044 735 1044 735 1392 735 c 1,14,15
 1392 735 1392 735 1392 571 c 1,16,17
 1392 571 1392 571 1148 571 c 257,18,19
 1148 571 1148 571 1148 409 c 0,20,21
 1148 328 1148 328 1065 328 c 128,-1,22
 982 328 982 328 983 410 c 128,-1,23
 984 492 984 492 984 513 c 258,24,25
 984 513 984 513 984 571 c 1,26,27
 848 707 848 707 628 929 c 256,28,29
 408 1149 408 1149 328 1228 c 0,30,31
 312 1249 312 1249 238 1244.5 c 128,-1,32
 164 1240 164 1240 164 1239.25 c 2,33,34
 164 1239.25 164 1239.25 164 409 c 256,35,36
 164 328 164 328 82 328 c 128,-1,37
 0 328 0 328 0 409 c 2,38,39
 0 409 0 409 0 1312 c 1,4,5
0 1392 m 2,40,41
 0 1392 0 1392 656 1392 c 0,42,43
 737 1392 737 1392 736 1310.5 c 128,-1,44
 735 1229 735 1229 656 1228 c 1,45,46
 656 1228 656 1228 0 1228 c 0,47,48
 -81 1228 -81 1228 -81 1310 c 128,-1,49
 -81 1392 -81 1392 0 1392 c 2,40,41
EndSplineSet
Substitution2: "Single Substitution lookup 30 subtable" dz1.medi
Substitution2: "Single Substitution lookup 26 subtable" glyph324
Substitution2: "Single Substitution lookup 6 subtable" dz1.medi
EndChar

StartChar: dz1.medi
Encoding: 100 -1 100
Width: 1067
VWidth: 4095
GlyphClass: 2
Flags: W
LayerCount: 2
Fore
SplineSet
0 1312 m 1,0,1
 0 1312 0 1312 180 1296 c 1,2,3
 360 1275 360 1275 439 1348 c 1,4,5
 627 1156 627 1156 809 976 c 256,6,7
 989 796 989 796 1044 735 c 1,8,9
 1148 654 1148 654 1148 656 c 257,10,11
 1148 656 1148 656 1063 571 c 1,12,13
 1063 571 1063 571 984 571 c 1,14,15
 848 707 848 707 628 929 c 256,16,17
 408 1149 408 1149 328 1228 c 0,18,19
 312 1249 312 1249 238 1244.5 c 128,-1,20
 164 1240 164 1240 164 1238.5 c 2,21,22
 164 1238.5 164 1238.5 164 409 c 256,23,24
 164 328 164 328 82 328 c 128,-1,25
 0 328 0 328 0 409 c 2,26,27
 0 409 0 409 0 1312 c 1,0,1
0 1392 m 2,28,29
 0 1392 0 1392 656 1392 c 0,30,31
 737 1392 737 1392 736 1310.5 c 128,-1,32
 735 1229 735 1229 656 1228 c 1,33,34
 656 1228 656 1228 0 1228 c 0,35,36
 -81 1228 -81 1228 -81 1310 c 128,-1,37
 -81 1392 -81 1392 0 1392 c 2,28,29
EndSplineSet
Substitution2: "Single Substitution lookup 26 subtable" glyph325
EndChar

StartChar: ts.isol
Encoding: 101 6254 101
Width: 1392
VWidth: 4095
GlyphClass: 2
Flags: W
LayerCount: 2
Fore
SplineSet
1392 735 m 5,0,-1
 1472 656 l 5,1,-1
 1392 571 l 5,2,-1
 1347 656 l 5,3,-1
 1392 735 l 5,0,-1
0 1312 m 1,4,5
 0 1312 0 1312 180 1296 c 1,6,7
 360 1275 360 1275 439 1348 c 1,8,9
 627 1156 627 1156 809 976 c 256,10,11
 989 796 989 796 1044 735 c 1,12,13
 1044 735 1044 735 1392 735 c 1,14,15
 1392 735 1392 735 1392 571 c 1,16,17
 1392 571 1392 571 1148 571 c 257,18,19
 1148 571 1148 571 1148 409 c 0,20,21
 1148 328 1148 328 1065 328 c 128,-1,22
 982 328 982 328 983 410 c 128,-1,23
 984 492 984 492 984 513 c 258,24,25
 984 513 984 513 984 571 c 1,26,27
 848 707 848 707 628 929 c 256,28,29
 408 1149 408 1149 328 1228 c 0,30,31
 312 1249 312 1249 238 1244.5 c 128,-1,32
 164 1240 164 1240 164 1228 c 2,33,34
 164 1228 164 1228 164 656 c 0,35,36
 164 573 164 573 81 571 c 0,37,38
 0 571 0 571 0 656 c 2,39,40
 0 656 0 656 0 1312 c 1,4,5
0 1392 m 2,41,42
 0 1392 0 1392 656 1392 c 0,43,44
 737 1392 737 1392 736 1310.5 c 128,-1,45
 735 1229 735 1229 656 1228 c 1,46,47
 656 1228 656 1228 0 1228 c 0,48,49
 -81 1228 -81 1228 -81 1310 c 128,-1,50
 -81 1392 -81 1392 0 1392 c 2,41,42
164 1556 m 0,51,52
 164 1639 164 1639 245 1641 c 0,53,54
 328 1641 328 1641 328 1557.5 c 2,55,56
 328 1557.5 328 1557.5 328 1312 c 1,57,58
 328 1312 328 1312 164 1312 c 1,59,60
 164 1312 164 1312 164 1556 c 0,51,52
EndSplineSet
Substitution2: "'fina' Terminal Forms in Mongolian lookup 2 subtable" ts.fina
Substitution2: "'medi' Medial Forms in Mongolian lookup 1 subtable" ts.medi
Substitution2: "Required Feature in Latin lookup 0 subtable" ts.init
EndChar

StartChar: ts.medi
Encoding: 102 -1 102
Width: 1392
VWidth: 4095
GlyphClass: 2
Flags: W
LayerCount: 2
Fore
SplineSet
1392 735 m 1,0,-1
 1472 656 l 1,1,-1
 1392 571 l 1,2,-1
 1347 656 l 1,3,-1
 1392 735 l 1,0,-1
0 1312 m 1,4,5
 0 1312 0 1312 180 1296 c 1,6,7
 360 1275 360 1275 439 1348 c 1,8,9
 627 1156 627 1156 809 976 c 256,10,11
 989 796 989 796 1044 735 c 1,12,13
 1044 735 1044 735 1392 735 c 1,14,15
 1392 735 1392 735 1392 571 c 1,16,17
 1392 571 1392 571 1148 571 c 257,18,19
 1148 571 1148 571 1148 409 c 0,20,21
 1148 328 1148 328 1065 328 c 128,-1,22
 982 328 982 328 983 410 c 128,-1,23
 984 492 984 492 984 513 c 258,24,25
 984 513 984 513 984 571 c 1,26,27
 848 707 848 707 628 929 c 256,28,29
 408 1149 408 1149 328 1228 c 0,30,31
 312 1249 312 1249 238 1244.5 c 128,-1,32
 164 1240 164 1240 164 1238.5 c 2,33,34
 164 1238.5 164 1238.5 164 409 c 256,35,36
 164 328 164 328 82 328 c 128,-1,37
 0 328 0 328 0 409 c 2,38,39
 0 409 0 409 0 1312 c 1,4,5
0 1392 m 2,40,41
 0 1392 0 1392 656 1392 c 0,42,43
 737 1392 737 1392 736 1310.5 c 128,-1,44
 735 1229 735 1229 656 1228 c 1,45,46
 656 1228 656 1228 0 1228 c 0,47,48
 -81 1228 -81 1228 -81 1310 c 128,-1,49
 -81 1392 -81 1392 0 1392 c 2,40,41
164 1556 m 0,50,51
 164 1639 164 1639 245 1641 c 0,52,53
 328 1641 328 1641 328 1557.5 c 2,54,55
 328 1557.5 328 1557.5 328 1312 c 1,56,57
 328 1312 328 1312 164 1312 c 1,58,59
 164 1312 164 1312 164 1556 c 0,50,51
EndSplineSet
Substitution2: "Single Substitution lookup 26 subtable" glyph326
EndChar

StartChar: s.isol
Encoding: 103 6192 103
Width: 1477
VWidth: 4095
GlyphClass: 2
Flags: W
LayerCount: 2
Fore
SplineSet
1477 735 m 5,0,-1
 1557 656 l 5,1,-1
 1477 571 l 5,2,-1
 1432 656 l 5,3,-1
 1477 735 l 5,0,-1
0 656 m 2,4,5
 0 656 0 656 0 1560 c 0,6,7
 0 1676 0 1676 97 1712 c 0,8,9
 137 1724 137 1724 178 1724 c 128,-1,10
 219 1724 219 1724 256 1692 c 1,11,12
 444 1500 444 1500 756 1148 c 256,13,14
 1068 796 1068 796 1128 735 c 1,15,16
 1128 735 1128 735 1477 735 c 1,17,18
 1477 735 1477 735 1477 571 c 1,19,20
 1477 571 1477 571 1228 571 c 257,21,22
 1228 571 1228 571 1228 409 c 0,23,24
 1228 328 1228 328 1146.5 328 c 128,-1,25
 1065 328 1065 328 1063 409 c 1,26,27
 1063 409 1063 409 1063 571 c 1,28,29
 927 707 927 707 636 1044 c 1,30,31
 340 1377 340 1377 259 1456 c 0,32,33
 236 1484 236 1484 201 1477 c 256,34,35
 164 1470 164 1470 164 1440 c 2,36,37
 164 1440 164 1440 164 656 c 0,38,39
 164 573 164 573 81 571 c 0,40,41
 0 571 0 571 0 656 c 2,4,5
EndSplineSet
Substitution2: "'fina' Terminal Forms in Mongolian lookup 2 subtable" s.fina
Substitution2: "'medi' Medial Forms in Mongolian lookup 1 subtable" s.medi
Substitution2: "Required Feature in Latin lookup 0 subtable" s.init
EndChar

StartChar: s.fina
Encoding: 104 -1 104
Width: 1231
VWidth: 4095
GlyphClass: 2
Flags: W
LayerCount: 2
Fore
SplineSet
1068 883 m 2,0,1
 1068 883 1068 883 1063 1312 c 0,2,3
 1063 1393 1063 1393 1146 1392.5 c 128,-1,4
 1229 1392 1229 1392 1228 1312 c 1,5,6
 1228 1312 1228 1312 1228 696 c 0,7,8
 1228 608 1228 608 1151 584 c 0,9,10
 1075 563 1075 563 1028 617 c 1,11,12
 892 753 892 753 617 1063 c 256,13,14
 342 1375 342 1375 259 1456 c 0,15,16
 236 1484 236 1484 201 1477 c 256,17,18
 164 1470 164 1470 164 1440 c 2,19,20
 164 1440 164 1440 164 409 c 256,21,22
 164 328 164 328 82 328 c 128,-1,23
 0 328 0 328 0 409 c 2,24,25
 0 409 0 409 0 1560 c 0,26,27
 0 1676 0 1676 97 1712 c 0,28,29
 137 1724 137 1724 178 1724 c 128,-1,30
 219 1724 219 1724 256 1692 c 1,31,32
 408 1537 408 1537 645 1269 c 1,33,34
 876 1001 876 1001 992 869 c 0,35,36
 1024 837 1024 837 1047 844 c 0,37,38
 1068 851 1068 851 1068 883 c 2,0,1
EndSplineSet
EndChar

StartChar: s.medi
Encoding: 105 -1 105
Width: 1477
VWidth: 4095
GlyphClass: 2
Flags: W
LayerCount: 2
Fore
SplineSet
1477 735 m 5,0,-1
 1557 656 l 5,1,-1
 1477 571 l 5,2,-1
 1432 656 l 5,3,-1
 1477 735 l 5,0,-1
0 409 m 2,4,5
 0 409 0 409 0 1560 c 0,6,7
 0 1676 0 1676 97 1712 c 0,8,9
 137 1724 137 1724 178 1724 c 128,-1,10
 219 1724 219 1724 256 1692 c 1,11,12
 444 1500 444 1500 756 1148 c 256,13,14
 1068 796 1068 796 1128 735 c 1,15,16
 1128 735 1128 735 1477 735 c 1,17,18
 1477 735 1477 735 1477 571 c 1,19,20
 1477 571 1477 571 1228 571 c 257,21,22
 1228 571 1228 571 1228 409 c 0,23,24
 1228 328 1228 328 1146.5 328 c 128,-1,25
 1065 328 1065 328 1063 409 c 1,26,27
 1063 409 1063 409 1063 571 c 1,28,29
 927 707 927 707 636 1044 c 1,30,31
 340 1377 340 1377 259 1456 c 0,32,33
 236 1484 236 1484 201 1477 c 256,34,35
 164 1470 164 1470 164 1440 c 2,36,37
 164 1440 164 1440 164 409 c 256,38,39
 164 328 164 328 82 328 c 128,-1,40
 0 328 0 328 0 409 c 2,4,5
EndSplineSet
Substitution2: "Single Substitution lookup 26 subtable" glyph327
EndChar

StartChar: j.isol
Encoding: 106 6197 106
Width: 409
VWidth: 4095
GlyphClass: 2
Flags: W
LayerCount: 2
Fore
SplineSet
409 735 m 1,0,-1
 489 656 l 1,1,-1
 409 571 l 1,2,-1
 364 656 l 1,3,-1
 409 735 l 1,0,-1
0 735 m 1,4,5
 0 735 0 735 409 735 c 1,6,7
 409 735 409 735 409 571 c 1,8,9
 409 571 409 571 164 571 c 1,10,11
 164 571 164 571 164 0 c 0,12,13
 164 -81 164 -81 82 -81 c 128,-1,14
 0 -81 0 -81 0 0 c 2,15,16
 0 0 0 0 0 735 c 1,4,5
EndSplineSet
Substitution2: "'fina' Terminal Forms in Mongolian lookup 2 subtable" j.fina
Substitution2: "'medi' Medial Forms in Mongolian lookup 1 subtable" j.medi
Substitution2: "Required Feature in Latin lookup 0 subtable" j.init
EndChar

StartChar: j.medi
Encoding: 107 -1 107
Width: 656
VWidth: 4095
GlyphClass: 2
Flags: W
LayerCount: 2
Fore
SplineSet
656 735 m 5,0,-1
 736 656 l 5,1,-1
 656 571 l 5,2,-1
 611 656 l 5,3,-1
 656 735 l 5,0,-1
656 735 m 1,4,5
 656 735 656 735 656 571 c 1,6,7
 656 571 656 571 0 571 c 1,8,9
 0 571 0 571 0 735 c 1,10,11
 0 735 0 735 656 735 c 1,4,5
-245 81 m 0,12,13
 245 81 245 81 245 571 c 2,14,15
 245 571 245 571 245 656 c 1,16,17
 245 656 245 656 409 656 c 1,18,19
 409 656 409 656 409 571 c 0,20,21
 409 243 409 243 245 82 c 128,-1,22
 81 -79 81 -79 -245 -81 c 0,23,24
 -328 -81 -328 -81 -328 0 c 256,25,26
 -328 81 -328 81 -245 81 c 0,12,13
EndSplineSet
EndChar

StartChar: c.isol
Encoding: 108 6196 108
Width: 984
VWidth: 4095
GlyphClass: 2
Flags: W
LayerCount: 2
Fore
SplineSet
984 735 m 1,0,-1
 1064 656 l 1,1,-1
 984 571 l 1,2,-1
 939 656 l 1,3,-1
 984 735 l 1,0,-1
984 735 m 1,4,5
 984 735 984 735 984 571 c 1,6,7
 984 571 984 571 0 571 c 256,8,9
 -81 571 -81 571 -81 655.5 c 128,-1,10
 -81 740 -81 740 0 735 c 257,11,12
 379 731 379 731 379 733 c 0,13,14
 379 735 379 735 984 735 c 1,4,5
0 81 m 2,15,16
 0 81 0 81 410 81 c 0,17,18
 573.05 81 573.05 81 571 245 c 1,19,20
 571 245 571 245 571 656 c 1,21,22
 571 656 571 656 735 656 c 1,23,24
 735 656 735 656 735 245 c 0,25,26
 735 -81 735 -81 409 -81 c 2,27,28
 409 -81 409 -81 0 -81 c 0,29,30
 -81 -81 -81 -81 -81 0 c 256,31,32
 -81 81 -81 81 0 81 c 2,15,16
EndSplineSet
Substitution2: "'fina' Terminal Forms in Mongolian lookup 2 subtable" c.fina
Substitution2: "'medi' Medial Forms in Mongolian lookup 1 subtable" c.medi
Substitution2: "Required Feature in Latin lookup 0 subtable" c.init
EndChar

StartChar: c.medi
Encoding: 109 -1 109
Width: 984
VWidth: 4095
GlyphClass: 2
Flags: W
LayerCount: 2
Fore
SplineSet
984 735 m 1,0,-1
 1064 656 l 1,1,-1
 984 571 l 1,2,-1
 939 656 l 1,3,-1
 984 735 l 1,0,-1
984 735 m 1,4,5
 984 735 984 735 984 571 c 1,6,7
 984 571 984 571 0 571 c 256,8,9
 -81 571 -81 571 -81 655.5 c 128,-1,10
 -81 740 -81 740 0 735 c 257,11,12
 379 731 379 731 379 733 c 0,13,14
 379 735 379 735 984 735 c 1,4,5
0 81 m 2,15,16
 0 81 0 81 410 81 c 0,17,18
 573.05 81 573.05 81 571 245 c 1,19,20
 571 245 571 245 571 656 c 1,21,22
 571 656 571 656 735 656 c 1,23,24
 735 656 735 656 735 245 c 0,25,26
 735 -81 735 -81 409 -81 c 2,27,28
 409 -81 409 -81 0 -81 c 0,29,30
 -81 -81 -81 -81 -81 0 c 256,31,32
 -81 81 -81 81 0 81 c 2,15,16
EndSplineSet
EndChar

StartChar: x.isol
Encoding: 110 6247 110
Width: 1556
VWidth: 4095
GlyphClass: 2
Flags: W
LayerCount: 2
Fore
SplineSet
0 1597 m 2,0,1
 0 1597 0 1597 0 656 c 0,2,3
 0 571 0 571 82 571 c 128,-1,4
 164 571 164 571 164 656 c 2,5,6
 164 656 164 656 164 1477 c 1,7,8
 163 1505 163 1505 201 1512 c 0,9,10
 227 1517 227 1517 256 1488 c 0,11,12
 405 1339 405 1339 744.5 989 c 128,-1,13
 1084 639 1084 639 1148 571 c 1,14,15
 1148 571 1148 571 1148 409 c 1,16,17
 1147 328 1147 328 1229.5 328 c 128,-1,18
 1312 328 1312 328 1312 409 c 2,19,20
 1312 409 1312 409 1312 571 c 257,21,22
 1312 571 1312 571 1556 571 c 1,23,24
 1556 571 1556 571 1636 656 c 1,25,26
 1636 656 1636 656 1556 735 c 1,27,28
 1556 735 1556 735 1208 735 c 1,29,30
 1199 745 1199 745 752.5 1209.5 c 128,-1,31
 306 1674 306 1674 264 1716 c 0,32,33
 195 1785 195 1785 97.5 1746 c 0,34,35
 0 1707 0 1707 0 1597 c 2,0,1
1033 81 m 4,36,37
 1033 735 1033 735 377 735 c 4,38,39
 294 735 294 735 294 653 c 132,-1,40
 294 571 294 571 377 571 c 4,41,42
 869 575 869 575 869 81 c 4,43,44
 869 0 869 0 951 0 c 132,-1,45
 1033 0 1033 0 1033 81 c 4,36,37
EndSplineSet
Substitution2: "'fina' Terminal Forms in Mongolian lookup 2 subtable" x.fina
Substitution2: "'medi' Medial Forms in Mongolian lookup 1 subtable" x.medi
Substitution2: "Required Feature in Latin lookup 0 subtable" x.init
EndChar

StartChar: x.fina
Encoding: 111 -1 111
Width: 1231
VWidth: 4095
GlyphClass: 2
Flags: W
LayerCount: 2
Fore
SplineSet
1033 81 m 4,0,1
 1033 735 1033 735 377 735 c 4,2,3
 294 735 294 735 294 653 c 132,-1,4
 294 571 294 571 377 571 c 4,5,6
 869 575 869 575 869 81 c 4,7,8
 869 0 869 0 951 0 c 132,-1,9
 1033 0 1033 0 1033 81 c 4,0,1
0 409 m 2,10,11
 0 409 0 409 0 1560 c 0,12,13
 0 1676 0 1676 97 1712 c 0,14,15
 137 1724 137 1724 178 1724 c 128,-1,16
 219 1724 219 1724 256 1692 c 1,17,18
 408 1537 408 1537 645 1269 c 1,19,20
 876 1001 876 1001 992 869 c 0,21,22
 1024 837 1024 837 1047 844 c 0,23,24
 1068 851 1068 851 1068 883 c 0,25,26
 1068 994 1068 994 1065.5 1033 c 0,27,28
 1063 1072 1063 1072 1063 1312 c 0,29,30
 1063 1393 1063 1393 1146 1392.5 c 128,-1,31
 1229 1392 1229 1392 1228 1312 c 1,32,33
 1228 1312 1228 1312 1228 696 c 0,34,35
 1228 608 1228 608 1151 584 c 0,36,37
 1075 563 1075 563 1028 617 c 1,38,39
 892 753 892 753 617 1063 c 256,40,41
 342 1375 342 1375 259 1456 c 0,42,43
 236 1484 236 1484 201 1477 c 256,44,45
 164 1470 164 1470 164 1440 c 2,46,47
 164 1440 164 1440 164 409 c 256,48,49
 164 328 164 328 82 328 c 128,-1,50
 0 328 0 328 0 409 c 2,10,11
EndSplineSet
EndChar

StartChar: x.medi
Encoding: 112 -1 112
Width: 1555
VWidth: 4095
GlyphClass: 2
Flags: W
LayerCount: 2
Fore
SplineSet
1555 735 m 5,0,-1
 1635 656 l 5,1,-1
 1555 571 l 5,2,-1
 1510 656 l 5,3,-1
 1555 735 l 5,0,-1
1033 81 m 0,4,5
 1033 735 1033 735 377 735 c 0,6,7
 294 735 294 735 294 653 c 128,-1,8
 294 571 294 571 377 571 c 0,9,10
 869 575 869 575 869 81 c 0,11,12
 869 0 869 0 951 0 c 128,-1,13
 1033 0 1033 0 1033 81 c 0,4,5
0 409 m 2,14,15
 0 409 0 409 0 1597 c 1,16,17
 -4 1708 -4 1708 97 1745 c 0,18,19
 193.144578313 1783.45783133 193.144578313 1783.45783133 256 1724 c 0,20,21
 444 1532 444 1532 797.5 1164.5 c 128,-1,22
 1151 797 1151 797 1208 735 c 1,23,24
 1208 735 1208 735 1556 735 c 1,25,26
 1556 735 1556 735 1556 571 c 1,27,28
 1556 571 1556 571 1312 571 c 257,29,30
 1312 571 1312 571 1312 409 c 0,31,32
 1312 328 1312 328 1229.5 328 c 128,-1,33
 1147 328 1147 328 1147.5 410 c 128,-1,34
 1148 492 1148 492 1148 513 c 258,35,36
 1148 513 1148 513 1148 571 c 1,37,38
 1012 707 1012 707 676 1058.5 c 128,-1,39
 340 1410 340 1410 256 1488 c 1,40,41
 233 1520 233 1520 201 1512 c 0,42,43
 164 1505 164 1505 164 1477 c 2,44,45
 164 1477 164 1477 164 409 c 0,46,47
 164 328 164 328 82 328 c 128,-1,48
 0 328 0 328 0 409 c 2,14,15
EndSplineSet
Substitution2: "Single Substitution lookup 26 subtable" glyph328
EndChar

StartChar: rh.isol
Encoding: 113 6256 113
Width: 409
VWidth: 4095
GlyphClass: 2
Flags: W
LayerCount: 2
Fore
SplineSet
409 735 m 1,0,-1
 364 656 l 1,1,-1
 409 571 l 1,2,-1
 489 656 l 1,3,-1
 409 735 l 1,0,-1
0 0 m 0,4,5
 0 -81 0 -81 82 -81 c 0,6,7
 164 -81 164 -81 164 0 c 2,8,9
 164 0 164 0 164 1312 c 0,10,11
 164 1393 164 1393 82 1392.5 c 0,12,13
 0 1392 0 1392 0 1312 c 2,14,15
 0 1312 0 1312 0 0 c 0,4,5
81 571 m 1,16,17
 81 571 81 571 409 571 c 1,18,19
 409 571 409 571 409 735 c 1,20,21
 409 735 409 735 81 735 c 1,22,23
 81 735 81 735 81 571 c 1,16,17
EndSplineSet
Substitution2: "'fina' Terminal Forms in Mongolian lookup 2 subtable" rh.fina
Substitution2: "'medi' Medial Forms in Mongolian lookup 1 subtable" rh.medi
Substitution2: "Required Feature in Latin lookup 0 subtable" rh.init
EndChar

StartChar: rh.medi
Encoding: 114 -1 114
Width: 409
VWidth: 4095
GlyphClass: 2
Flags: W
LayerCount: 2
Fore
SplineSet
409 735 m 1,0,-1
 364 656 l 1,1,-1
 409 571 l 1,2,-1
 489 656 l 1,3,-1
 409 735 l 1,0,-1
0 0 m 0,4,5
 0 -81 0 -81 82 -81 c 0,6,7
 164 -81 164 -81 164 0 c 2,8,9
 164 0 164 0 164 1312 c 0,10,11
 164 1393 164 1393 82 1392.5 c 0,12,13
 0 1392 0 1392 0 1312 c 2,14,15
 0 1312 0 1312 0 0 c 0,4,5
81 571 m 1,16,17
 81 571 81 571 409 571 c 1,18,19
 409 571 409 571 409 735 c 1,20,21
 409 735 409 735 81 735 c 1,22,23
 81 735 81 735 81 571 c 1,16,17
EndSplineSet
EndChar

StartChar: r.isol
Encoding: 115 6261 115
Width: 656
VWidth: 4095
GlyphClass: 2
Flags: W
LayerCount: 2
Fore
SplineSet
656 735 m 5,0,-1
 736 656 l 5,1,-1
 656 571 l 5,2,-1
 611 656 l 5,3,-1
 656 735 l 5,0,-1
0 735 m 1,4,5
 0 735 0 735 656 735 c 1,6,7
 656 735 656 735 656 571 c 1,8,9
 656 571 656 571 164 571 c 1,10,11
 164 571 164 571 164 0 c 0,12,13
 164 -81 164 -81 82 -81 c 128,-1,14
 0 -81 0 -81 0 0 c 2,15,16
 0 0 0 0 0 735 c 1,4,5
492 -164 m 0,17,18
 492 164 492 164 164 164 c 0,19,20
 81 164 81 164 81 246 c 128,-1,21
 81 328 81 328 164 328 c 0,22,23
 409 328 409 328 532 204 c 256,24,25
 657 79 657 79 656 -164 c 0,26,27
 656 -245 656 -245 573 -245 c 128,-1,28
 490 -245 490 -245 492 -164 c 0,17,18
EndSplineSet
Substitution2: "'fina' Terminal Forms in Mongolian lookup 2 subtable" r.fina
Substitution2: "'medi' Medial Forms in Mongolian lookup 1 subtable" r.medi
Substitution2: "Required Feature in Latin lookup 0 subtable" r.init
EndChar

StartChar: rs.fina
Encoding: 116 -1 116
Width: 1311
VWidth: 4095
GlyphClass: 2
Flags: W
LayerCount: 2
Fore
SplineSet
656 1392 m 256,0,1
 1312 1392 1312 1392 1312 735 c 2,2,3
 1312 735 1312 735 1312 654 c 128,-1,4
 1312 573 1312 573 1228 571 c 0,5,6
 1147 571 1147 571 1148 656 c 257,7,8
 1148 656 1148 656 1148 735 c 0,9,10
 1148 1230.02469136 1148 1230.02469136 656 1228 c 0,11,12
 408 1228 408 1228 289 1104 c 1,13,14
 164 984 164 984 164 735 c 2,15,16
 164 735 164 735 164 0 c 0,17,18
 164 -81 164 -81 82 -81 c 128,-1,19
 0 -81 0 -81 0 0 c 258,20,21
 0 0 0 0 0 735 c 0,22,23
 0 1392 0 1392 656 1392 c 256,0,1
164 409 m 0,24,25
 658 409 658 409 656 -81 c 0,26,27
 656 -164 656 -164 573 -164 c 128,-1,28
 490 -164 490 -164 492 -81 c 0,29,30
 492 245 492 245 164 245 c 0,31,32
 81 245 81 245 81 327 c 128,-1,33
 81 409 81 409 164 409 c 0,24,25
EndSplineSet
EndChar

StartChar: r.fina
Encoding: 117 -1 117
Width: 1312
VWidth: 4095
GlyphClass: 2
Flags: W
LayerCount: 2
Fore
SplineSet
0 735 m 1,0,1
 0 735 0 735 656 735 c 1,2,3
 656 735 656 735 656 571 c 1,4,5
 656 571 656 571 164 571 c 1,6,7
 164 571 164 571 164 0 c 0,8,9
 164 -81 164 -81 82 -81 c 128,-1,10
 0 -81 0 -81 0 0 c 2,11,12
 0 0 0 0 0 735 c 1,0,1
492 -164 m 0,13,14
 492 164 492 164 164 164 c 0,15,16
 81 164 81 164 81 246 c 128,-1,17
 81 328 81 328 164 328 c 0,18,19
 409 328 409 328 532 204 c 256,20,21
 657 79 657 79 656 -164 c 0,22,23
 656 -245 656 -245 573 -245 c 128,-1,24
 490 -245 490 -245 492 -164 c 0,13,14
1148 81 m 0,25,26
 1148 575.049382716 1148 575.049382716 656 571 c 0,27,28
 573 571 573 571 571 656 c 0,29,30
 573 735 573 735 656 735 c 0,31,32
 1312 735 1312 735 1312 81 c 0,33,34
 1312 0 1312 0 1229.5 0 c 128,-1,35
 1147 0 1147 0 1148 81 c 0,25,26
EndSplineSet
EndChar

StartChar: r.medi
Encoding: 118 -1 118
Width: 656
VWidth: 4095
GlyphClass: 2
Flags: W
LayerCount: 2
Fore
SplineSet
656 735 m 5,0,-1
 736 656 l 5,1,-1
 656 571 l 5,2,-1
 611 656 l 5,3,-1
 656 735 l 5,0,-1
0 735 m 1,4,5
 0 735 0 735 656 735 c 1,6,7
 656 735 656 735 656 571 c 1,8,9
 656 571 656 571 164 571 c 1,10,11
 164 571 164 571 164 0 c 0,12,13
 164 -81 164 -81 82 -81 c 128,-1,14
 0 -81 0 -81 0 0 c 2,15,16
 0 0 0 0 0 735 c 1,4,5
492 -164 m 0,17,18
 492 164 492 164 164 164 c 0,19,20
 81 164 81 164 81 246 c 128,-1,21
 81 328 81 328 164 328 c 0,22,23
 409 328 409 328 532 204 c 256,24,25
 657 79 657 79 656 -164 c 0,26,27
 656 -245 656 -245 573 -245 c 128,-1,28
 490 -245 490 -245 492 -164 c 0,17,18
EndSplineSet
Substitution2: "Single Substitution lookup 26 subtable" glyph333
EndChar

StartChar: y.isol
Encoding: 119 6198 119
Width: 735
VWidth: 4095
GlyphClass: 2
Flags: W
LayerCount: 2
Fore
SplineSet
735 735 m 5,0,-1
 815 656 l 5,1,-1
 735 571 l 5,2,-1
 690 656 l 5,3,-1
 735 735 l 5,0,-1
328 -245 m 1,4,5
 328 -245 328 -245 328 735 c 1,6,7
 328 735 328 735 735 735 c 1,8,9
 735 735 735 735 735 571 c 1,10,11
 735 571 735 571 492 571 c 1,12,13
 492 571 492 571 492 -245 c 256,14,15
 492 -575 492 -575 164 -571 c 1,16,17
 164 -571 164 -571 0 -571 c 0,18,19
 -81 -571 -81 -571 -81 -490 c 128,-1,20
 -81 -409 -81 -409 0 -409 c 258,21,22
 0 -409 0 -409 164.987951807 -409 c 128,-1,23
 329.975903614 -409 329.975903614 -409 328 -245 c 1,4,5
EndSplineSet
Substitution2: "Single Subs wide y-1" y.long
Substitution2: "'fina' Terminal Forms in Mongolian lookup 2 subtable" y.fina
Substitution2: "'medi' Medial Forms in Mongolian lookup 1 subtable" y.medi
Substitution2: "Required Feature in Latin lookup 0 subtable" y.init
EndChar

StartChar: y.medi
Encoding: 120 -1 120
Width: 407
VWidth: 4095
GlyphClass: 2
Flags: W
LayerCount: 2
Fore
SplineSet
407 735 m 1,0,-1
 487 656 l 1,1,-1
 407 571 l 1,2,-1
 362 656 l 1,3,-1
 407 735 l 1,0,-1
0 -245 m 1,4,5
 0 -245 0 -245 0 735 c 1,6,7
 0 735 0 735 407 735 c 1,8,9
 407 735 407 735 407 571 c 1,10,11
 407 571 407 571 164 571 c 1,12,13
 164 571 164 571 164 -245 c 256,14,15
 164 -575 164 -575 -164 -571 c 1,16,17
 -164 -571 -164 -571 -328 -571 c 0,18,19
 -409 -571 -409 -571 -409 -490 c 128,-1,20
 -409 -409 -409 -409 -328 -409 c 258,21,22
 -328 -409 -328 -409 -163.012048193 -409 c 128,-1,23
 1.97590361446 -409 1.97590361446 -409 0 -245 c 1,4,5
EndSplineSet
Substitution2: "Single Subs wide y-1" y.long
Substitution2: "Single Substitution lookup 26 subtable" glyph335
EndChar

StartChar: w.isol
Encoding: 121 6200 121
Width: 409
VWidth: 4095
GlyphClass: 2
Flags: W
LayerCount: 2
Fore
SplineSet
409 735 m 5,0,-1
 489 656 l 5,1,-1
 409 571 l 5,2,-1
 364 656 l 5,3,-1
 409 735 l 5,0,-1
0 735 m 1,4,5
 0 735 0 735 409 735 c 1,6,7
 409 735 409 735 409 571 c 1,8,9
 409 571 409 571 164 571 c 1,10,11
 164 571 164 571 164 -245 c 0,12,13
 164 -328 164 -328 204 -368 c 256,14,15
 244 -408 244 -408 326.5 -408.5 c 2,16,17
 326.5 -408.5 326.5 -408.5 409 -409 c 0,18,19
 492 -409 492 -409 492 -491 c 128,-1,20
 492 -573 492 -573 410 -572 c 2,21,22
 410 -572 410 -572 328 -571 c 1,23,24
 164 -571 164 -571 81 -492 c 1,25,26
 0 -409 0 -409 0 -245 c 2,27,28
 0 -245 0 -245 0 735 c 1,4,5
EndSplineSet
Substitution2: "'fina' Terminal Forms in Mongolian lookup 2 subtable" w.fina
Substitution2: "'medi' Medial Forms in Mongolian lookup 1 subtable" w.medi
Substitution2: "Required Feature in Latin lookup 0 subtable" w.init
EndChar

StartChar: w.medi
Encoding: 122 -1 122
Width: 409
VWidth: 4095
GlyphClass: 2
Flags: W
LayerCount: 2
Fore
SplineSet
409 735 m 5,0,-1
 489 656 l 5,1,-1
 409 571 l 5,2,-1
 364 656 l 5,3,-1
 409 735 l 5,0,-1
0 735 m 1,4,5
 0 735 0 735 409 735 c 1,6,7
 409 735 409 735 409 571 c 1,8,9
 409 571 409 571 164 571 c 1,10,11
 164 571 164 571 164 -245 c 0,12,13
 164 -328 164 -328 204 -368 c 256,14,15
 244 -408 244 -408 326.5 -408.5 c 2,16,17
 326.5 -408.5 326.5 -408.5 409 -409 c 0,18,19
 492 -409 492 -409 492 -491 c 128,-1,20
 492 -573 492 -573 410 -572 c 2,21,22
 410 -572 410 -572 328 -571 c 1,23,24
 164 -571 164 -571 81 -492 c 1,25,26
 0 -409 0 -409 0 -245 c 2,27,28
 0 -245 0 -245 0 735 c 1,4,5
EndSplineSet
Substitution2: "Single Substitution lookup 26 subtable" glyph336
EndChar

StartChar: ngs.isol
Encoding: 123 6242 123
Width: 1227
VWidth: 4095
GlyphClass: 2
Flags: W
LayerCount: 2
Fore
SplineSet
0 735 m 1,0,1
 0 735 0 735 409 735 c 0,2,3
 492 735 492 735 492 654 c 128,-1,4
 492 573 492 573 409 571 c 1,5,6
 409 571 409 571 164 571 c 1,7,8
 164 571 164 571 164 409 c 0,9,10
 164 328 164 328 82 328 c 128,-1,11
 0 328 0 328 0 410 c 2,12,13
 0 410 0 410 0 735 c 1,0,1
409 735 m 1,14,15
 409 735 409 735 571 735 c 1,16,17
 571 735 571 735 571 409 c 0,18,19
 571 328 571 328 490 328 c 128,-1,20
 409 328 409 328 409 409 c 2,21,22
 409 409 409 409 409 735 c 1,14,15
571 735 m 0,23,24
 1225.99386503 735 1225.99386503 735 1228 81 c 0,25,26
 1228 -243 1228 -243 1063 -409 c 256,27,28
 899 -573 899 -573 571 -571 c 0,29,30
 490 -571 490 -571 491 -490 c 128,-1,31
 492 -409 492 -409 571 -409 c 0,32,33
 819 -409 819 -409 943 -289 c 1,34,35
 1063 -164 1063 -164 1063 82.5 c 128,-1,36
 1063 329 1063 329 943 453 c 1,37,38
 818 573 818 573 571 571 c 0,39,40
 490 571 490 571 490 653 c 128,-1,41
 490 735 490 735 571 735 c 0,23,24
EndSplineSet
Substitution2: "'fina' Terminal Forms in Mongolian lookup 2 subtable" ngs.fina
Substitution2: "'medi' Medial Forms in Mongolian lookup 1 subtable" ngs.medi
Substitution2: "Required Feature in Latin lookup 0 subtable" ngs.init
EndChar

StartChar: ng.isol
Encoding: 124 6185 124
Width: 1227
VWidth: 4095
GlyphClass: 2
Flags: W
LayerCount: 2
Fore
SplineSet
0 735 m 1,0,1
 0 735 0 735 409 735 c 0,2,3
 492 735 492 735 492 654 c 128,-1,4
 492 573 492 573 409 571 c 1,5,6
 409 571 409 571 164 571 c 1,7,8
 164 571 164 571 164 409 c 0,9,10
 164 328 164 328 82 328 c 128,-1,11
 0 328 0 328 0 410 c 2,12,13
 0 410 0 410 0 735 c 1,0,1
409 735 m 1,14,15
 409 735 409 735 571 735 c 1,16,17
 571 735 571 735 571 0 c 0,18,19
 571 -81 571 -81 490 -81 c 128,-1,20
 409 -81 409 -81 409 0 c 2,21,22
 409 0 409 0 409 735 c 1,14,15
571 735 m 0,23,24
 1225.99386503 735 1225.99386503 735 1228 81 c 0,25,26
 1228 -243 1228 -243 1063 -409 c 256,27,28
 899 -573 899 -573 571 -571 c 0,29,30
 490 -571 490 -571 491 -490 c 128,-1,31
 492 -409 492 -409 571 -409 c 0,32,33
 819 -409 819 -409 943 -289 c 1,34,35
 1063 -164 1063 -164 1063 82.5 c 128,-1,36
 1063 329 1063 329 943 453 c 1,37,38
 818 573 818 573 571 571 c 0,39,40
 490 571 490 571 490 653 c 128,-1,41
 490 735 490 735 571 735 c 0,23,24
EndSplineSet
Substitution2: "'fina' Terminal Forms in Mongolian lookup 2 subtable" ng.fina
Substitution2: "'medi' Medial Forms in Mongolian lookup 1 subtable" ng.medi
Substitution2: "Required Feature in Latin lookup 0 subtable" ng.init
EndChar

StartChar: ng.init
Encoding: 125 -1 125
Width: 1217
VWidth: 4086
GlyphClass: 2
Flags: W
LayerCount: 2
Fore
SplineSet
0 735 m 1,0,1
 0 735 0 735 407 735 c 0,2,3
 492 735 492 735 492 658 c 0,4,5
 491 575 491 575 407 571 c 1,6,7
 407 571 407 571 163 571 c 1,8,9
 163 571 163 571 163 407 c 0,10,11
 163 329 163 329 81.5 329.5 c 128,-1,12
 0 330 0 330 0 407 c 2,13,14
 0 407 0 407 0 735 c 1,0,1
407 735 m 0,15,16
 407 1065 407 1065 533 1187 c 256,17,18
 656 1310 656 1310 903 1310 c 128,-1,19
 1150 1310 1150 1310 1266 1146 c 1,20,21
 1389 983 1389 983 1389 735 c 2,22,23
 1389 735 1389 735 1389 655 c 128,-1,24
 1389 575 1389 575 1310 571 c 1,25,26
 1227 571 1227 571 1228 658 c 257,27,28
 1228 658 1228 658 1228 735 c 0,29,30
 1228 898 1228 898 1146 1025 c 0,31,32
 1063 1148 1063 1148 901 1146 c 256,33,34
 738 1146 738 1146 656.5 1066.5 c 128,-1,35
 575 987 575 987 571 735 c 1,36,37
 571 735 571 735 571 0 c 1,38,39
 572 -79 572 -79 490.5 -79 c 128,-1,40
 409 -79 409 -79 407 0 c 257,41,42
 407 0 407 0 407 735 c 0,15,16
EndSplineSet
Substitution2: "Single Substitution lookup 24 subtable" glyph319
EndChar

StartChar: jh.isol
Encoding: 126 6263 126
Width: 409
VWidth: 4095
GlyphClass: 2
Flags: W
LayerCount: 2
Fore
SplineSet
409 735 m 5,0,-1
 489 656 l 5,1,-1
 409 571 l 5,2,-1
 364 656 l 5,3,-1
 409 735 l 5,0,-1
0 735 m 1,4,5
 0 735 0 735 409 735 c 1,6,7
 409 735 409 735 409 571 c 1,8,9
 409 571 409 571 164 571 c 1,10,11
 164 571 164 571 164 0 c 0,12,13
 164 -81 164 -81 82 -81 c 128,-1,14
 0 -81 0 -81 0 0 c 2,15,16
 0 0 0 0 0 735 c 1,4,5
412 1228 m 256,17,18
 412 1122.59459459 412 1122.59459459 335 1056 c 1,19,20
 272.72972973 984 272.72972973 984 164 984 c 256,21,22
 116 984 116 984 67 1000 c 1,23,24
 -26.2465437788 1044.50403226 -26.2465437788 1044.50403226 -64 1137 c 0,25,26
 -85 1181 -85 1181 -83 1228 c 256,27,28
 -83 1322.83870968 -83 1322.83870968 -12 1403 c 1,29,30
 73.5625 1477 73.5625 1477 164 1477 c 256,31,32
 263.3125 1477 263.3125 1477 335 1403 c 0,33,34
 415.92 1322.08 415.92 1322.08 412 1228 c 256,17,18
245 1228 m 256,35,36
 245 1278.05882353 245 1278.05882353 196 1304 c 256,37,38
 180 1310 180 1310 164 1312 c 256,39,40
 136 1312 136 1312 104 1288 c 1,41,42
 81 1248.57142857 81 1248.57142857 81 1228 c 256,43,44
 81 1179.6875 81 1179.6875 132 1151 c 1,45,46
 148 1147 148 1147 164 1148 c 256,47,48
 206.285714286 1148 206.285714286 1148 220 1172 c 1,49,50
 245 1186.58333333 245 1186.58333333 245 1228 c 256,35,36
EndSplineSet
Substitution2: "'fina' Terminal Forms in Mongolian lookup 2 subtable" jh.fina
Substitution2: "'medi' Medial Forms in Mongolian lookup 1 subtable" jh.medi
Substitution2: "Required Feature in Latin lookup 0 subtable" jh.init
EndChar

StartChar: jh.medi
Encoding: 127 -1 127
Width: 409
VWidth: 4095
GlyphClass: 2
Flags: W
LayerCount: 2
Fore
SplineSet
409 735 m 5,0,-1
 489 656 l 5,1,-1
 409 571 l 5,2,-1
 364 656 l 5,3,-1
 409 735 l 5,0,-1
0 735 m 1,4,5
 0 735 0 735 409 735 c 1,6,7
 409 735 409 735 409 571 c 1,8,9
 409 571 409 571 164 571 c 1,10,11
 164 571 164 571 164 0 c 0,12,13
 164 -81 164 -81 82 -81 c 128,-1,14
 0 -81 0 -81 0 0 c 2,15,16
 0 0 0 0 0 735 c 1,4,5
412 1228 m 256,17,18
 412 1122.59459459 412 1122.59459459 335 1056 c 1,19,20
 272.72972973 984 272.72972973 984 164 984 c 256,21,22
 116 984 116 984 67 1000 c 1,23,24
 -26.2465437788 1044.50403226 -26.2465437788 1044.50403226 -64 1137 c 0,25,26
 -85 1181 -85 1181 -83 1228 c 256,27,28
 -83 1322.83870968 -83 1322.83870968 -12 1403 c 1,29,30
 73.5625 1477 73.5625 1477 164 1477 c 256,31,32
 263.3125 1477 263.3125 1477 335 1403 c 0,33,34
 415.92 1322.08 415.92 1322.08 412 1228 c 256,17,18
245 1228 m 256,35,36
 245 1278.05882353 245 1278.05882353 196 1304 c 256,37,38
 180 1310 180 1310 164 1312 c 256,39,40
 136 1312 136 1312 104 1288 c 1,41,42
 81 1248.57142857 81 1248.57142857 81 1228 c 256,43,44
 81 1179.6875 81 1179.6875 132 1151 c 1,45,46
 148 1147 148 1147 164 1148 c 256,47,48
 206.285714286 1148 206.285714286 1148 220 1172 c 1,49,50
 245 1186.58333333 245 1186.58333333 245 1228 c 256,35,36
EndSplineSet
Substitution2: "Single Substitution lookup 26 subtable" glyph323
EndChar

StartChar: ch.isol
Encoding: 128 6257 128
Width: 982
VWidth: 4095
GlyphClass: 2
Flags: W
LayerCount: 2
Fore
SplineSet
984 735 m 1,0,1
 984 735 984 735 1063 656 c 257,2,3
 1063 656 1063 656 984 571 c 1,4,5
 984 571 984 571 0 571 c 256,6,7
 -81 571 -81 571 -81 654 c 128,-1,8
 -81 737 -81 737 0 735 c 257,9,10
 0 735 0 735 984 735 c 1,0,1
0 81 m 2,11,12
 0 81 0 81 410 81 c 0,13,14
 573.05 81 573.05 81 571 245 c 1,15,16
 571 245 571 245 571 656 c 1,17,18
 571 656 571 656 735 656 c 1,19,20
 735 656 735 656 735 245 c 0,21,22
 735 -81 735 -81 409 -81 c 2,23,24
 409 -81 409 -81 0 -81 c 0,25,26
 -81 -81 -81 -81 -81 0 c 256,27,28
 -81 81 -81 81 0 81 c 2,11,12
899 1228 m 256,29,30
 899 1117.40540541 899 1117.40540541 828 1056 c 1,31,32
 765.72972973 984 765.72972973 984 656 984 c 256,33,34
 608 984 608 984 560 1000 c 1,35,36
 465.511520737 1045.09677419 465.511520737 1045.09677419 428 1137 c 0,37,38
 407 1181 407 1181 409 1228 c 256,39,40
 409 1322.83870968 409 1322.83870968 480 1403 c 1,41,42
 565.5625 1477 565.5625 1477 656 1477 c 256,43,44
 756.3125 1477 756.3125 1477 828 1403 c 0,45,46
 899 1332 899 1332 899 1228 c 256,29,30
735 1228 m 256,47,48
 735 1302.125 735 1302.125 656 1312 c 256,49,50
 628 1312 628 1312 596 1288 c 1,51,52
 573.727272727 1249.81818182 573.727272727 1249.81818182 571 1228 c 256,53,54
 571 1212 571 1212 580 1195 c 256,55,56
 591.170984456 1169.46632124 591.170984456 1169.46632124 624 1151 c 1,57,58
 640 1147 640 1147 656 1148 c 256,59,60
 698.285714286 1148 698.285714286 1148 712 1172 c 1,61,62
 735 1185.41666667 735 1185.41666667 735 1228 c 256,47,48
EndSplineSet
Substitution2: "'fina' Terminal Forms in Mongolian lookup 2 subtable" ch.fina
Substitution2: "'medi' Medial Forms in Mongolian lookup 1 subtable" ch.medi
Substitution2: "Required Feature in Latin lookup 0 subtable" ch.init
EndChar

StartChar: ch.medi
Encoding: 129 -1 129
Width: 982
VWidth: 4095
GlyphClass: 2
Flags: W
LayerCount: 2
Fore
SplineSet
984 735 m 1,0,1
 984 735 984 735 1063 656 c 257,2,3
 1063 656 1063 656 984 571 c 1,4,5
 984 571 984 571 0 571 c 256,6,7
 -81 571 -81 571 -81 654 c 128,-1,8
 -81 737 -81 737 0 735 c 257,9,10
 0 735 0 735 984 735 c 1,0,1
0 81 m 2,11,12
 0 81 0 81 410 81 c 0,13,14
 573.05 81 573.05 81 571 245 c 1,15,16
 571 245 571 245 571 656 c 1,17,18
 571 656 571 656 735 656 c 1,19,20
 735 656 735 656 735 245 c 0,21,22
 735 -81 735 -81 409 -81 c 2,23,24
 409 -81 409 -81 0 -81 c 0,25,26
 -81 -81 -81 -81 -81 0 c 256,27,28
 -81 81 -81 81 0 81 c 2,11,12
899 1228 m 256,29,30
 899 1117.40540541 899 1117.40540541 828 1056 c 1,31,32
 765.72972973 984 765.72972973 984 656 984 c 256,33,34
 608 984 608 984 560 1000 c 1,35,36
 465.511520737 1045.09677419 465.511520737 1045.09677419 428 1137 c 0,37,38
 407 1181 407 1181 409 1228 c 256,39,40
 409 1322.83870968 409 1322.83870968 480 1403 c 1,41,42
 565.5625 1477 565.5625 1477 656 1477 c 256,43,44
 756.3125 1477 756.3125 1477 828 1403 c 0,45,46
 899 1332 899 1332 899 1228 c 256,29,30
735 1228 m 256,47,48
 735 1302.125 735 1302.125 656 1312 c 256,49,50
 628 1312 628 1312 596 1288 c 1,51,52
 573.727272727 1249.81818182 573.727272727 1249.81818182 571 1228 c 256,53,54
 571 1212 571 1212 580 1195 c 256,55,56
 591.170984456 1169.46632124 591.170984456 1169.46632124 624 1151 c 1,57,58
 640 1147 640 1147 656 1148 c 256,59,60
 698.285714286 1148 698.285714286 1148 712 1172 c 1,61,62
 735 1185.41666667 735 1185.41666667 735 1228 c 256,47,48
EndSplineSet
EndChar

StartChar: glyph277
Encoding: 130 -1 130
Width: 409
VWidth: 4095
GlyphClass: 2
Flags: W
LayerCount: 2
Fore
SplineSet
0 735 m 1,0,1
 0 735 0 735 409 735 c 1,2,3
 409 735 409 735 489 656 c 261,4,5
 489 656 489 656 409 571 c 1,6,7
 409 571 409 571 164 571 c 1,8,9
 164 571 164 571 164 409 c 0,10,11
 164 328 164 328 82 328 c 128,-1,12
 0 328 0 328 0 410 c 2,13,14
 0 410 0 410 0 735 c 1,0,1
EndSplineSet
EndChar

StartChar: glyph278
Encoding: 131 -1 131
Width: 409
VWidth: 4095
GlyphClass: 2
Flags: W
LayerCount: 2
Fore
SplineSet
0 735 m 1,0,1
 0 735 0 735 409 735 c 1,2,3
 409 735 409 735 489 656 c 261,4,5
 489 656 489 656 409 571 c 1,6,7
 409 571 409 571 164 571 c 1,8,9
 164 571 164 571 164 409 c 0,10,11
 164 328 164 328 82 328 c 128,-1,12
 0 328 0 328 0 410 c 2,13,14
 0 410 0 410 0 735 c 1,0,1
EndSplineSet
EndChar

StartChar: glyph279
Encoding: 132 -1 132
Width: 409
VWidth: 4095
GlyphClass: 2
Flags: W
LayerCount: 2
Fore
SplineSet
0 735 m 5,0,1
 0 735 0 735 409 735 c 5,2,3
 449 696 449 696 489 656 c 261,4,5
 489 656 489 656 409 571 c 5,6,7
 409 571 409 571 164 571 c 5,8,9
 164 571 164 571 164 0 c 4,10,11
 164 -81 164 -81 82 -81 c 132,-1,12
 0 -81 0 -81 0 0 c 6,13,14
 0 0 0 0 0 735 c 5,0,1
EndSplineSet
EndChar

StartChar: glyph280
Encoding: 133 -1 133
Width: 899
VWidth: 4095
GlyphClass: 2
Flags: W
LayerCount: 2
Fore
SplineSet
899 735 m 5,0,-1
 979 656 l 5,1,-1
 899 571 l 5,2,-1
 854 656 l 5,3,-1
 899 735 l 5,0,-1
656 492 m 0,4,5
 656 164 656 164 328 164 c 256,6,7
 0 164 0 164 0 492 c 1,8,9
 4 492 4 492 2 581.5 c 128,-1,10
 0 671 0 671 0 735 c 1,11,12
 0 735 0 735 899 735 c 1,13,14
 899 735 899 735 899 571 c 1,15,16
 899 571 899 571 656 571 c 257,17,18
 656 571 656 571 656 492 c 0,4,5
492 492 m 1,19,20
 492 492 492 492 492 571 c 1,21,22
 492 571 492 571 164 571 c 1,23,24
 164 571 164 571 164 490 c 0,25,26
 164 328 164 328 328.976190476 328 c 128,-1,27
 493.952380952 328 493.952380952 328 492 492 c 1,19,20
EndSplineSet
EndChar

StartChar: glyph281
Encoding: 134 -1 134
Width: 654
VWidth: 4095
GlyphClass: 2
Flags: W
LayerCount: 2
Fore
SplineSet
656 492 m 0,0,1
 656 164 656 164 328 164 c 256,2,3
 0 164 0 164 0 492 c 1,4,5
 4 492 4 492 2 581.5 c 128,-1,6
 0 671 0 671 0 735 c 1,7,8
 0 735 0 735 656 735 c 1,9,10
 656 735 656 735 656 492 c 0,0,1
492 492 m 1,11,12
 492 492 492 492 492 571 c 1,13,14
 492 571 492 571 164 571 c 1,15,16
 164 571 164 571 164 490 c 0,17,18
 164 328 164 328 328.976190476 328 c 128,-1,19
 493.952380952 328 493.952380952 328 492 492 c 1,11,12
EndSplineSet
EndChar

StartChar: glyph282
Encoding: 135 -1 135
Width: 899
VWidth: 4095
GlyphClass: 2
Flags: W
LayerCount: 2
Fore
SplineSet
899 735 m 5,0,-1
 979 656 l 5,1,-1
 899 571 l 5,2,-1
 854 656 l 5,3,-1
 899 735 l 5,0,-1
656 492 m 0,4,5
 656 164 656 164 328 164 c 256,6,7
 0 164 0 164 0 492 c 1,8,9
 4 492 4 492 2 581.5 c 128,-1,10
 0 671 0 671 0 735 c 1,11,12
 0 735 0 735 899 735 c 1,13,14
 899 735 899 735 899 571 c 1,15,16
 899 571 899 571 656 571 c 257,17,18
 656 571 656 571 656 492 c 0,4,5
492 492 m 1,19,20
 492 492 492 492 492 571 c 1,21,22
 492 571 492 571 164 571 c 1,23,24
 164 571 164 571 164 490 c 0,25,26
 164 328 164 328 328.976190476 328 c 128,-1,27
 493.952380952 328 493.952380952 328 492 492 c 1,19,20
EndSplineSet
EndChar

StartChar: glyph283
Encoding: 136 -1 136
Width: 654
VWidth: 4095
GlyphClass: 2
Flags: W
LayerCount: 2
Fore
SplineSet
656 492 m 0,0,1
 656 164 656 164 328 164 c 256,2,3
 0 164 0 164 0 492 c 1,4,5
 4 492 4 492 2 581.5 c 128,-1,6
 0 671 0 671 0 735 c 1,7,8
 0 735 0 735 656 735 c 1,9,10
 656 735 656 735 656 492 c 0,0,1
492 492 m 1,11,12
 492 492 492 492 492 571 c 1,13,14
 492 571 492 571 164 571 c 1,15,16
 164 571 164 571 164 490 c 0,17,18
 164 328 164 328 328.976190476 328 c 128,-1,19
 493.952380952 328 493.952380952 328 492 492 c 1,11,12
204 1759 m 256,20,21
 204 1718.25 204 1718.25 168 1671 c 0,22,23
 152 1655 152 1655 127 1648 c 1,24,25
 104 1636 104 1636 82 1636 c 128,-1,26
 60 1636 60 1636 37 1648 c 1,27,28
 14 1655 14 1655 -4 1671 c 1,29,30
 -20 1692 -20 1692 -32 1715 c 0,31,32
 -39 1736 -39 1736 -40 1759 c 256,33,34
 -40 1842.12 -40 1842.12 37 1876 c 1,35,36
 85 1890.60869565 85 1890.60869565 127 1876 c 0,37,38
 150 1864 150 1864 168 1849 c 256,39,40
 201.84 1815.16 201.84 1815.16 204 1759 c 256,20,21
EndSplineSet
EndChar

StartChar: glyph284
Encoding: 137 -1 137
Width: 899
VWidth: 4095
GlyphClass: 2
Flags: W
LayerCount: 2
Fore
SplineSet
899 735 m 5,0,-1
 979 656 l 5,1,-1
 899 571 l 5,2,-1
 854 656 l 5,3,-1
 899 735 l 5,0,-1
328 164 m 256,4,5
 0 164 0 164 0 492 c 2,6,7
 0 492 0 492 0 735 c 1,8,9
 0 735 0 735 899 735 c 1,10,11
 899 735 899 735 899 571 c 1,12,13
 899 571 899 571 656 571 c 1,14,15
 656 326 656 326 573 245 c 128,-1,16
 490 164 490 164 328 164 c 256,4,5
492 492 m 1,17,18
 492 492 492 492 492 571 c 1,19,20
 492 571 492 571 164 571 c 1,21,22
 164 571 164 571 164 490 c 0,23,24
 164 328 164 328 328.976190476 328 c 128,-1,25
 493.952380952 328 493.952380952 328 492 492 c 1,17,18
492 656 m 1,26,27
 492 656 492 656 656 656 c 1,28,29
 656 656 656 656 656 0 c 256,30,31
 656 -81 656 -81 573 -81 c 128,-1,32
 490 -81 490 -81 492 0 c 257,33,34
 492 0 492 0 492 656 c 1,26,27
EndSplineSet
EndChar

StartChar: glyph285
Encoding: 138 -1 138
Width: 1311
VWidth: 4095
GlyphClass: 2
Flags: W
LayerCount: 2
Fore
SplineSet
328 164 m 256,0,1
 0 164 0 164 0 492 c 2,2,3
 0 492 0 492 0 735 c 1,4,5
 0 735 0 735 656 735 c 128,-1,6
 1312 735 1312 735 1312 81 c 0,7,8
 1312 0 1312 0 1229.5 0 c 128,-1,9
 1147 0 1147 0 1148 81 c 0,10,11
 1148 575.049382716 1148 575.049382716 656 571 c 1,12,13
 656 571 656 571 656 492 c 0,14,15
 656 164 656 164 328 164 c 256,0,1
492 492 m 1,16,17
 492 492 492 492 492 571 c 1,18,19
 492 571 492 571 164 571 c 1,20,21
 164 571 164 571 164 490 c 0,22,23
 164 328 164 328 328.976190476 328 c 128,-1,24
 493.952380952 328 493.952380952 328 492 492 c 1,16,17
EndSplineSet
EndChar

StartChar: glyph286
Encoding: 139 -1 139
Width: 490
VWidth: 4095
GlyphClass: 2
Flags: W
LayerCount: 2
Fore
SplineSet
656 492 m 0,0,1
 656 164 656 164 328 164 c 256,2,3
 0 164 0 164 0 492 c 1,4,5
 4 492 4 492 4 613.5 c 128,-1,6
 4 735 4 735 0 735 c 1,7,8
 0 1063 0 1063 164 1228 c 256,9,10
 328 1392 328 1392 573.5 1392 c 128,-1,11
 819 1392 819 1392 984 1228 c 256,12,13
 1148 1064 1148 1064 1148 735 c 2,14,15
 1148 735 1148 735 1148 654 c 128,-1,16
 1148 573 1148 573 1063 571 c 0,17,18
 982 571 982 571 984 656 c 1,19,20
 984 656 984 656 984 735 c 0,21,22
 984 983 984 983 859.5 1106 c 128,-1,23
 735 1229 735 1229 571 1228 c 256,24,25
 407 1228 407 1228 289 1104 c 1,26,27
 164 984 164 984 164 735 c 1,28,29
 164 735 164 735 656 735 c 1,30,31
 656 735 656 735 656 492 c 0,0,1
492 492 m 1,32,33
 492 492 492 492 492 571 c 1,34,35
 492 571 492 571 164 571 c 1,36,37
 164 571 164 571 164 490 c 0,38,39
 164 328 164 328 328.976190476 328 c 128,-1,40
 493.952380952 328 493.952380952 328 492 492 c 1,32,33
EndSplineSet
EndChar

StartChar: glyph287
Encoding: 140 -1 140
Width: 490
VWidth: 4095
GlyphClass: 2
Flags: W
LayerCount: 2
Fore
SplineSet
656 492 m 0,0,1
 656 164 656 164 328 164 c 256,2,3
 0 164 0 164 0 492 c 1,4,5
 4 492 4 492 4 613.5 c 128,-1,6
 4 735 4 735 0 735 c 1,7,8
 0 1063 0 1063 164 1228 c 256,9,10
 328 1392 328 1392 573.5 1392 c 128,-1,11
 819 1392 819 1392 984 1228 c 256,12,13
 1148 1064 1148 1064 1148 735 c 2,14,15
 1148 735 1148 735 1148 654 c 128,-1,16
 1148 573 1148 573 1063 571 c 0,17,18
 982 571 982 571 984 656 c 1,19,20
 984 656 984 656 984 735 c 0,21,22
 984 983 984 983 859.5 1106 c 128,-1,23
 735 1229 735 1229 571 1228 c 256,24,25
 407 1228 407 1228 289 1104 c 1,26,27
 164 984 164 984 164 735 c 1,28,29
 164 735 164 735 656 735 c 1,30,31
 656 735 656 735 656 492 c 0,0,1
492 492 m 1,32,33
 492 492 492 492 492 571 c 1,34,35
 492 571 492 571 164 571 c 1,36,37
 164 571 164 571 164 490 c 0,38,39
 164 328 164 328 328.976190476 328 c 128,-1,40
 493.952380952 328 493.952380952 328 492 492 c 1,32,33
EndSplineSet
EndChar

StartChar: glyph288
Encoding: 141 -1 141
Width: 490
VWidth: 4095
GlyphClass: 2
Flags: W
LayerCount: 2
Fore
SplineSet
656 492 m 0,0,1
 656 164 656 164 328 164 c 256,2,3
 0 164 0 164 0 492 c 1,4,5
 4 492 4 492 4 613.5 c 128,-1,6
 4 735 4 735 0 735 c 1,7,8
 0 1063 0 1063 164 1228 c 256,9,10
 328 1392 328 1392 573.5 1392 c 128,-1,11
 819 1392 819 1392 984 1228 c 256,12,13
 1148 1064 1148 1064 1148 735 c 2,14,15
 1148 735 1148 735 1148 654 c 128,-1,16
 1148 573 1148 573 1063 571 c 0,17,18
 982 571 982 571 984 656 c 1,19,20
 984 656 984 656 984 735 c 0,21,22
 984 983 984 983 859.5 1106 c 128,-1,23
 735 1229 735 1229 571 1228 c 256,24,25
 407 1228 407 1228 289 1104 c 1,26,27
 164 984 164 984 164 735 c 1,28,29
 164 735 164 735 656 735 c 1,30,31
 656 735 656 735 656 492 c 0,0,1
492 492 m 1,32,33
 492 492 492 492 492 571 c 1,34,35
 492 571 492 571 164 571 c 1,36,37
 164 571 164 571 164 490 c 0,38,39
 164 328 164 328 328.976190476 328 c 128,-1,40
 493.952380952 328 493.952380952 328 492 492 c 1,32,33
492 1312 m 1,41,42
 492 1312 492 1312 656 1312 c 1,43,44
 656 1312 656 1312 656 1063 c 0,45,46
 656 982 656 982 573 983 c 128,-1,47
 490 984 490 984 491 1066 c 128,-1,48
 492 1148 492 1148 492 1312 c 1,41,42
EndSplineSet
EndChar

StartChar: glyph289
Encoding: 142 -1 142
Width: 490
VWidth: 4095
GlyphClass: 2
Flags: W
LayerCount: 2
Fore
SplineSet
656 492 m 0,0,1
 656 164 656 164 328 164 c 256,2,3
 0 164 0 164 0 492 c 1,4,5
 4 492 4 492 4 613.5 c 128,-1,6
 4 735 4 735 0 735 c 1,7,8
 0 1063 0 1063 164 1228 c 256,9,10
 328 1392 328 1392 573.5 1392 c 128,-1,11
 819 1392 819 1392 984 1228 c 256,12,13
 1148 1064 1148 1064 1148 735 c 2,14,15
 1148 735 1148 735 1148 654 c 128,-1,16
 1148 573 1148 573 1063 571 c 0,17,18
 982 571 982 571 984 656 c 1,19,20
 984 656 984 656 984 735 c 0,21,22
 984 983 984 983 859.5 1106 c 128,-1,23
 735 1229 735 1229 571 1228 c 256,24,25
 407 1228 407 1228 289 1104 c 1,26,27
 164 984 164 984 164 735 c 1,28,29
 164 735 164 735 656 735 c 1,30,31
 656 735 656 735 656 492 c 0,0,1
492 492 m 1,32,33
 492 492 492 492 492 571 c 1,34,35
 492 571 492 571 164 571 c 1,36,37
 164 571 164 571 164 490 c 0,38,39
 164 328 164 328 328.976190476 328 c 128,-1,40
 493.952380952 328 493.952380952 328 492 492 c 1,32,33
492 1312 m 1,41,42
 492 1312 492 1312 656 1312 c 1,43,44
 656 1312 656 1312 656 1063 c 0,45,46
 656 982 656 982 573 983 c 128,-1,47
 490 984 490 984 491 1066 c 128,-1,48
 492 1148 492 1148 492 1312 c 1,41,42
EndSplineSet
EndChar

StartChar: glyph290
Encoding: 143 -1 143
Width: 820
VWidth: 4095
GlyphClass: 2
Flags: W
LayerCount: 2
Fore
SplineSet
820 735 m 5,0,-1
 900 656 l 5,1,-1
 820 571 l 5,2,-1
 775 656 l 5,3,-1
 820 735 l 5,0,-1
0 735 m 5,4,5
 0 735 0 735 820 735 c 5,6,7
 820 735 820 735 820 571 c 5,8,9
 820 571 820 571 571 571 c 5,10,11
 571 571 571 571 571 409 c 4,12,13
 571 328 571 328 490 328 c 132,-1,14
 409 328 409 328 409 410 c 6,15,16
 409 410 409 410 409 571 c 5,17,18
 409 571 409 571 164 571 c 5,19,20
 164 571 164 571 164 409 c 4,21,22
 164 328 164 328 82 328 c 132,-1,23
 0 328 0 328 0 410 c 6,24,25
 0 410 0 410 0 735 c 5,4,5
EndSplineSet
EndChar

StartChar: glyph291
Encoding: 144 -1 144
Width: 820
VWidth: 4095
GlyphClass: 2
Flags: W
LayerCount: 2
Fore
SplineSet
820 735 m 5,0,-1
 900 656 l 5,1,-1
 820 571 l 5,2,-1
 775 656 l 5,3,-1
 820 735 l 5,0,-1
0 735 m 1,4,5
 0 735 0 735 820 735 c 1,6,7
 820 735 820 735 820 571 c 1,8,9
 820 571 820 571 164 571 c 1,10,11
 164 571 164 571 164 409 c 0,12,13
 164 328 164 328 82 328 c 128,-1,14
 0 328 0 328 0 410 c 2,15,16
 0 410 0 410 0 735 c 1,4,5
204 40 m 256,17,18
 204 -12 204 -12 168 -48 c 256,19,20
 152 -64 152 -64 127 -72 c 1,21,22
 83.9565217391 -94.4574669187 83.9565217391 -94.4574669187 37 -72 c 1,23,24
 -7.26680244399 -58.5274949084 -7.26680244399 -58.5274949084 -32 -7 c 0,25,26
 -39 16 -39 16 -40 40 c 256,27,28
 -40 91 -40 91 -4 127 c 256,29,30
 33 164 33 164 68.5 164 c 0,31,32
 156.347826087 164 156.347826087 164 196 88 c 1,33,34
 203 65 203 65 204 40 c 256,17,18
617 40 m 256,35,36
 617 0.5625 617 0.5625 580 -48 c 1,37,38
 532.041189931 -84.5400457666 532.041189931 -84.5400457666 492 -83 c 256,39,40
 413.2 -83 413.2 -83 379 -7 c 0,41,42
 367 16 367 16 368 40 c 256,43,44
 368 117 368 117 444 155 c 1,45,46
 467 162 467 162 492 164 c 256,47,48
 538.375 164 538.375 164 580 127 c 0,49,50
 614.916666667 92.0833333333 614.916666667 92.0833333333 617 40 c 256,35,36
EndSplineSet
EndChar

StartChar: glyph292
Encoding: 145 -1 145
Width: 820
VWidth: 4095
GlyphClass: 2
Flags: W
LayerCount: 2
Fore
SplineSet
820 735 m 5,0,-1
 900 656 l 5,1,-1
 820 571 l 5,2,-1
 775 656 l 5,3,-1
 820 735 l 5,0,-1
0 735 m 1,4,5
 0 735 0 735 820 735 c 1,6,7
 820 735 820 735 820 571 c 1,8,9
 820 571 820 571 571 571 c 1,10,11
 571 571 571 571 571 409 c 0,12,13
 571 328 571 328 490 328 c 128,-1,14
 409 328 409 328 409 410 c 2,15,16
 409 410 409 410 409 571 c 1,17,18
 409 571 409 571 164 571 c 1,19,20
 164 571 164 571 164 409 c 0,21,22
 164 328 164 328 82 328 c 128,-1,23
 0 328 0 328 0 410 c 2,24,25
 0 410 0 410 0 735 c 1,4,5
204 40 m 256,26,27
 204 -12 204 -12 168 -48 c 256,28,29
 152 -64 152 -64 127 -72 c 1,30,31
 83.9565217391 -94.4574669187 83.9565217391 -94.4574669187 37 -72 c 1,32,33
 -7.26680244399 -58.5274949084 -7.26680244399 -58.5274949084 -32 -7 c 0,34,35
 -39 16 -39 16 -40 40 c 256,36,37
 -40 91 -40 91 -4 127 c 256,38,39
 33 164 33 164 68.5 164 c 0,40,41
 156.347826087 164 156.347826087 164 196 88 c 1,42,43
 203 65 203 65 204 40 c 256,26,27
617 40 m 256,44,45
 617 0.5625 617 0.5625 580 -48 c 1,46,47
 532.041189931 -84.5400457666 532.041189931 -84.5400457666 492 -83 c 256,48,49
 413.2 -83 413.2 -83 379 -7 c 0,50,51
 367 16 367 16 368 40 c 256,52,53
 368 117 368 117 444 155 c 1,54,55
 467 162 467 162 492 164 c 256,56,57
 538.375 164 538.375 164 580 127 c 0,58,59
 614.916666667 92.0833333333 614.916666667 92.0833333333 617 40 c 256,44,45
EndSplineSet
EndChar

StartChar: glyph293
Encoding: 146 -1 146
Width: 820
VWidth: 4095
GlyphClass: 2
Flags: W
LayerCount: 2
Fore
SplineSet
820 735 m 5,0,-1
 900 656 l 5,1,-1
 820 571 l 5,2,-1
 775 656 l 5,3,-1
 820 735 l 5,0,-1
0 735 m 1,4,5
 0 735 0 735 820 735 c 1,6,7
 820 735 820 735 820 571 c 1,8,9
 820 571 820 571 571 571 c 1,10,11
 571 571 571 571 571 409 c 0,12,13
 571 328 571 328 490 328 c 128,-1,14
 409 328 409 328 409 410 c 2,15,16
 409 410 409 410 409 571 c 1,17,18
 409 571 409 571 164 571 c 1,19,20
 164 571 164 571 164 409 c 0,21,22
 164 328 164 328 82 328 c 128,-1,23
 0 328 0 328 0 410 c 2,24,25
 0 410 0 410 0 735 c 1,4,5
604 1225 m 1,26,27
 580.448598131 1151.40186916 580.448598131 1151.40186916 492 1148 c 256,28,29
 406.72 1148 406.72 1148 379 1225 c 1,30,31
 367 1246 367 1246 368 1269 c 256,32,33
 368 1346 368 1346 444 1384 c 1,34,35
 467 1391 467 1391 492 1392 c 256,36,37
 515 1392 515 1392 541 1384 c 1,38,39
 591.076923077 1355.38461538 591.076923077 1355.38461538 604 1315 c 1,40,41
 616 1292 616 1292 617 1269 c 256,42,43
 617 1246 617 1246 604 1225 c 1,26,27
EndSplineSet
EndChar

StartChar: glyph294
Encoding: 147 -1 147
Width: 820
VWidth: 4095
GlyphClass: 2
Flags: W
LayerCount: 2
Fore
SplineSet
820 735 m 5,0,-1
 900 656 l 5,1,-1
 820 571 l 5,2,-1
 775 656 l 5,3,-1
 820 735 l 5,0,-1
0 735 m 1,4,5
 0 735 0 735 820 735 c 1,6,7
 820 735 820 735 820 571 c 1,8,9
 820 571 820 571 571 571 c 1,10,11
 571 571 571 571 571 409 c 0,12,13
 571 328 571 328 490 328 c 128,-1,14
 409 328 409 328 409 410 c 2,15,16
 409 410 409 410 409 571 c 1,17,18
 409 571 409 571 164 571 c 1,19,20
 164 571 164 571 164 409 c 0,21,22
 164 328 164 328 82 328 c 128,-1,23
 0 328 0 328 0 410 c 2,24,25
 0 410 0 410 0 735 c 1,4,5
735 1228 m 1,26,27
 735 1117.40540541 735 1117.40540541 664 1056 c 1,28,29
 632 1019 632 1019 584 1003 c 1,30,31
 540 982 540 982 492 984 c 256,32,33
 386.054054054 984 386.054054054 984 316 1056 c 0,34,35
 284 1088 284 1088 264 1137 c 256,36,37
 225.1390625 1225.825 225.1390625 1225.825 264 1324 c 256,38,39
 285 1372 285 1372 316 1403 c 0,40,41
 401.5625 1477 401.5625 1477 492 1477 c 256,42,43
 590 1477 590 1477 664 1403 c 1,44,45
 739.568478261 1337.64347826 739.568478261 1337.64347826 735 1228 c 1,26,27
571 1228 m 256,46,47
 571 1266.76923077 571 1266.76923077 548 1288 c 1,48,49
 537.303370787 1306.33707865 537.303370787 1306.33707865 492 1312 c 257,50,51
 456 1312 456 1312 432 1288 c 1,52,53
 409 1248.57142857 409 1248.57142857 409 1228 c 256,54,55
 409 1179.6875 409 1179.6875 460 1151 c 1,56,57
 476 1147 476 1147 492 1148 c 256,58,59
 534.285714286 1148 534.285714286 1148 548 1172 c 1,60,61
 560 1184 560 1184 568 1195 c 1,62,63
 571 1212 571 1212 571 1228 c 256,46,47
EndSplineSet
EndChar

StartChar: glyph295
Encoding: 148 -1 148
Width: 654
VWidth: 4095
GlyphClass: 2
Flags: W
LayerCount: 2
Fore
SplineSet
656 1392 m 256,0,1
 1312 1392 1312 1392 1312 735 c 2,2,3
 1312 735 1312 735 1312 654 c 128,-1,4
 1312 573 1312 573 1228 571 c 0,5,6
 1147 571 1147 571 1148 656 c 257,7,8
 1148 656 1148 656 1148 735 c 0,9,10
 1148 1230.02469136 1148 1230.02469136 656 1228 c 0,11,12
 408 1228 408 1228 289 1104 c 1,13,14
 164 984 164 984 164 735 c 2,15,16
 164 735 164 735 164 0 c 0,17,18
 164 -81 164 -81 82 -81 c 128,-1,19
 0 -81 0 -81 0 0 c 258,20,21
 0 0 0 0 0 735 c 0,22,23
 0 1392 0 1392 656 1392 c 256,0,1
492 0 m 0,24,25
 492 328 492 328 164 328 c 0,26,27
 81 328 81 328 81 410 c 128,-1,28
 81 492 81 492 164 492 c 0,29,30
 409 492 409 492 532 368 c 256,31,32
 657 243 657 243 656 0 c 0,33,34
 656 -81 656 -81 573 -81 c 128,-1,35
 490 -81 490 -81 492 0 c 0,24,25
EndSplineSet
EndChar

StartChar: glyph296
Encoding: 149 -1 149
Width: 654
VWidth: 4095
GlyphClass: 2
Flags: W
LayerCount: 2
Fore
SplineSet
656 1392 m 256,0,1
 1312 1392 1312 1392 1312 735 c 2,2,3
 1312 735 1312 735 1312 654 c 128,-1,4
 1312 573 1312 573 1228 571 c 0,5,6
 1147 571 1147 571 1148 656 c 257,7,8
 1148 656 1148 656 1148 735 c 0,9,10
 1148 1230.02469136 1148 1230.02469136 656 1228 c 0,11,12
 408 1228 408 1228 289 1104 c 1,13,14
 164 984 164 984 164 735 c 2,15,16
 164 735 164 735 164 0 c 0,17,18
 164 -81 164 -81 82 -81 c 128,-1,19
 0 -81 0 -81 0 0 c 258,20,21
 0 0 0 0 0 735 c 0,22,23
 0 1392 0 1392 656 1392 c 256,0,1
EndSplineSet
EndChar

StartChar: glyph297
Encoding: 150 -1 150
Width: 654
VWidth: 4095
GlyphClass: 2
Flags: W
LayerCount: 2
Fore
SplineSet
656 1392 m 256,0,1
 1312 1392 1312 1392 1312 735 c 2,2,3
 1312 735 1312 735 1312 654 c 128,-1,4
 1312 573 1312 573 1228 571 c 0,5,6
 1147 571 1147 571 1148 656 c 257,7,8
 1148 656 1148 656 1148 735 c 0,9,10
 1148 1230.02469136 1148 1230.02469136 656 1228 c 0,11,12
 408 1228 408 1228 289 1104 c 1,13,14
 164 984 164 984 164 735 c 2,15,16
 164 735 164 735 164 0 c 0,17,18
 164 -81 164 -81 82 -81 c 128,-1,19
 0 -81 0 -81 0 0 c 258,20,21
 0 0 0 0 0 735 c 0,22,23
 0 1392 0 1392 656 1392 c 256,0,1
779 1759 m 256,24,25
 779 1716.9375 779 1716.9375 744 1671 c 1,26,27
 698.0625 1636 698.0625 1636 656 1636 c 256,28,29
 633 1636 633 1636 608 1648 c 0,30,31
 585 1655 585 1655 568 1671 c 0,32,33
 536 1713 536 1713 532 1759 c 257,34,35
 532 1805.8 532 1805.8 568 1849 c 257,36,37
 600.791666667 1881.79166667 600.791666667 1881.79166667 656 1884 c 256,38,39
 679 1884 679 1884 705 1876 c 1,40,41
 726 1864 726 1864 744 1849 c 0,42,43
 760 1833 760 1833 768 1808 c 1,44,45
 780 1785 780 1785 779 1759 c 256,24,25
492 0 m 0,46,47
 492 328 492 328 164 328 c 0,48,49
 81 328 81 328 81 410 c 128,-1,50
 81 492 81 492 164 492 c 0,51,52
 409 492 409 492 532 368 c 256,53,54
 657 243 657 243 656 0 c 0,55,56
 656 -81 656 -81 573 -81 c 128,-1,57
 490 -81 490 -81 492 0 c 0,46,47
EndSplineSet
EndChar

StartChar: glyph298
Encoding: 151 -1 151
Width: 654
VWidth: 4095
GlyphClass: 2
Flags: W
LayerCount: 2
Fore
SplineSet
656 1392 m 256,0,1
 1312 1392 1312 1392 1312 735 c 2,2,3
 1312 735 1312 735 1312 654 c 128,-1,4
 1312 573 1312 573 1228 571 c 0,5,6
 1147 571 1147 571 1148 656 c 257,7,8
 1148 656 1148 656 1148 735 c 0,9,10
 1148 1230.02469136 1148 1230.02469136 656 1228 c 0,11,12
 408 1228 408 1228 289 1104 c 1,13,14
 164 984 164 984 164 735 c 2,15,16
 164 735 164 735 164 0 c 0,17,18
 164 -81 164 -81 82 -81 c 128,-1,19
 0 -81 0 -81 0 0 c 258,20,21
 0 0 0 0 0 735 c 0,22,23
 0 1392 0 1392 656 1392 c 256,0,1
779 1759 m 256,24,25
 779 1716.9375 779 1716.9375 744 1671 c 1,26,27
 698.0625 1636 698.0625 1636 656 1636 c 256,28,29
 633 1636 633 1636 608 1648 c 0,30,31
 585 1655 585 1655 568 1671 c 0,32,33
 536 1713 536 1713 532 1759 c 257,34,35
 532 1805.8 532 1805.8 568 1849 c 257,36,37
 600.791666667 1881.79166667 600.791666667 1881.79166667 656 1884 c 256,38,39
 679 1884 679 1884 705 1876 c 1,40,41
 726 1864 726 1864 744 1849 c 0,42,43
 760 1833 760 1833 768 1808 c 1,44,45
 780 1785 780 1785 779 1759 c 256,24,25
EndSplineSet
EndChar

StartChar: glyph299
Encoding: 152 -1 152
Width: 654
VWidth: 4095
GlyphClass: 2
Flags: W
LayerCount: 2
Fore
SplineSet
656 1392 m 256,0,1
 1312 1392 1312 1392 1312 735 c 2,2,3
 1312 735 1312 735 1312 654 c 128,-1,4
 1312 573 1312 573 1228 571 c 0,5,6
 1147 571 1147 571 1148 656 c 257,7,8
 1148 656 1148 656 1148 735 c 0,9,10
 1148 1230.02469136 1148 1230.02469136 656 1228 c 0,11,12
 408 1228 408 1228 289 1104 c 1,13,14
 164 984 164 984 164 735 c 2,15,16
 164 735 164 735 164 0 c 0,17,18
 164 -81 164 -81 82 -81 c 128,-1,19
 0 -81 0 -81 0 0 c 258,20,21
 0 0 0 0 0 735 c 0,22,23
 0 1392 0 1392 656 1392 c 256,0,1
492 0 m 0,24,25
 492 328 492 328 164 328 c 0,26,27
 81 328 81 328 81 410 c 128,-1,28
 81 492 81 492 164 492 c 0,29,30
 409 492 409 492 532 368 c 256,31,32
 657 243 657 243 656 0 c 0,33,34
 656 -81 656 -81 573 -81 c 128,-1,35
 490 -81 490 -81 492 0 c 0,24,25
899 1720 m 256,36,37
 899 1615 899 1615 827.5 1543.5 c 0,38,39
 756 1472 756 1472 656 1472 c 256,40,41
 566.4 1472 566.4 1472 480 1544 c 1,42,43
 405.191381496 1630.49746515 405.191381496 1630.49746515 409 1720 c 256,44,45
 409 1817.41935484 409 1817.41935484 480 1893 c 0,46,47
 558.08 1971.08 558.08 1971.08 656 1967 c 257,48,49
 760.529411765 1967 760.529411765 1967 828 1893 c 1,50,51
 899 1831.59459459 899 1831.59459459 899 1720 c 256,36,37
735 1720 m 256,52,53
 735 1762.61538462 735 1762.61538462 712 1775 c 1,54,55
 697.416666667 1800 697.416666667 1800 656 1800 c 256,56,57
 607 1800 607 1800 580 1752 c 256,58,59
 573 1736 573 1736 571 1720 c 256,60,61
 571 1693.33333333 571 1693.33333333 596 1660 c 1,62,63
 634.88 1637.32 634.88 1637.32 656 1636 c 256,64,65
 706 1636 706 1636 732 1688 c 1,66,67
 735 1704 735 1704 735 1720 c 256,52,53
EndSplineSet
EndChar

StartChar: glyph300
Encoding: 153 -1 153
Width: 654
VWidth: 4095
GlyphClass: 2
Flags: W
LayerCount: 2
Fore
SplineSet
656 1392 m 256,0,1
 1312 1392 1312 1392 1312 735 c 2,2,3
 1312 735 1312 735 1312 654 c 128,-1,4
 1312 573 1312 573 1228 571 c 0,5,6
 1147 571 1147 571 1148 656 c 257,7,8
 1148 656 1148 656 1148 735 c 0,9,10
 1148 1230.02469136 1148 1230.02469136 656 1228 c 0,11,12
 408 1228 408 1228 289 1104 c 1,13,14
 164 984 164 984 164 735 c 2,15,16
 164 735 164 735 164 0 c 0,17,18
 164 -81 164 -81 82 -81 c 128,-1,19
 0 -81 0 -81 0 0 c 258,20,21
 0 0 0 0 0 735 c 0,22,23
 0 1392 0 1392 656 1392 c 256,0,1
899 1720 m 256,24,25
 899 1615 899 1615 827.5 1543.5 c 0,26,27
 756 1472 756 1472 656 1472 c 256,28,29
 566.4 1472 566.4 1472 480 1544 c 1,30,31
 405.191381496 1630.49746515 405.191381496 1630.49746515 409 1720 c 256,32,33
 409 1817.41935484 409 1817.41935484 480 1893 c 0,34,35
 558.08 1971.08 558.08 1971.08 656 1967 c 257,36,37
 760.529411765 1967 760.529411765 1967 828 1893 c 1,38,39
 899 1831.59459459 899 1831.59459459 899 1720 c 256,24,25
735 1720 m 256,40,41
 735 1762.61538462 735 1762.61538462 712 1775 c 1,42,43
 697.416666667 1800 697.416666667 1800 656 1800 c 256,44,45
 607 1800 607 1800 580 1752 c 256,46,47
 573 1736 573 1736 571 1720 c 256,48,49
 571 1693.33333333 571 1693.33333333 596 1660 c 1,50,51
 634.88 1637.32 634.88 1637.32 656 1636 c 256,52,53
 706 1636 706 1636 732 1688 c 1,54,55
 735 1704 735 1704 735 1720 c 256,40,41
EndSplineSet
EndChar

StartChar: glyph301
Encoding: 154 -1 154
Width: 654
VWidth: 4095
GlyphClass: 2
Flags: W
LayerCount: 2
Fore
SplineSet
656 1392 m 256,0,1
 1312 1392 1312 1392 1312 735 c 2,2,3
 1312 735 1312 735 1312 654 c 128,-1,4
 1312 573 1312 573 1228 571 c 0,5,6
 1147 571 1147 571 1148 656 c 257,7,8
 1148 656 1148 656 1148 735 c 0,9,10
 1148 1230.02469136 1148 1230.02469136 656 1228 c 0,11,12
 408 1228 408 1228 289 1104 c 1,13,14
 164 984 164 984 164 735 c 2,15,16
 164 735 164 735 164 0 c 0,17,18
 164 -81 164 -81 82 -81 c 128,-1,19
 0 -81 0 -81 0 0 c 258,20,21
 0 0 0 0 0 735 c 0,22,23
 0 1392 0 1392 656 1392 c 256,0,1
492 0 m 0,24,25
 492 328 492 328 164 328 c 0,26,27
 81 328 81 328 81 410 c 128,-1,28
 81 492 81 492 164 492 c 0,29,30
 409 492 409 492 532 368 c 256,31,32
 657 243 657 243 656 0 c 0,33,34
 656 -81 656 -81 573 -81 c 128,-1,35
 490 -81 490 -81 492 0 c 0,24,25
EndSplineSet
Substitution2: "Single Substitution lookup 26 subtable" glyph313
EndChar

StartChar: glyph302
Encoding: 155 -1 155
Width: 654
VWidth: 4095
GlyphClass: 2
Flags: W
LayerCount: 2
Fore
SplineSet
656 1392 m 256,0,1
 1312 1392 1312 1392 1312 735 c 2,2,3
 1312 735 1312 735 1312 654 c 128,-1,4
 1312 573 1312 573 1228 571 c 0,5,6
 1147 571 1147 571 1148 656 c 257,7,8
 1148 656 1148 656 1148 735 c 0,9,10
 1148 1230.02469136 1148 1230.02469136 656 1228 c 0,11,12
 408 1228 408 1228 289 1104 c 1,13,14
 164 984 164 984 164 735 c 2,15,16
 164 735 164 735 164 0 c 0,17,18
 164 -81 164 -81 82 -81 c 128,-1,19
 0 -81 0 -81 0 0 c 258,20,21
 0 0 0 0 0 735 c 0,22,23
 0 1392 0 1392 656 1392 c 256,0,1
EndSplineSet
Substitution2: "Single Substitution lookup 26 subtable" glyph314
EndChar

StartChar: glyph303
Encoding: 156 -1 156
Width: 654
VWidth: 4095
GlyphClass: 2
Flags: W
LayerCount: 2
Fore
SplineSet
656 1392 m 256,0,1
 1312 1392 1312 1392 1312 735 c 2,2,3
 1312 735 1312 735 1312 654 c 128,-1,4
 1312 573 1312 573 1228 571 c 0,5,6
 1147 571 1147 571 1148 656 c 257,7,8
 1148 656 1148 656 1148 735 c 0,9,10
 1148 1230.02469136 1148 1230.02469136 656 1228 c 0,11,12
 408 1228 408 1228 289 1104 c 1,13,14
 164 984 164 984 164 735 c 2,15,16
 164 735 164 735 164 0 c 0,17,18
 164 -81 164 -81 82 -81 c 128,-1,19
 0 -81 0 -81 0 0 c 258,20,21
 0 0 0 0 0 735 c 0,22,23
 0 1392 0 1392 656 1392 c 256,0,1
779 1759 m 256,24,25
 779 1716.9375 779 1716.9375 744 1671 c 1,26,27
 698.0625 1636 698.0625 1636 656 1636 c 256,28,29
 633 1636 633 1636 608 1648 c 0,30,31
 585 1655 585 1655 568 1671 c 0,32,33
 536 1713 536 1713 532 1759 c 257,34,35
 532 1805.8 532 1805.8 568 1849 c 257,36,37
 600.791666667 1881.79166667 600.791666667 1881.79166667 656 1884 c 256,38,39
 679 1884 679 1884 705 1876 c 1,40,41
 726 1864 726 1864 744 1849 c 0,42,43
 760 1833 760 1833 768 1808 c 1,44,45
 780 1785 780 1785 779 1759 c 256,24,25
492 0 m 0,46,47
 492 328 492 328 164 328 c 0,48,49
 81 328 81 328 81 410 c 128,-1,50
 81 492 81 492 164 492 c 0,51,52
 409 492 409 492 532 368 c 256,53,54
 657 243 657 243 656 0 c 0,55,56
 656 -81 656 -81 573 -81 c 128,-1,57
 490 -81 490 -81 492 0 c 0,46,47
EndSplineSet
Substitution2: "Single Substitution lookup 26 subtable" glyph315
EndChar

StartChar: glyph304
Encoding: 157 -1 157
Width: 654
VWidth: 4095
GlyphClass: 2
Flags: W
LayerCount: 2
Fore
SplineSet
656 1392 m 256,0,1
 1312 1392 1312 1392 1312 735 c 2,2,3
 1312 735 1312 735 1312 654 c 128,-1,4
 1312 573 1312 573 1228 571 c 0,5,6
 1147 571 1147 571 1148 656 c 257,7,8
 1148 656 1148 656 1148 735 c 0,9,10
 1148 1230.02469136 1148 1230.02469136 656 1228 c 0,11,12
 408 1228 408 1228 289 1104 c 1,13,14
 164 984 164 984 164 735 c 2,15,16
 164 735 164 735 164 0 c 0,17,18
 164 -81 164 -81 82 -81 c 128,-1,19
 0 -81 0 -81 0 0 c 258,20,21
 0 0 0 0 0 735 c 0,22,23
 0 1392 0 1392 656 1392 c 256,0,1
779 1759 m 256,24,25
 779 1716.9375 779 1716.9375 744 1671 c 1,26,27
 698.0625 1636 698.0625 1636 656 1636 c 256,28,29
 633 1636 633 1636 608 1648 c 0,30,31
 585 1655 585 1655 568 1671 c 0,32,33
 536 1713 536 1713 532 1759 c 257,34,35
 532 1805.8 532 1805.8 568 1849 c 257,36,37
 600.791666667 1881.79166667 600.791666667 1881.79166667 656 1884 c 256,38,39
 679 1884 679 1884 705 1876 c 1,40,41
 726 1864 726 1864 744 1849 c 0,42,43
 760 1833 760 1833 768 1808 c 1,44,45
 780 1785 780 1785 779 1759 c 256,24,25
EndSplineSet
Substitution2: "Single Substitution lookup 26 subtable" glyph316
EndChar

StartChar: glyph305
Encoding: 158 -1 158
Width: 654
VWidth: 4095
GlyphClass: 2
Flags: W
LayerCount: 2
Fore
SplineSet
656 1392 m 256,0,1
 1312 1392 1312 1392 1312 735 c 2,2,3
 1312 735 1312 735 1312 654 c 128,-1,4
 1312 573 1312 573 1228 571 c 0,5,6
 1147 571 1147 571 1148 656 c 257,7,8
 1148 656 1148 656 1148 735 c 0,9,10
 1148 1230.02469136 1148 1230.02469136 656 1228 c 0,11,12
 408 1228 408 1228 289 1104 c 1,13,14
 164 984 164 984 164 735 c 2,15,16
 164 735 164 735 164 0 c 0,17,18
 164 -81 164 -81 82 -81 c 128,-1,19
 0 -81 0 -81 0 0 c 258,20,21
 0 0 0 0 0 735 c 0,22,23
 0 1392 0 1392 656 1392 c 256,0,1
492 0 m 0,24,25
 492 328 492 328 164 328 c 0,26,27
 81 328 81 328 81 410 c 128,-1,28
 81 492 81 492 164 492 c 0,29,30
 409 492 409 492 532 368 c 256,31,32
 657 243 657 243 656 0 c 0,33,34
 656 -81 656 -81 573 -81 c 128,-1,35
 490 -81 490 -81 492 0 c 0,24,25
899 1720 m 256,36,37
 899 1615 899 1615 827.5 1543.5 c 0,38,39
 756 1472 756 1472 656 1472 c 256,40,41
 566.4 1472 566.4 1472 480 1544 c 1,42,43
 405.191381496 1630.49746515 405.191381496 1630.49746515 409 1720 c 256,44,45
 409 1817.41935484 409 1817.41935484 480 1893 c 0,46,47
 558.08 1971.08 558.08 1971.08 656 1967 c 257,48,49
 760.529411765 1967 760.529411765 1967 828 1893 c 1,50,51
 899 1831.59459459 899 1831.59459459 899 1720 c 256,36,37
735 1720 m 256,52,53
 735 1762.61538462 735 1762.61538462 712 1775 c 1,54,55
 697.416666667 1800 697.416666667 1800 656 1800 c 256,56,57
 607 1800 607 1800 580 1752 c 256,58,59
 573 1736 573 1736 571 1720 c 256,60,61
 571 1693.33333333 571 1693.33333333 596 1660 c 1,62,63
 634.88 1637.32 634.88 1637.32 656 1636 c 256,64,65
 706 1636 706 1636 732 1688 c 1,66,67
 735 1704 735 1704 735 1720 c 256,52,53
EndSplineSet
Substitution2: "Single Substitution lookup 26 subtable" glyph317
EndChar

StartChar: glyph306
Encoding: 159 -1 159
Width: 654
VWidth: 4095
GlyphClass: 2
Flags: W
LayerCount: 2
Fore
SplineSet
656 1392 m 256,0,1
 1312 1392 1312 1392 1312 735 c 2,2,3
 1312 735 1312 735 1312 654 c 128,-1,4
 1312 573 1312 573 1228 571 c 0,5,6
 1147 571 1147 571 1148 656 c 257,7,8
 1148 656 1148 656 1148 735 c 0,9,10
 1148 1230.02469136 1148 1230.02469136 656 1228 c 0,11,12
 408 1228 408 1228 289 1104 c 1,13,14
 164 984 164 984 164 735 c 2,15,16
 164 735 164 735 164 0 c 0,17,18
 164 -81 164 -81 82 -81 c 128,-1,19
 0 -81 0 -81 0 0 c 258,20,21
 0 0 0 0 0 735 c 0,22,23
 0 1392 0 1392 656 1392 c 256,0,1
899 1720 m 256,24,25
 899 1615 899 1615 827.5 1543.5 c 0,26,27
 756 1472 756 1472 656 1472 c 256,28,29
 566.4 1472 566.4 1472 480 1544 c 1,30,31
 405.191381496 1630.49746515 405.191381496 1630.49746515 409 1720 c 256,32,33
 409 1817.41935484 409 1817.41935484 480 1893 c 0,34,35
 558.08 1971.08 558.08 1971.08 656 1967 c 257,36,37
 760.529411765 1967 760.529411765 1967 828 1893 c 1,38,39
 899 1831.59459459 899 1831.59459459 899 1720 c 256,24,25
735 1720 m 256,40,41
 735 1762.61538462 735 1762.61538462 712 1775 c 1,42,43
 697.416666667 1800 697.416666667 1800 656 1800 c 256,44,45
 607 1800 607 1800 580 1752 c 256,46,47
 573 1736 573 1736 571 1720 c 256,48,49
 571 1693.33333333 571 1693.33333333 596 1660 c 1,50,51
 634.88 1637.32 634.88 1637.32 656 1636 c 256,52,53
 706 1636 706 1636 732 1688 c 1,54,55
 735 1704 735 1704 735 1720 c 256,40,41
EndSplineSet
Substitution2: "Single Substitution lookup 26 subtable" glyph318
EndChar

StartChar: glyph307
Encoding: 160 -1 160
Width: 1146
VWidth: 4095
GlyphClass: 2
Flags: W
LayerCount: 2
Fore
SplineSet
656 1392 m 256,0,1
 1312 1392 1312 1392 1312 735 c 2,2,3
 1312 735 1312 735 1312 654 c 128,-1,4
 1312 573 1312 573 1228 571 c 0,5,6
 1147 571 1147 571 1148 656 c 257,7,8
 1148 656 1148 656 1148 735 c 0,9,10
 1148 1230.02469136 1148 1230.02469136 656 1228 c 0,11,12
 408 1228 408 1228 289 1104 c 1,13,14
 164 984 164 984 164 735 c 2,15,16
 164 735 164 735 164 0 c 0,17,18
 164 -81 164 -81 82 -81 c 128,-1,19
 0 -81 0 -81 0 0 c 258,20,21
 0 0 0 0 0 735 c 0,22,23
 0 1392 0 1392 656 1392 c 256,0,1
492 0 m 0,24,25
 492 328 492 328 164 328 c 0,26,27
 81 328 81 328 81 410 c 128,-1,28
 81 492 81 492 164 492 c 0,29,30
 409 492 409 492 532 368 c 256,31,32
 657 243 657 243 656 0 c 0,33,34
 656 -81 656 -81 573 -81 c 128,-1,35
 490 -81 490 -81 492 0 c 0,24,25
EndSplineSet
Substitution2: "Single Substitution lookup 25 subtable" glyph313
EndChar

StartChar: glyph308
Encoding: 161 -1 161
Width: 1146
VWidth: 4095
GlyphClass: 2
Flags: W
LayerCount: 2
Fore
SplineSet
656 1392 m 256,0,1
 1312 1392 1312 1392 1312 735 c 2,2,3
 1312 735 1312 735 1312 654 c 128,-1,4
 1312 573 1312 573 1228 571 c 0,5,6
 1147 571 1147 571 1148 656 c 257,7,8
 1148 656 1148 656 1148 735 c 0,9,10
 1148 1230.02469136 1148 1230.02469136 656 1228 c 0,11,12
 408 1228 408 1228 289 1104 c 1,13,14
 164 984 164 984 164 735 c 2,15,16
 164 735 164 735 164 0 c 0,17,18
 164 -81 164 -81 82 -81 c 128,-1,19
 0 -81 0 -81 0 0 c 258,20,21
 0 0 0 0 0 735 c 0,22,23
 0 1392 0 1392 656 1392 c 256,0,1
EndSplineSet
Substitution2: "Single Substitution lookup 25 subtable" glyph314
EndChar

StartChar: glyph309
Encoding: 162 -1 162
Width: 1146
VWidth: 4095
GlyphClass: 2
Flags: W
LayerCount: 2
Fore
SplineSet
656 1392 m 256,0,1
 1312 1392 1312 1392 1312 735 c 2,2,3
 1312 735 1312 735 1312 654 c 128,-1,4
 1312 573 1312 573 1228 571 c 0,5,6
 1147 571 1147 571 1148 656 c 257,7,8
 1148 656 1148 656 1148 735 c 0,9,10
 1148 1230.02469136 1148 1230.02469136 656 1228 c 0,11,12
 408 1228 408 1228 289 1104 c 1,13,14
 164 984 164 984 164 735 c 2,15,16
 164 735 164 735 164 0 c 0,17,18
 164 -81 164 -81 82 -81 c 128,-1,19
 0 -81 0 -81 0 0 c 258,20,21
 0 0 0 0 0 735 c 0,22,23
 0 1392 0 1392 656 1392 c 256,0,1
779 1759 m 256,24,25
 779 1716.9375 779 1716.9375 744 1671 c 1,26,27
 698.0625 1636 698.0625 1636 656 1636 c 256,28,29
 633 1636 633 1636 608 1648 c 0,30,31
 585 1655 585 1655 568 1671 c 0,32,33
 536 1713 536 1713 532 1759 c 257,34,35
 532 1805.8 532 1805.8 568 1849 c 257,36,37
 600.791666667 1881.79166667 600.791666667 1881.79166667 656 1884 c 256,38,39
 679 1884 679 1884 705 1876 c 1,40,41
 726 1864 726 1864 744 1849 c 0,42,43
 760 1833 760 1833 768 1808 c 1,44,45
 780 1785 780 1785 779 1759 c 256,24,25
492 0 m 0,46,47
 492 328 492 328 164 328 c 0,48,49
 81 328 81 328 81 410 c 128,-1,50
 81 492 81 492 164 492 c 0,51,52
 409 492 409 492 532 368 c 256,53,54
 657 243 657 243 656 0 c 0,55,56
 656 -81 656 -81 573 -81 c 128,-1,57
 490 -81 490 -81 492 0 c 0,46,47
EndSplineSet
Substitution2: "Single Substitution lookup 25 subtable" glyph315
EndChar

StartChar: glyph310
Encoding: 163 -1 163
Width: 1146
VWidth: 4095
GlyphClass: 2
Flags: W
LayerCount: 2
Fore
SplineSet
656 1392 m 256,0,1
 1312 1392 1312 1392 1312 735 c 2,2,3
 1312 735 1312 735 1312 654 c 128,-1,4
 1312 573 1312 573 1228 571 c 0,5,6
 1147 571 1147 571 1148 656 c 257,7,8
 1148 656 1148 656 1148 735 c 0,9,10
 1148 1230.02469136 1148 1230.02469136 656 1228 c 0,11,12
 408 1228 408 1228 289 1104 c 1,13,14
 164 984 164 984 164 735 c 2,15,16
 164 735 164 735 164 0 c 0,17,18
 164 -81 164 -81 82 -81 c 128,-1,19
 0 -81 0 -81 0 0 c 258,20,21
 0 0 0 0 0 735 c 0,22,23
 0 1392 0 1392 656 1392 c 256,0,1
779 1759 m 256,24,25
 779 1716.9375 779 1716.9375 744 1671 c 1,26,27
 698.0625 1636 698.0625 1636 656 1636 c 256,28,29
 633 1636 633 1636 608 1648 c 0,30,31
 585 1655 585 1655 568 1671 c 0,32,33
 536 1713 536 1713 532 1759 c 257,34,35
 532 1805.8 532 1805.8 568 1849 c 257,36,37
 600.791666667 1881.79166667 600.791666667 1881.79166667 656 1884 c 256,38,39
 679 1884 679 1884 705 1876 c 1,40,41
 726 1864 726 1864 744 1849 c 0,42,43
 760 1833 760 1833 768 1808 c 1,44,45
 780 1785 780 1785 779 1759 c 256,24,25
EndSplineSet
Substitution2: "Single Substitution lookup 25 subtable" glyph316
EndChar

StartChar: glyph311
Encoding: 164 -1 164
Width: 1146
VWidth: 4095
GlyphClass: 2
Flags: W
LayerCount: 2
Fore
SplineSet
656 1392 m 256,0,1
 1312 1392 1312 1392 1312 735 c 2,2,3
 1312 735 1312 735 1312 654 c 128,-1,4
 1312 573 1312 573 1228 571 c 0,5,6
 1147 571 1147 571 1148 656 c 257,7,8
 1148 656 1148 656 1148 735 c 0,9,10
 1148 1230.02469136 1148 1230.02469136 656 1228 c 0,11,12
 408 1228 408 1228 289 1104 c 1,13,14
 164 984 164 984 164 735 c 2,15,16
 164 735 164 735 164 0 c 0,17,18
 164 -81 164 -81 82 -81 c 128,-1,19
 0 -81 0 -81 0 0 c 258,20,21
 0 0 0 0 0 735 c 0,22,23
 0 1392 0 1392 656 1392 c 256,0,1
492 0 m 0,24,25
 492 328 492 328 164 328 c 0,26,27
 81 328 81 328 81 410 c 128,-1,28
 81 492 81 492 164 492 c 0,29,30
 409 492 409 492 532 368 c 256,31,32
 657 243 657 243 656 0 c 0,33,34
 656 -81 656 -81 573 -81 c 128,-1,35
 490 -81 490 -81 492 0 c 0,24,25
899 1720 m 256,36,37
 899 1615 899 1615 827.5 1543.5 c 0,38,39
 756 1472 756 1472 656 1472 c 256,40,41
 566.4 1472 566.4 1472 480 1544 c 1,42,43
 405.191381496 1630.49746515 405.191381496 1630.49746515 409 1720 c 256,44,45
 409 1817.41935484 409 1817.41935484 480 1893 c 0,46,47
 558.08 1971.08 558.08 1971.08 656 1967 c 257,48,49
 760.529411765 1967 760.529411765 1967 828 1893 c 1,50,51
 899 1831.59459459 899 1831.59459459 899 1720 c 256,36,37
735 1720 m 256,52,53
 735 1762.61538462 735 1762.61538462 712 1775 c 1,54,55
 697.416666667 1800 697.416666667 1800 656 1800 c 256,56,57
 607 1800 607 1800 580 1752 c 256,58,59
 573 1736 573 1736 571 1720 c 256,60,61
 571 1693.33333333 571 1693.33333333 596 1660 c 1,62,63
 634.88 1637.32 634.88 1637.32 656 1636 c 256,64,65
 706 1636 706 1636 732 1688 c 1,66,67
 735 1704 735 1704 735 1720 c 256,52,53
EndSplineSet
Substitution2: "Single Substitution lookup 25 subtable" glyph317
EndChar

StartChar: glyph312
Encoding: 165 -1 165
Width: 1146
VWidth: 4095
GlyphClass: 2
Flags: W
LayerCount: 2
Fore
SplineSet
656 1392 m 256,0,1
 1312 1392 1312 1392 1312 735 c 2,2,3
 1312 735 1312 735 1312 654 c 128,-1,4
 1312 573 1312 573 1228 571 c 0,5,6
 1147 571 1147 571 1148 656 c 257,7,8
 1148 656 1148 656 1148 735 c 0,9,10
 1148 1230.02469136 1148 1230.02469136 656 1228 c 0,11,12
 408 1228 408 1228 289 1104 c 1,13,14
 164 984 164 984 164 735 c 2,15,16
 164 735 164 735 164 0 c 0,17,18
 164 -81 164 -81 82 -81 c 128,-1,19
 0 -81 0 -81 0 0 c 258,20,21
 0 0 0 0 0 735 c 0,22,23
 0 1392 0 1392 656 1392 c 256,0,1
899 1720 m 256,24,25
 899 1615 899 1615 827.5 1543.5 c 0,26,27
 756 1472 756 1472 656 1472 c 256,28,29
 566.4 1472 566.4 1472 480 1544 c 1,30,31
 405.191381496 1630.49746515 405.191381496 1630.49746515 409 1720 c 256,32,33
 409 1817.41935484 409 1817.41935484 480 1893 c 0,34,35
 558.08 1971.08 558.08 1971.08 656 1967 c 257,36,37
 760.529411765 1967 760.529411765 1967 828 1893 c 1,38,39
 899 1831.59459459 899 1831.59459459 899 1720 c 256,24,25
735 1720 m 256,40,41
 735 1762.61538462 735 1762.61538462 712 1775 c 1,42,43
 697.416666667 1800 697.416666667 1800 656 1800 c 256,44,45
 607 1800 607 1800 580 1752 c 256,46,47
 573 1736 573 1736 571 1720 c 256,48,49
 571 1693.33333333 571 1693.33333333 596 1660 c 1,50,51
 634.88 1637.32 634.88 1637.32 656 1636 c 256,52,53
 706 1636 706 1636 732 1688 c 1,54,55
 735 1704 735 1704 735 1720 c 256,40,41
EndSplineSet
Substitution2: "Single Substitution lookup 25 subtable" glyph318
EndChar

StartChar: glyph313
Encoding: 166 -1 166
Width: 654
VWidth: 4095
GlyphClass: 2
Flags: W
LayerCount: 2
Fore
SplineSet
656 1392 m 256,0,1
 1312 1392 1312 1392 1312 735 c 2,2,3
 1312 735 1312 735 1312 654 c 128,-1,4
 1312 573 1312 573 1228 571 c 0,5,6
 1147 571 1147 571 1148 656 c 257,7,8
 1148 656 1148 656 1148 735 c 0,9,10
 1148 1230.02469136 1148 1230.02469136 656 1228 c 0,11,12
 408 1228 408 1228 289 1104 c 1,13,14
 164 984 164 984 164 735 c 2,15,16
 164 735 164 735 164 0 c 0,17,18
 164 -81 164 -81 82 -81 c 128,-1,19
 0 -81 0 -81 0 0 c 258,20,21
 0 0 0 0 0 735 c 0,22,23
 0 1392 0 1392 656 1392 c 256,0,1
492 0 m 0,24,25
 492 328 492 328 164 328 c 0,26,27
 81 328 81 328 81 410 c 128,-1,28
 81 492 81 492 164 492 c 0,29,30
 409 492 409 492 532 368 c 256,31,32
 657 243 657 243 656 0 c 0,33,34
 656 -81 656 -81 573 -81 c 128,-1,35
 490 -81 490 -81 492 0 c 0,24,25
EndSplineSet
EndChar

StartChar: glyph314
Encoding: 167 -1 167
Width: 654
VWidth: 4095
GlyphClass: 2
Flags: W
LayerCount: 2
Fore
SplineSet
656 1392 m 256,0,1
 1312 1392 1312 1392 1312 735 c 2,2,3
 1312 735 1312 735 1312 654 c 128,-1,4
 1312 573 1312 573 1228 571 c 0,5,6
 1147 571 1147 571 1148 656 c 257,7,8
 1148 656 1148 656 1148 735 c 0,9,10
 1148 1230.02469136 1148 1230.02469136 656 1228 c 0,11,12
 408 1228 408 1228 289 1104 c 1,13,14
 164 984 164 984 164 735 c 2,15,16
 164 735 164 735 164 0 c 0,17,18
 164 -81 164 -81 82 -81 c 128,-1,19
 0 -81 0 -81 0 0 c 258,20,21
 0 0 0 0 0 735 c 0,22,23
 0 1392 0 1392 656 1392 c 256,0,1
EndSplineSet
EndChar

StartChar: glyph315
Encoding: 168 -1 168
Width: 654
VWidth: 4095
GlyphClass: 2
Flags: W
LayerCount: 2
Fore
SplineSet
656 1392 m 256,0,1
 1312 1392 1312 1392 1312 735 c 2,2,3
 1312 735 1312 735 1312 654 c 128,-1,4
 1312 573 1312 573 1228 571 c 0,5,6
 1147 571 1147 571 1148 656 c 257,7,8
 1148 656 1148 656 1148 735 c 0,9,10
 1148 1230.02469136 1148 1230.02469136 656 1228 c 0,11,12
 408 1228 408 1228 289 1104 c 1,13,14
 164 984 164 984 164 735 c 2,15,16
 164 735 164 735 164 0 c 0,17,18
 164 -81 164 -81 82 -81 c 128,-1,19
 0 -81 0 -81 0 0 c 258,20,21
 0 0 0 0 0 735 c 0,22,23
 0 1392 0 1392 656 1392 c 256,0,1
779 1759 m 256,24,25
 779 1716.9375 779 1716.9375 744 1671 c 1,26,27
 698.0625 1636 698.0625 1636 656 1636 c 256,28,29
 633 1636 633 1636 608 1648 c 0,30,31
 585 1655 585 1655 568 1671 c 0,32,33
 536 1713 536 1713 532 1759 c 257,34,35
 532 1805.8 532 1805.8 568 1849 c 257,36,37
 600.791666667 1881.79166667 600.791666667 1881.79166667 656 1884 c 256,38,39
 679 1884 679 1884 705 1876 c 1,40,41
 726 1864 726 1864 744 1849 c 0,42,43
 760 1833 760 1833 768 1808 c 1,44,45
 780 1785 780 1785 779 1759 c 256,24,25
492 0 m 0,46,47
 492 328 492 328 164 328 c 0,48,49
 81 328 81 328 81 410 c 128,-1,50
 81 492 81 492 164 492 c 0,51,52
 409 492 409 492 532 368 c 256,53,54
 657 243 657 243 656 0 c 0,55,56
 656 -81 656 -81 573 -81 c 128,-1,57
 490 -81 490 -81 492 0 c 0,46,47
EndSplineSet
EndChar

StartChar: glyph316
Encoding: 169 -1 169
Width: 654
VWidth: 4095
GlyphClass: 2
Flags: W
LayerCount: 2
Fore
SplineSet
656 1392 m 256,0,1
 1312 1392 1312 1392 1312 735 c 2,2,3
 1312 735 1312 735 1312 654 c 128,-1,4
 1312 573 1312 573 1228 571 c 0,5,6
 1147 571 1147 571 1148 656 c 257,7,8
 1148 656 1148 656 1148 735 c 0,9,10
 1148 1230.02469136 1148 1230.02469136 656 1228 c 0,11,12
 408 1228 408 1228 289 1104 c 1,13,14
 164 984 164 984 164 735 c 2,15,16
 164 735 164 735 164 0 c 0,17,18
 164 -81 164 -81 82 -81 c 128,-1,19
 0 -81 0 -81 0 0 c 258,20,21
 0 0 0 0 0 735 c 0,22,23
 0 1392 0 1392 656 1392 c 256,0,1
779 1759 m 256,24,25
 779 1716.9375 779 1716.9375 744 1671 c 1,26,27
 698.0625 1636 698.0625 1636 656 1636 c 256,28,29
 633 1636 633 1636 608 1648 c 0,30,31
 585 1655 585 1655 568 1671 c 0,32,33
 536 1713 536 1713 532 1759 c 257,34,35
 532 1805.8 532 1805.8 568 1849 c 257,36,37
 600.791666667 1881.79166667 600.791666667 1881.79166667 656 1884 c 256,38,39
 679 1884 679 1884 705 1876 c 1,40,41
 726 1864 726 1864 744 1849 c 0,42,43
 760 1833 760 1833 768 1808 c 1,44,45
 780 1785 780 1785 779 1759 c 256,24,25
EndSplineSet
EndChar

StartChar: glyph317
Encoding: 170 -1 170
Width: 654
VWidth: 4095
GlyphClass: 2
Flags: W
LayerCount: 2
Fore
SplineSet
656 1392 m 256,0,1
 1312 1392 1312 1392 1312 735 c 2,2,3
 1312 735 1312 735 1312 654 c 128,-1,4
 1312 573 1312 573 1228 571 c 0,5,6
 1147 571 1147 571 1148 656 c 257,7,8
 1148 656 1148 656 1148 735 c 0,9,10
 1148 1230.02469136 1148 1230.02469136 656 1228 c 0,11,12
 408 1228 408 1228 289 1104 c 1,13,14
 164 984 164 984 164 735 c 2,15,16
 164 735 164 735 164 0 c 0,17,18
 164 -81 164 -81 82 -81 c 128,-1,19
 0 -81 0 -81 0 0 c 258,20,21
 0 0 0 0 0 735 c 0,22,23
 0 1392 0 1392 656 1392 c 256,0,1
492 0 m 0,24,25
 492 328 492 328 164 328 c 0,26,27
 81 328 81 328 81 410 c 128,-1,28
 81 492 81 492 164 492 c 0,29,30
 409 492 409 492 532 368 c 256,31,32
 657 243 657 243 656 0 c 0,33,34
 656 -81 656 -81 573 -81 c 128,-1,35
 490 -81 490 -81 492 0 c 0,24,25
899 1720 m 256,36,37
 899 1615 899 1615 827.5 1543.5 c 0,38,39
 756 1472 756 1472 656 1472 c 256,40,41
 566.4 1472 566.4 1472 480 1544 c 1,42,43
 405.191381496 1630.49746515 405.191381496 1630.49746515 409 1720 c 256,44,45
 409 1817.41935484 409 1817.41935484 480 1893 c 0,46,47
 558.08 1971.08 558.08 1971.08 656 1967 c 257,48,49
 760.529411765 1967 760.529411765 1967 828 1893 c 1,50,51
 899 1831.59459459 899 1831.59459459 899 1720 c 256,36,37
735 1720 m 256,52,53
 735 1762.61538462 735 1762.61538462 712 1775 c 1,54,55
 697.416666667 1800 697.416666667 1800 656 1800 c 256,56,57
 607 1800 607 1800 580 1752 c 256,58,59
 573 1736 573 1736 571 1720 c 256,60,61
 571 1693.33333333 571 1693.33333333 596 1660 c 1,62,63
 634.88 1637.32 634.88 1637.32 656 1636 c 256,64,65
 706 1636 706 1636 732 1688 c 1,66,67
 735 1704 735 1704 735 1720 c 256,52,53
EndSplineSet
EndChar

StartChar: glyph318
Encoding: 171 -1 171
Width: 654
VWidth: 4095
GlyphClass: 2
Flags: W
LayerCount: 2
Fore
SplineSet
656 1392 m 256,0,1
 1312 1392 1312 1392 1312 735 c 2,2,3
 1312 735 1312 735 1312 654 c 128,-1,4
 1312 573 1312 573 1228 571 c 0,5,6
 1147 571 1147 571 1148 656 c 257,7,8
 1148 656 1148 656 1148 735 c 0,9,10
 1148 1230.02469136 1148 1230.02469136 656 1228 c 0,11,12
 408 1228 408 1228 289 1104 c 1,13,14
 164 984 164 984 164 735 c 2,15,16
 164 735 164 735 164 0 c 0,17,18
 164 -81 164 -81 82 -81 c 128,-1,19
 0 -81 0 -81 0 0 c 258,20,21
 0 0 0 0 0 735 c 0,22,23
 0 1392 0 1392 656 1392 c 256,0,1
899 1720 m 256,24,25
 899 1615 899 1615 827.5 1543.5 c 0,26,27
 756 1472 756 1472 656 1472 c 256,28,29
 566.4 1472 566.4 1472 480 1544 c 1,30,31
 405.191381496 1630.49746515 405.191381496 1630.49746515 409 1720 c 256,32,33
 409 1817.41935484 409 1817.41935484 480 1893 c 0,34,35
 558.08 1971.08 558.08 1971.08 656 1967 c 257,36,37
 760.529411765 1967 760.529411765 1967 828 1893 c 1,38,39
 899 1831.59459459 899 1831.59459459 899 1720 c 256,24,25
735 1720 m 256,40,41
 735 1762.61538462 735 1762.61538462 712 1775 c 1,42,43
 697.416666667 1800 697.416666667 1800 656 1800 c 256,44,45
 607 1800 607 1800 580 1752 c 256,46,47
 573 1736 573 1736 571 1720 c 256,48,49
 571 1693.33333333 571 1693.33333333 596 1660 c 1,50,51
 634.88 1637.32 634.88 1637.32 656 1636 c 256,52,53
 706 1636 706 1636 732 1688 c 1,54,55
 735 1704 735 1704 735 1720 c 256,40,41
EndSplineSet
EndChar

StartChar: glyph319
Encoding: 172 -1 172
Width: 1217
VWidth: 4086
GlyphClass: 2
Flags: W
LayerCount: 2
Fore
SplineSet
0 735 m 1,0,1
 0 735 0 735 407 735 c 0,2,3
 492 735 492 735 492 658 c 0,4,5
 491 575 491 575 407 571 c 1,6,7
 407 571 407 571 163 571 c 1,8,9
 163 571 163 571 163 407 c 0,10,11
 163 329 163 329 81.5 329.5 c 128,-1,12
 0 330 0 330 0 407 c 2,13,14
 0 407 0 407 0 735 c 1,0,1
407 735 m 0,15,16
 407 1065 407 1065 533 1187 c 256,17,18
 656 1310 656 1310 903 1310 c 128,-1,19
 1150 1310 1150 1310 1266 1146 c 1,20,21
 1389 983 1389 983 1389 735 c 2,22,23
 1389 735 1389 735 1389 655 c 128,-1,24
 1389 575 1389 575 1310 571 c 1,25,26
 1227 571 1227 571 1228 658 c 257,27,28
 1228 658 1228 658 1228 735 c 0,29,30
 1228 898 1228 898 1146 1025 c 0,31,32
 1063 1148 1063 1148 901 1146 c 256,33,34
 738 1146 738 1146 656.5 1066.5 c 128,-1,35
 575 987 575 987 571 735 c 1,36,37
 571 735 571 735 571 0 c 1,38,39
 572 -79 572 -79 490.5 -79 c 128,-1,40
 409 -79 409 -79 407 0 c 257,41,42
 407 0 407 0 407 735 c 0,15,16
EndSplineSet
EndChar

StartChar: glyph320
Encoding: 173 -1 173
Width: 409
VWidth: 4095
GlyphClass: 2
Flags: W
LayerCount: 2
Fore
SplineSet
409 735 m 5,0,-1
 489 656 l 5,1,-1
 409 571 l 5,2,-1
 364 656 l 5,3,-1
 409 735 l 5,0,-1
0 735 m 1,4,5
 0 735 0 735 409 735 c 1,6,7
 409 735 409 735 409 571 c 1,8,9
 409 571 409 571 164 571 c 1,10,11
 164 571 164 571 164 409 c 0,12,13
 164 328 164 328 82 328 c 128,-1,14
 0 328 0 328 0 409 c 2,15,16
 0 409 0 409 0 735 c 1,4,5
-492 1805 m 1,17,18
 -409 1886 -409 1886 -245 1884 c 0,19,20
 -164 1884 -164 1884 -164 1803 c 128,-1,21
 -164 1722 -164 1722 -245 1720 c 0,22,23
 -407.515151515 1720 -407.515151515 1720 -408.5 1557.5 c 0,24,25
 -409 1475 -409 1475 -409 1464.625 c 2,26,27
 -409 1464.625 -409 1464.625 -409 1312 c 0,28,29
 -409 1229 -409 1229 -492 1228 c 0,30,31
 -573 1228 -573 1228 -572 1310.5 c 128,-1,32
 -571 1393 -571 1393 -571 1403.25 c 2,33,34
 -571 1403.25 -571 1403.25 -571 1561.625 c 128,-1,35
 -571 1720 -571 1720 -492 1805 c 1,17,18
EndSplineSet
EndChar

StartChar: glyph321
Encoding: 174 -1 174
Width: 409
VWidth: 4095
GlyphClass: 2
Flags: W
LayerCount: 2
Fore
SplineSet
409 735 m 5,0,-1
 489 656 l 5,1,-1
 409 571 l 5,2,-1
 364 656 l 5,3,-1
 409 735 l 5,0,-1
0 735 m 1,4,5
 0 735 0 735 409 735 c 1,6,7
 409 735 409 735 409 571 c 1,8,9
 409 571 409 571 164 571 c 1,10,11
 164 571 164 571 164 409 c 0,12,13
 164 328 164 328 82 328 c 128,-1,14
 0 328 0 328 0 409 c 2,15,16
 0 409 0 409 0 735 c 1,4,5
-571 1312 m 1,17,18
 -571 1312 -571 1312 -571 1557 c 0,19,20
 -571 1639 -571 1639 -617 1680 c 0,21,22
 -657 1720 -657 1720 -737.5 1720 c 128,-1,23
 -818 1720 -818 1720 -820 1805 c 0,24,25
 -820 1886 -820 1886 -735 1884 c 0,26,27
 -409 1884 -409 1884 -409 1556 c 2,28,29
 -409 1556 -409 1556 -409 1312 c 0,30,31
 -409 1229 -409 1229 -492 1228 c 0,32,33
 -573 1228 -573 1228 -571 1312 c 1,17,18
EndSplineSet
EndChar

StartChar: glyph322
Encoding: 175 -1 175
Width: 409
VWidth: 4095
GlyphClass: 2
Flags: W
LayerCount: 2
Fore
SplineSet
409 735 m 5,0,-1
 489 656 l 5,1,-1
 409 571 l 5,2,-1
 364 656 l 5,3,-1
 409 735 l 5,0,-1
0 735 m 1,4,5
 0 735 0 735 409 735 c 1,6,7
 409 735 409 735 409 571 c 1,8,9
 409 571 409 571 164 571 c 1,10,11
 164 571 164 571 164 409 c 0,12,13
 164 328 164 328 82 328 c 128,-1,14
 0 328 0 328 0 410 c 2,15,16
 0 410 0 410 0 735 c 1,4,5
204 -40 m 256,17,18
 204 -118.04 204 -118.04 127 -155 c 1,19,20
 52.8785425101 -177.558704453 52.8785425101 -177.558704453 -4 -127 c 256,21,22
 -37.875 -93.125 -37.875 -93.125 -40 -40 c 256,23,24
 -40 5.75 -40 5.75 -4 44 c 1,25,26
 19.7457212714 75.1662591687 19.7457212714 75.1662591687 81 81 c 1,27,28
 157.5 81 157.5 81 196 4 c 0,29,30
 203 -17 203 -17 204 -40 c 256,17,18
EndSplineSet
EndChar

StartChar: glyph323
Encoding: 176 -1 176
Width: 409
VWidth: 4095
GlyphClass: 2
Flags: W
LayerCount: 2
Fore
SplineSet
409 735 m 5,0,-1
 489 656 l 5,1,-1
 409 571 l 5,2,-1
 364 656 l 5,3,-1
 409 735 l 5,0,-1
0 735 m 1,4,5
 0 735 0 735 409 735 c 1,6,7
 409 735 409 735 409 571 c 1,8,9
 409 571 409 571 164 571 c 1,10,11
 164 571 164 571 164 0 c 0,12,13
 164 -81 164 -81 82 -81 c 128,-1,14
 0 -81 0 -81 0 0 c 2,15,16
 0 0 0 0 0 735 c 1,4,5
412 1228 m 256,17,18
 412 1122.59459459 412 1122.59459459 335 1056 c 1,19,20
 272.72972973 984 272.72972973 984 164 984 c 256,21,22
 116 984 116 984 67 1000 c 1,23,24
 -26.2465437788 1044.50403226 -26.2465437788 1044.50403226 -64 1137 c 0,25,26
 -85 1181 -85 1181 -83 1228 c 256,27,28
 -83 1322.83870968 -83 1322.83870968 -12 1403 c 1,29,30
 73.5625 1477 73.5625 1477 164 1477 c 256,31,32
 263.3125 1477 263.3125 1477 339.61625 1399.54 c 0,33,34
 415.92 1322.08 415.92 1322.08 412 1228 c 256,17,18
245 1228 m 256,35,36
 245 1278.05882353 245 1278.05882353 196 1304 c 256,37,38
 180 1310 180 1310 164 1312 c 256,39,40
 136 1312 136 1312 104 1288 c 1,41,42
 81 1248.57142857 81 1248.57142857 81 1228 c 256,43,44
 81 1179.6875 81 1179.6875 132 1151 c 1,45,46
 148 1147 148 1147 164 1148 c 256,47,48
 206.285714286 1148 206.285714286 1148 220 1172 c 1,49,50
 245 1186.58333333 245 1186.58333333 245 1228 c 256,35,36
EndSplineSet
EndChar

